<mxfile host="Electron" modified="2024-03-15T15:04:33.445Z" agent="Mozilla/5.0 (X11; Linux x86_64) AppleWebKit/537.36 (KHTML, like Gecko) draw.io/24.0.4 Chrome/120.0.6099.109 Electron/28.1.0 Safari/537.36" etag="zEBU0i-UANeLEHw9tdgv" version="24.0.4" type="device">
  <diagram id="C5RBs43oDa-KdzZeNtuy" name="Page-1">
    <mxGraphModel dx="1434" dy="843" grid="1" gridSize="10" guides="1" tooltips="1" connect="1" arrows="1" fold="1" page="1" pageScale="1" pageWidth="827" pageHeight="1169" math="0" shadow="0">
      <root>
        <mxCell id="WIyWlLk6GJQsqaUBKTNV-0" />
        <mxCell id="WIyWlLk6GJQsqaUBKTNV-1" parent="WIyWlLk6GJQsqaUBKTNV-0" />
        <mxCell id="NxA7Hxz0lzZM3i-V5ae6-15" style="edgeStyle=orthogonalEdgeStyle;rounded=0;orthogonalLoop=1;jettySize=auto;html=1;entryX=0.5;entryY=0;entryDx=0;entryDy=0;dashed=1;fillColor=#f5f5f5;strokeColor=#666666;" parent="WIyWlLk6GJQsqaUBKTNV-1" source="NxA7Hxz0lzZM3i-V5ae6-6" target="4Ivwiv6vfabpAXgnyQMF-34" edge="1">
          <mxGeometry relative="1" as="geometry" />
        </mxCell>
        <mxCell id="_P-o3jj2x-MagiqrzHoN-36" style="edgeStyle=orthogonalEdgeStyle;rounded=0;orthogonalLoop=1;jettySize=auto;html=1;" parent="WIyWlLk6GJQsqaUBKTNV-1" edge="1">
          <mxGeometry relative="1" as="geometry">
            <mxPoint x="550" y="59.999999999999886" as="sourcePoint" />
          </mxGeometry>
        </mxCell>
        <mxCell id="_P-o3jj2x-MagiqrzHoN-37" style="edgeStyle=orthogonalEdgeStyle;rounded=0;orthogonalLoop=1;jettySize=auto;html=1;" parent="WIyWlLk6GJQsqaUBKTNV-1" edge="1">
          <mxGeometry relative="1" as="geometry">
            <mxPoint x="550" y="120" as="sourcePoint" />
          </mxGeometry>
        </mxCell>
        <mxCell id="_P-o3jj2x-MagiqrzHoN-39" style="edgeStyle=orthogonalEdgeStyle;rounded=0;orthogonalLoop=1;jettySize=auto;html=1;" parent="WIyWlLk6GJQsqaUBKTNV-1" edge="1">
          <mxGeometry relative="1" as="geometry">
            <mxPoint x="550" y="275.0000000000001" as="sourcePoint" />
          </mxGeometry>
        </mxCell>
        <mxCell id="4Ivwiv6vfabpAXgnyQMF-0" value="&lt;div style=&quot;text-align: center;&quot;&gt;&lt;b&gt;&lt;font style=&quot;font-size: 16px;&quot;&gt;Label&lt;/font&gt;&lt;/b&gt;&lt;/div&gt;&lt;b&gt;&lt;div&gt;&lt;b&gt;&lt;br&gt;&lt;/b&gt;&lt;/div&gt;&lt;div&gt;&lt;b&gt;&lt;br&gt;&lt;/b&gt;&lt;/div&gt;&lt;div&gt;&lt;br&gt;&lt;/div&gt;&lt;/b&gt;Manual Steps&amp;nbsp; &amp;nbsp;Supervisor&lt;div&gt;&lt;br&gt;&lt;/div&gt;&lt;div&gt;&lt;br&gt;&lt;/div&gt;&lt;div&gt;&lt;br&gt;&lt;/div&gt;&lt;div&gt;&amp;nbsp; &amp;nbsp; &amp;nbsp; Error&amp;nbsp; &amp;nbsp; &amp;nbsp; &amp;nbsp; &amp;nbsp; &amp;nbsp; &amp;nbsp; &amp;nbsp;Check&lt;/div&gt;" style="shape=note;size=10;whiteSpace=wrap;html=1;fontSize=10;align=left;" parent="WIyWlLk6GJQsqaUBKTNV-1" vertex="1">
          <mxGeometry x="39.99999999999997" y="996.42" width="130" height="140" as="geometry" />
        </mxCell>
        <mxCell id="4Ivwiv6vfabpAXgnyQMF-1" value="" style="verticalLabelPosition=middle;verticalAlign=middle;html=1;shape=trapezoid;perimeter=trapezoidPerimeter;whiteSpace=wrap;size=0.23;arcSize=10;flipV=1;labelPosition=center;align=center;fillColor=#f5f5f5;fontColor=#333333;strokeColor=#666666;" parent="WIyWlLk6GJQsqaUBKTNV-1" vertex="1">
          <mxGeometry x="49.999999999999915" y="1039.42" width="40" height="20" as="geometry" />
        </mxCell>
        <mxCell id="4Ivwiv6vfabpAXgnyQMF-2" value="" style="rounded=1;whiteSpace=wrap;html=1;fontSize=12;glass=0;strokeWidth=1;shadow=0;" parent="WIyWlLk6GJQsqaUBKTNV-1" vertex="1">
          <mxGeometry x="119.99999999999991" y="1039.42" width="30" height="20" as="geometry" />
        </mxCell>
        <mxCell id="4Ivwiv6vfabpAXgnyQMF-3" value="" style="shape=hexagon;perimeter=hexagonPerimeter2;whiteSpace=wrap;html=1;fixedSize=1;fillColor=#fff2cc;strokeColor=#d6b656;size=10;" parent="WIyWlLk6GJQsqaUBKTNV-1" vertex="1">
          <mxGeometry x="109.99999999999991" y="1088.42" width="50" height="20" as="geometry" />
        </mxCell>
        <mxCell id="4Ivwiv6vfabpAXgnyQMF-4" value="" style="rounded=1;whiteSpace=wrap;html=1;fillColor=#f8cecc;strokeColor=#b85450;" parent="WIyWlLk6GJQsqaUBKTNV-1" vertex="1">
          <mxGeometry x="54.999999999999915" y="1088.42" width="30" height="20" as="geometry" />
        </mxCell>
        <mxCell id="4Ivwiv6vfabpAXgnyQMF-7" style="edgeStyle=orthogonalEdgeStyle;rounded=0;orthogonalLoop=1;jettySize=auto;html=1;entryX=0.5;entryY=0;entryDx=0;entryDy=0;" parent="WIyWlLk6GJQsqaUBKTNV-1" source="4Ivwiv6vfabpAXgnyQMF-8" target="4Ivwiv6vfabpAXgnyQMF-34" edge="1">
          <mxGeometry relative="1" as="geometry">
            <Array as="points">
              <mxPoint x="335" y="700" />
              <mxPoint x="575.0000000000001" y="700" />
              <mxPoint x="575.0000000000001" y="170" />
              <mxPoint x="680.0000000000001" y="170" />
            </Array>
          </mxGeometry>
        </mxCell>
        <mxCell id="4Ivwiv6vfabpAXgnyQMF-8" value="TS Activated?" style="shape=hexagon;perimeter=hexagonPerimeter2;whiteSpace=wrap;html=1;fixedSize=1;fillColor=#fff2cc;strokeColor=#d6b656;" parent="WIyWlLk6GJQsqaUBKTNV-1" vertex="1">
          <mxGeometry x="296.76" y="640" width="125" height="40" as="geometry" />
        </mxCell>
        <mxCell id="4Ivwiv6vfabpAXgnyQMF-9" style="edgeStyle=orthogonalEdgeStyle;rounded=0;orthogonalLoop=1;jettySize=auto;html=1;" parent="WIyWlLk6GJQsqaUBKTNV-1" source="4Ivwiv6vfabpAXgnyQMF-10" target="4Ivwiv6vfabpAXgnyQMF-8" edge="1">
          <mxGeometry relative="1" as="geometry" />
        </mxCell>
        <mxCell id="4Ivwiv6vfabpAXgnyQMF-10" value="Close SDC" style="rounded=1;whiteSpace=wrap;html=1;" parent="WIyWlLk6GJQsqaUBKTNV-1" vertex="1">
          <mxGeometry x="299.26" y="560" width="120" height="50" as="geometry" />
        </mxCell>
        <mxCell id="4Ivwiv6vfabpAXgnyQMF-11" style="edgeStyle=orthogonalEdgeStyle;rounded=0;orthogonalLoop=1;jettySize=auto;html=1;" parent="WIyWlLk6GJQsqaUBKTNV-1" source="4Ivwiv6vfabpAXgnyQMF-12" target="4Ivwiv6vfabpAXgnyQMF-24" edge="1">
          <mxGeometry relative="1" as="geometry">
            <mxPoint x="359.26" y="260" as="targetPoint" />
          </mxGeometry>
        </mxCell>
        <mxCell id="4Ivwiv6vfabpAXgnyQMF-12" value="Start Toggling Watchdog" style="rounded=1;whiteSpace=wrap;html=1;fontSize=12;glass=0;strokeWidth=1;shadow=0;" parent="WIyWlLk6GJQsqaUBKTNV-1" vertex="1">
          <mxGeometry x="299.26" y="190" width="120" height="40" as="geometry" />
        </mxCell>
        <mxCell id="4Ivwiv6vfabpAXgnyQMF-13" style="edgeStyle=orthogonalEdgeStyle;rounded=0;orthogonalLoop=1;jettySize=auto;html=1;" parent="WIyWlLk6GJQsqaUBKTNV-1" source="4Ivwiv6vfabpAXgnyQMF-24" target="4Ivwiv6vfabpAXgnyQMF-15" edge="1">
          <mxGeometry relative="1" as="geometry">
            <mxPoint x="359.26" y="300" as="sourcePoint" />
          </mxGeometry>
        </mxCell>
        <mxCell id="4Ivwiv6vfabpAXgnyQMF-14" style="edgeStyle=orthogonalEdgeStyle;rounded=0;orthogonalLoop=1;jettySize=auto;html=1;" parent="WIyWlLk6GJQsqaUBKTNV-1" source="4Ivwiv6vfabpAXgnyQMF-15" target="4Ivwiv6vfabpAXgnyQMF-19" edge="1">
          <mxGeometry relative="1" as="geometry">
            <mxPoint x="359.26" y="400" as="targetPoint" />
          </mxGeometry>
        </mxCell>
        <mxCell id="4Ivwiv6vfabpAXgnyQMF-15" value="Stop toggling Watchdog" style="rounded=1;whiteSpace=wrap;html=1;" parent="WIyWlLk6GJQsqaUBKTNV-1" vertex="1">
          <mxGeometry x="299.26" y="330" width="120" height="40" as="geometry" />
        </mxCell>
        <mxCell id="4Ivwiv6vfabpAXgnyQMF-16" style="edgeStyle=orthogonalEdgeStyle;rounded=0;orthogonalLoop=1;jettySize=auto;html=1;" parent="WIyWlLk6GJQsqaUBKTNV-1" source="4Ivwiv6vfabpAXgnyQMF-19" target="4Ivwiv6vfabpAXgnyQMF-21" edge="1">
          <mxGeometry relative="1" as="geometry" />
        </mxCell>
        <mxCell id="4Ivwiv6vfabpAXgnyQMF-17" style="edgeStyle=orthogonalEdgeStyle;rounded=0;orthogonalLoop=1;jettySize=auto;html=1;entryX=0;entryY=0.5;entryDx=0;entryDy=0;fillColor=#f8cecc;strokeColor=#b85450;" parent="WIyWlLk6GJQsqaUBKTNV-1" source="4Ivwiv6vfabpAXgnyQMF-19" target="4Ivwiv6vfabpAXgnyQMF-66" edge="1">
          <mxGeometry relative="1" as="geometry">
            <Array as="points">
              <mxPoint x="440" y="430" />
              <mxPoint x="440" y="213" />
            </Array>
          </mxGeometry>
        </mxCell>
        <mxCell id="4Ivwiv6vfabpAXgnyQMF-18" value="No" style="edgeLabel;html=1;align=center;verticalAlign=middle;resizable=0;points=[];" parent="4Ivwiv6vfabpAXgnyQMF-17" vertex="1" connectable="0">
          <mxGeometry x="-0.9421" relative="1" as="geometry">
            <mxPoint y="8" as="offset" />
          </mxGeometry>
        </mxCell>
        <mxCell id="4Ivwiv6vfabpAXgnyQMF-19" value="WD_is_ready == 0" style="shape=hexagon;perimeter=hexagonPerimeter2;whiteSpace=wrap;html=1;fixedSize=1;fillColor=#fff2cc;strokeColor=#d6b656;" parent="WIyWlLk6GJQsqaUBKTNV-1" vertex="1">
          <mxGeometry x="299.26" y="410" width="120" height="40" as="geometry" />
        </mxCell>
        <mxCell id="4Ivwiv6vfabpAXgnyQMF-20" style="edgeStyle=orthogonalEdgeStyle;rounded=0;orthogonalLoop=1;jettySize=auto;html=1;" parent="WIyWlLk6GJQsqaUBKTNV-1" source="4Ivwiv6vfabpAXgnyQMF-21" target="4Ivwiv6vfabpAXgnyQMF-10" edge="1">
          <mxGeometry relative="1" as="geometry" />
        </mxCell>
        <mxCell id="4Ivwiv6vfabpAXgnyQMF-21" value="Start toggling Watchdog again" style="rounded=1;whiteSpace=wrap;html=1;fontSize=12;glass=0;strokeWidth=1;shadow=0;" parent="WIyWlLk6GJQsqaUBKTNV-1" vertex="1">
          <mxGeometry x="299.26" y="480" width="120" height="40" as="geometry" />
        </mxCell>
        <mxCell id="4Ivwiv6vfabpAXgnyQMF-22" style="edgeStyle=orthogonalEdgeStyle;rounded=0;orthogonalLoop=1;jettySize=auto;html=1;entryX=0;entryY=0.5;entryDx=0;entryDy=0;fillColor=#f8cecc;strokeColor=#b85450;" parent="WIyWlLk6GJQsqaUBKTNV-1" source="4Ivwiv6vfabpAXgnyQMF-24" target="4Ivwiv6vfabpAXgnyQMF-66" edge="1">
          <mxGeometry relative="1" as="geometry">
            <Array as="points">
              <mxPoint x="440" y="280" />
              <mxPoint x="440" y="213" />
            </Array>
          </mxGeometry>
        </mxCell>
        <mxCell id="4Ivwiv6vfabpAXgnyQMF-23" value="No" style="edgeLabel;html=1;align=center;verticalAlign=middle;resizable=0;points=[];" parent="4Ivwiv6vfabpAXgnyQMF-22" vertex="1" connectable="0">
          <mxGeometry x="-0.8393" relative="1" as="geometry">
            <mxPoint y="11" as="offset" />
          </mxGeometry>
        </mxCell>
        <mxCell id="4Ivwiv6vfabpAXgnyQMF-24" value="WD_is_ready == 1" style="shape=hexagon;perimeter=hexagonPerimeter2;whiteSpace=wrap;html=1;fixedSize=1;fillColor=#fff2cc;strokeColor=#d6b656;" parent="WIyWlLk6GJQsqaUBKTNV-1" vertex="1">
          <mxGeometry x="299.26" y="260" width="120" height="40" as="geometry" />
        </mxCell>
        <mxCell id="NxA7Hxz0lzZM3i-V5ae6-9" style="edgeStyle=orthogonalEdgeStyle;rounded=0;orthogonalLoop=1;jettySize=auto;html=1;entryX=0;entryY=0.5;entryDx=0;entryDy=0;dashed=1;fillColor=#f5f5f5;strokeColor=#666666;" parent="WIyWlLk6GJQsqaUBKTNV-1" source="4Ivwiv6vfabpAXgnyQMF-26" target="4Ivwiv6vfabpAXgnyQMF-8" edge="1">
          <mxGeometry relative="1" as="geometry" />
        </mxCell>
        <mxCell id="4Ivwiv6vfabpAXgnyQMF-26" value="Push External Activation&amp;nbsp;&lt;div&gt;Button&lt;/div&gt;" style="verticalLabelPosition=middle;verticalAlign=middle;html=1;shape=trapezoid;perimeter=trapezoidPerimeter;whiteSpace=wrap;size=0.23;arcSize=10;flipV=1;labelPosition=center;align=center;fillColor=#f5f5f5;fontColor=#333333;strokeColor=#666666;" parent="WIyWlLk6GJQsqaUBKTNV-1" vertex="1">
          <mxGeometry x="64.59" y="635" width="110" height="50" as="geometry" />
        </mxCell>
        <mxCell id="4Ivwiv6vfabpAXgnyQMF-27" style="edgeStyle=orthogonalEdgeStyle;rounded=0;orthogonalLoop=1;jettySize=auto;html=1;" parent="WIyWlLk6GJQsqaUBKTNV-1" source="4Ivwiv6vfabpAXgnyQMF-28" target="4Ivwiv6vfabpAXgnyQMF-30" edge="1">
          <mxGeometry relative="1" as="geometry" />
        </mxCell>
        <mxCell id="NxA7Hxz0lzZM3i-V5ae6-13" style="edgeStyle=orthogonalEdgeStyle;rounded=0;orthogonalLoop=1;jettySize=auto;html=1;entryX=0;entryY=0.5;entryDx=0;entryDy=0;dashed=1;fillColor=#f5f5f5;strokeColor=#666666;" parent="WIyWlLk6GJQsqaUBKTNV-1" source="4Ivwiv6vfabpAXgnyQMF-28" target="4Ivwiv6vfabpAXgnyQMF-12" edge="1">
          <mxGeometry relative="1" as="geometry" />
        </mxCell>
        <mxCell id="4Ivwiv6vfabpAXgnyQMF-28" value="Turn on ASMS" style="verticalLabelPosition=middle;verticalAlign=middle;html=1;shape=trapezoid;perimeter=trapezoidPerimeter;whiteSpace=wrap;size=0.23;arcSize=10;flipV=1;labelPosition=center;align=center;fillColor=#f5f5f5;fontColor=#333333;strokeColor=#666666;" parent="WIyWlLk6GJQsqaUBKTNV-1" vertex="1">
          <mxGeometry x="64.59" y="220" width="110" height="50" as="geometry" />
        </mxCell>
        <mxCell id="NxA7Hxz0lzZM3i-V5ae6-8" style="edgeStyle=orthogonalEdgeStyle;rounded=0;orthogonalLoop=1;jettySize=auto;html=1;entryX=0.5;entryY=0;entryDx=0;entryDy=0;" parent="WIyWlLk6GJQsqaUBKTNV-1" source="4Ivwiv6vfabpAXgnyQMF-30" target="4Ivwiv6vfabpAXgnyQMF-26" edge="1">
          <mxGeometry relative="1" as="geometry" />
        </mxCell>
        <mxCell id="4Ivwiv6vfabpAXgnyQMF-30" value="Turn on TSMS" style="verticalLabelPosition=middle;verticalAlign=middle;html=1;shape=trapezoid;perimeter=trapezoidPerimeter;whiteSpace=wrap;size=0.23;arcSize=10;flipV=1;labelPosition=center;align=center;fillColor=#f5f5f5;fontColor=#333333;strokeColor=#666666;" parent="WIyWlLk6GJQsqaUBKTNV-1" vertex="1">
          <mxGeometry x="64.59" y="450" width="110" height="55" as="geometry" />
        </mxCell>
        <mxCell id="4Ivwiv6vfabpAXgnyQMF-31" style="edgeStyle=orthogonalEdgeStyle;rounded=0;orthogonalLoop=1;jettySize=auto;html=1;entryX=0.5;entryY=0;entryDx=0;entryDy=0;" parent="WIyWlLk6GJQsqaUBKTNV-1" source="4Ivwiv6vfabpAXgnyQMF-34" target="4Ivwiv6vfabpAXgnyQMF-38" edge="1">
          <mxGeometry relative="1" as="geometry">
            <mxPoint x="679.67" y="260" as="targetPoint" />
            <mxPoint x="679.67" y="230" as="sourcePoint" />
          </mxGeometry>
        </mxCell>
        <mxCell id="4Ivwiv6vfabpAXgnyQMF-32" style="edgeStyle=orthogonalEdgeStyle;rounded=0;orthogonalLoop=1;jettySize=auto;html=1;entryX=1;entryY=0.5;entryDx=0;entryDy=0;fillColor=#f8cecc;strokeColor=#b85450;jumpStyle=line;" parent="WIyWlLk6GJQsqaUBKTNV-1" source="4Ivwiv6vfabpAXgnyQMF-34" target="4Ivwiv6vfabpAXgnyQMF-65" edge="1">
          <mxGeometry relative="1" as="geometry">
            <Array as="points">
              <mxPoint x="565.0000000000001" y="210" />
              <mxPoint x="565.0000000000001" y="565" />
            </Array>
          </mxGeometry>
        </mxCell>
        <mxCell id="4Ivwiv6vfabpAXgnyQMF-33" value="No" style="edgeLabel;html=1;align=center;verticalAlign=middle;resizable=0;points=[];" parent="4Ivwiv6vfabpAXgnyQMF-32" vertex="1" connectable="0">
          <mxGeometry x="-0.9359" y="-1" relative="1" as="geometry">
            <mxPoint y="11" as="offset" />
          </mxGeometry>
        </mxCell>
        <mxCell id="4Ivwiv6vfabpAXgnyQMF-34" value="BP1 &amp;gt; 6 bar &amp;amp;&amp;amp; BP2 &amp;gt; 6 bar" style="shape=hexagon;perimeter=hexagonPerimeter2;whiteSpace=wrap;html=1;fixedSize=1;fillColor=#fff2cc;strokeColor=#d6b656;" parent="WIyWlLk6GJQsqaUBKTNV-1" vertex="1">
          <mxGeometry x="599.6700000000001" y="190" width="160" height="40" as="geometry" />
        </mxCell>
        <mxCell id="4Ivwiv6vfabpAXgnyQMF-35" style="edgeStyle=orthogonalEdgeStyle;rounded=0;orthogonalLoop=1;jettySize=auto;html=1;entryX=1;entryY=0.5;entryDx=0;entryDy=0;fillColor=#f8cecc;strokeColor=#b85450;jumpStyle=line;" parent="WIyWlLk6GJQsqaUBKTNV-1" source="4Ivwiv6vfabpAXgnyQMF-38" target="4Ivwiv6vfabpAXgnyQMF-65" edge="1">
          <mxGeometry relative="1" as="geometry">
            <Array as="points">
              <mxPoint x="565.0000000000001" y="313" />
              <mxPoint x="565.0000000000001" y="565" />
            </Array>
          </mxGeometry>
        </mxCell>
        <mxCell id="4Ivwiv6vfabpAXgnyQMF-36" value="No" style="edgeLabel;html=1;align=center;verticalAlign=middle;resizable=0;points=[];" parent="4Ivwiv6vfabpAXgnyQMF-35" vertex="1" connectable="0">
          <mxGeometry x="-0.9464" relative="1" as="geometry">
            <mxPoint y="8" as="offset" />
          </mxGeometry>
        </mxCell>
        <mxCell id="4Ivwiv6vfabpAXgnyQMF-37" style="edgeStyle=orthogonalEdgeStyle;rounded=0;orthogonalLoop=1;jettySize=auto;html=1;entryX=0.5;entryY=0;entryDx=0;entryDy=0;" parent="WIyWlLk6GJQsqaUBKTNV-1" source="4Ivwiv6vfabpAXgnyQMF-38" target="4Ivwiv6vfabpAXgnyQMF-40" edge="1">
          <mxGeometry relative="1" as="geometry" />
        </mxCell>
        <mxCell id="4Ivwiv6vfabpAXgnyQMF-38" value="BP3 &amp;gt; BP1 * 8.3 bar &amp;amp;&amp;amp;&amp;nbsp;&lt;div&gt;BP4 &amp;gt; BP2 * 8.3 bar&lt;/div&gt;" style="shape=hexagon;perimeter=hexagonPerimeter2;whiteSpace=wrap;html=1;fixedSize=1;fillColor=#fff2cc;strokeColor=#d6b656;" parent="WIyWlLk6GJQsqaUBKTNV-1" vertex="1">
          <mxGeometry x="594.6700000000001" y="285" width="170" height="55" as="geometry" />
        </mxCell>
        <mxCell id="4Ivwiv6vfabpAXgnyQMF-39" style="edgeStyle=orthogonalEdgeStyle;rounded=0;orthogonalLoop=1;jettySize=auto;html=1;entryX=0.5;entryY=0;entryDx=0;entryDy=0;" parent="WIyWlLk6GJQsqaUBKTNV-1" source="4Ivwiv6vfabpAXgnyQMF-40" target="4Ivwiv6vfabpAXgnyQMF-48" edge="1">
          <mxGeometry relative="1" as="geometry" />
        </mxCell>
        <mxCell id="4Ivwiv6vfabpAXgnyQMF-40" value="Turn off valve QM1&lt;div&gt;Turn on valve QM2&lt;/div&gt;" style="rounded=1;whiteSpace=wrap;html=1;" parent="WIyWlLk6GJQsqaUBKTNV-1" vertex="1">
          <mxGeometry x="619.67" y="370" width="120" height="50" as="geometry" />
        </mxCell>
        <mxCell id="4Ivwiv6vfabpAXgnyQMF-41" style="edgeStyle=orthogonalEdgeStyle;rounded=0;orthogonalLoop=1;jettySize=auto;html=1;entryX=0.5;entryY=0;entryDx=0;entryDy=0;" parent="WIyWlLk6GJQsqaUBKTNV-1" source="4Ivwiv6vfabpAXgnyQMF-42" target="4Ivwiv6vfabpAXgnyQMF-52" edge="1">
          <mxGeometry relative="1" as="geometry" />
        </mxCell>
        <mxCell id="4Ivwiv6vfabpAXgnyQMF-42" value="Turn on valve QM1&lt;div&gt;Turn off valve QM2&lt;/div&gt;" style="rounded=1;whiteSpace=wrap;html=1;" parent="WIyWlLk6GJQsqaUBKTNV-1" vertex="1">
          <mxGeometry x="619.67" y="540" width="120" height="50" as="geometry" />
        </mxCell>
        <mxCell id="4Ivwiv6vfabpAXgnyQMF-43" style="edgeStyle=orthogonalEdgeStyle;rounded=0;orthogonalLoop=1;jettySize=auto;html=1;entryX=0.5;entryY=0;entryDx=0;entryDy=0;" parent="WIyWlLk6GJQsqaUBKTNV-1" source="4Ivwiv6vfabpAXgnyQMF-44" target="4Ivwiv6vfabpAXgnyQMF-64" edge="1">
          <mxGeometry relative="1" as="geometry" />
        </mxCell>
        <mxCell id="4Ivwiv6vfabpAXgnyQMF-44" value="Turn on valve QM1&lt;div&gt;Turn on valve QM2&lt;/div&gt;" style="rounded=1;whiteSpace=wrap;html=1;" parent="WIyWlLk6GJQsqaUBKTNV-1" vertex="1">
          <mxGeometry x="619.67" y="720" width="120" height="47.5" as="geometry" />
        </mxCell>
        <mxCell id="4Ivwiv6vfabpAXgnyQMF-45" style="edgeStyle=orthogonalEdgeStyle;rounded=0;orthogonalLoop=1;jettySize=auto;html=1;entryX=1;entryY=0.5;entryDx=0;entryDy=0;fillColor=#f8cecc;strokeColor=#b85450;jumpStyle=line;" parent="WIyWlLk6GJQsqaUBKTNV-1" source="4Ivwiv6vfabpAXgnyQMF-48" target="4Ivwiv6vfabpAXgnyQMF-65" edge="1">
          <mxGeometry relative="1" as="geometry">
            <Array as="points">
              <mxPoint x="565.0000000000001" y="477" />
              <mxPoint x="565.0000000000001" y="565" />
            </Array>
          </mxGeometry>
        </mxCell>
        <mxCell id="4Ivwiv6vfabpAXgnyQMF-46" value="No" style="edgeLabel;html=1;align=center;verticalAlign=middle;resizable=0;points=[];" parent="4Ivwiv6vfabpAXgnyQMF-45" vertex="1" connectable="0">
          <mxGeometry x="-0.8759" relative="1" as="geometry">
            <mxPoint y="10" as="offset" />
          </mxGeometry>
        </mxCell>
        <mxCell id="4Ivwiv6vfabpAXgnyQMF-47" style="edgeStyle=orthogonalEdgeStyle;rounded=0;orthogonalLoop=1;jettySize=auto;html=1;entryX=0.5;entryY=0;entryDx=0;entryDy=0;" parent="WIyWlLk6GJQsqaUBKTNV-1" source="4Ivwiv6vfabpAXgnyQMF-48" target="4Ivwiv6vfabpAXgnyQMF-42" edge="1">
          <mxGeometry relative="1" as="geometry" />
        </mxCell>
        <mxCell id="4Ivwiv6vfabpAXgnyQMF-48" value="BP3 &amp;lt; 1 bar &amp;amp;&amp;amp;&amp;nbsp;&lt;div&gt;BP4 &amp;gt; BP2 * 8.3 bar&lt;/div&gt;" style="shape=hexagon;perimeter=hexagonPerimeter2;whiteSpace=wrap;html=1;fixedSize=1;fillColor=#fff2cc;strokeColor=#d6b656;" parent="WIyWlLk6GJQsqaUBKTNV-1" vertex="1">
          <mxGeometry x="594.6700000000001" y="450" width="170" height="55" as="geometry" />
        </mxCell>
        <mxCell id="4Ivwiv6vfabpAXgnyQMF-49" style="edgeStyle=orthogonalEdgeStyle;rounded=0;orthogonalLoop=1;jettySize=auto;html=1;entryX=1;entryY=0.5;entryDx=0;entryDy=0;fillColor=#f8cecc;strokeColor=#b85450;jumpStyle=line;" parent="WIyWlLk6GJQsqaUBKTNV-1" source="4Ivwiv6vfabpAXgnyQMF-52" target="4Ivwiv6vfabpAXgnyQMF-65" edge="1">
          <mxGeometry relative="1" as="geometry">
            <Array as="points">
              <mxPoint x="565.0000000000001" y="653" />
              <mxPoint x="565.0000000000001" y="565" />
            </Array>
          </mxGeometry>
        </mxCell>
        <mxCell id="4Ivwiv6vfabpAXgnyQMF-50" value="No" style="edgeLabel;html=1;align=center;verticalAlign=middle;resizable=0;points=[];" parent="4Ivwiv6vfabpAXgnyQMF-49" vertex="1" connectable="0">
          <mxGeometry x="-0.8746" y="1" relative="1" as="geometry">
            <mxPoint y="7" as="offset" />
          </mxGeometry>
        </mxCell>
        <mxCell id="NxA7Hxz0lzZM3i-V5ae6-20" style="edgeStyle=orthogonalEdgeStyle;rounded=0;orthogonalLoop=1;jettySize=auto;html=1;entryX=0.5;entryY=0;entryDx=0;entryDy=0;" parent="WIyWlLk6GJQsqaUBKTNV-1" source="4Ivwiv6vfabpAXgnyQMF-52" target="4Ivwiv6vfabpAXgnyQMF-44" edge="1">
          <mxGeometry relative="1" as="geometry" />
        </mxCell>
        <mxCell id="4Ivwiv6vfabpAXgnyQMF-52" value="BP3 &amp;gt; BP1 * 8.3 bar &amp;amp;&amp;amp;&amp;nbsp;&lt;div&gt;BP4 &amp;lt; 1 bar&lt;/div&gt;" style="shape=hexagon;perimeter=hexagonPerimeter2;whiteSpace=wrap;html=1;fixedSize=1;fillColor=#fff2cc;strokeColor=#d6b656;" parent="WIyWlLk6GJQsqaUBKTNV-1" vertex="1">
          <mxGeometry x="594.6700000000001" y="625" width="170" height="55" as="geometry" />
        </mxCell>
        <mxCell id="4Ivwiv6vfabpAXgnyQMF-53" style="edgeStyle=orthogonalEdgeStyle;rounded=0;orthogonalLoop=1;jettySize=auto;html=1;entryX=0.5;entryY=0;entryDx=0;entryDy=0;exitX=0.5;exitY=1;exitDx=0;exitDy=0;" parent="WIyWlLk6GJQsqaUBKTNV-1" source="4Ivwiv6vfabpAXgnyQMF-56" target="4Ivwiv6vfabpAXgnyQMF-60" edge="1">
          <mxGeometry relative="1" as="geometry">
            <mxPoint x="623" y="1050" as="sourcePoint" />
            <mxPoint x="623" y="1090" as="targetPoint" />
            <Array as="points">
              <mxPoint x="680" y="930" />
              <mxPoint x="560" y="930" />
              <mxPoint x="560" y="720" />
              <mxPoint x="360" y="720" />
            </Array>
          </mxGeometry>
        </mxCell>
        <mxCell id="NxA7Hxz0lzZM3i-V5ae6-2" style="edgeStyle=orthogonalEdgeStyle;rounded=0;orthogonalLoop=1;jettySize=auto;html=1;entryX=0.5;entryY=0;entryDx=0;entryDy=0;fillColor=#f8cecc;strokeColor=#b85450;jumpStyle=line;" parent="WIyWlLk6GJQsqaUBKTNV-1" source="4Ivwiv6vfabpAXgnyQMF-56" target="4Ivwiv6vfabpAXgnyQMF-67" edge="1">
          <mxGeometry relative="1" as="geometry">
            <Array as="points">
              <mxPoint x="570" y="890" />
              <mxPoint x="570" y="867" />
              <mxPoint x="504" y="867" />
            </Array>
          </mxGeometry>
        </mxCell>
        <mxCell id="LWvMHmKoVDwPnqm5MfRn-3" value="No" style="edgeLabel;html=1;align=center;verticalAlign=middle;resizable=0;points=[];" parent="NxA7Hxz0lzZM3i-V5ae6-2" vertex="1" connectable="0">
          <mxGeometry x="-0.8919" relative="1" as="geometry">
            <mxPoint x="3" y="11" as="offset" />
          </mxGeometry>
        </mxCell>
        <mxCell id="4Ivwiv6vfabpAXgnyQMF-56" value="NOW - CU_TIMESTAMP &amp;lt; TIME_OUT" style="shape=hexagon;perimeter=hexagonPerimeter2;whiteSpace=wrap;html=1;fixedSize=1;fillColor=#fff2cc;strokeColor=#d6b656;" parent="WIyWlLk6GJQsqaUBKTNV-1" vertex="1">
          <mxGeometry x="579.67" y="870" width="200" height="40" as="geometry" />
        </mxCell>
        <mxCell id="4Ivwiv6vfabpAXgnyQMF-57" style="edgeStyle=orthogonalEdgeStyle;rounded=0;orthogonalLoop=1;jettySize=auto;html=1;entryX=0.5;entryY=0;entryDx=0;entryDy=0;" parent="WIyWlLk6GJQsqaUBKTNV-1" source="4Ivwiv6vfabpAXgnyQMF-60" target="4Ivwiv6vfabpAXgnyQMF-71" edge="1">
          <mxGeometry relative="1" as="geometry" />
        </mxCell>
        <mxCell id="NxA7Hxz0lzZM3i-V5ae6-4" style="edgeStyle=orthogonalEdgeStyle;rounded=0;orthogonalLoop=1;jettySize=auto;html=1;entryX=0.5;entryY=0;entryDx=0;entryDy=0;exitX=1;exitY=0.5;exitDx=0;exitDy=0;fillColor=#f8cecc;strokeColor=#b85450;" parent="WIyWlLk6GJQsqaUBKTNV-1" source="4Ivwiv6vfabpAXgnyQMF-60" target="4Ivwiv6vfabpAXgnyQMF-67" edge="1">
          <mxGeometry relative="1" as="geometry" />
        </mxCell>
        <mxCell id="LWvMHmKoVDwPnqm5MfRn-1" value="No" style="edgeLabel;html=1;align=center;verticalAlign=middle;resizable=0;points=[];" parent="NxA7Hxz0lzZM3i-V5ae6-4" vertex="1" connectable="0">
          <mxGeometry x="-0.8674" y="1" relative="1" as="geometry">
            <mxPoint x="-1" y="9" as="offset" />
          </mxGeometry>
        </mxCell>
        <mxCell id="NxA7Hxz0lzZM3i-V5ae6-16" style="edgeStyle=orthogonalEdgeStyle;rounded=0;orthogonalLoop=1;jettySize=auto;html=1;endArrow=none;endFill=0;dashed=1;" parent="WIyWlLk6GJQsqaUBKTNV-1" source="4Ivwiv6vfabpAXgnyQMF-60" target="4Ivwiv6vfabpAXgnyQMF-76" edge="1">
          <mxGeometry relative="1" as="geometry" />
        </mxCell>
        <mxCell id="4Ivwiv6vfabpAXgnyQMF-60" value="NOW - CONTROLLER_TIMESTAMP&lt;div&gt;&amp;nbsp;&amp;lt; TIME_OUT&lt;/div&gt;" style="shape=hexagon;perimeter=hexagonPerimeter2;whiteSpace=wrap;html=1;fixedSize=1;fillColor=#fff2cc;strokeColor=#d6b656;" parent="WIyWlLk6GJQsqaUBKTNV-1" vertex="1">
          <mxGeometry x="250.33000000000004" y="740.0000000000001" width="220" height="40" as="geometry" />
        </mxCell>
        <mxCell id="4Ivwiv6vfabpAXgnyQMF-61" style="edgeStyle=orthogonalEdgeStyle;rounded=0;orthogonalLoop=1;jettySize=auto;html=1;" parent="WIyWlLk6GJQsqaUBKTNV-1" source="4Ivwiv6vfabpAXgnyQMF-64" target="4Ivwiv6vfabpAXgnyQMF-56" edge="1">
          <mxGeometry relative="1" as="geometry" />
        </mxCell>
        <mxCell id="NxA7Hxz0lzZM3i-V5ae6-3" style="edgeStyle=orthogonalEdgeStyle;rounded=0;orthogonalLoop=1;jettySize=auto;html=1;entryX=0.5;entryY=0;entryDx=0;entryDy=0;fillColor=#f8cecc;strokeColor=#b85450;jumpStyle=line;" parent="WIyWlLk6GJQsqaUBKTNV-1" source="4Ivwiv6vfabpAXgnyQMF-64" target="4Ivwiv6vfabpAXgnyQMF-67" edge="1">
          <mxGeometry relative="1" as="geometry" />
        </mxCell>
        <mxCell id="LWvMHmKoVDwPnqm5MfRn-2" value="No" style="edgeLabel;html=1;align=center;verticalAlign=middle;resizable=0;points=[];" parent="NxA7Hxz0lzZM3i-V5ae6-3" vertex="1" connectable="0">
          <mxGeometry x="-0.8555" relative="1" as="geometry">
            <mxPoint x="7" y="10" as="offset" />
          </mxGeometry>
        </mxCell>
        <mxCell id="NxA7Hxz0lzZM3i-V5ae6-17" style="edgeStyle=orthogonalEdgeStyle;rounded=0;orthogonalLoop=1;jettySize=auto;html=1;endArrow=none;endFill=0;dashed=1;exitX=0;exitY=0.25;exitDx=0;exitDy=0;" parent="WIyWlLk6GJQsqaUBKTNV-1" source="4Ivwiv6vfabpAXgnyQMF-64" target="4Ivwiv6vfabpAXgnyQMF-76" edge="1">
          <mxGeometry relative="1" as="geometry">
            <Array as="points">
              <mxPoint x="589" y="790" />
            </Array>
          </mxGeometry>
        </mxCell>
        <mxCell id="4Ivwiv6vfabpAXgnyQMF-64" value="NOW - STEER_TIMESTAMP &amp;lt; TIME_OUT" style="shape=hexagon;perimeter=hexagonPerimeter2;whiteSpace=wrap;html=1;fixedSize=1;fillColor=#fff2cc;strokeColor=#d6b656;" parent="WIyWlLk6GJQsqaUBKTNV-1" vertex="1">
          <mxGeometry x="579.67" y="800" width="200" height="40" as="geometry" />
        </mxCell>
        <mxCell id="4Ivwiv6vfabpAXgnyQMF-65" value="EBS Error" style="rounded=1;whiteSpace=wrap;html=1;fillColor=#f8cecc;strokeColor=#b85450;" parent="WIyWlLk6GJQsqaUBKTNV-1" vertex="1">
          <mxGeometry x="451.25" y="540" width="97.5" height="50" as="geometry" />
        </mxCell>
        <mxCell id="4Ivwiv6vfabpAXgnyQMF-66" value="SDC Logic Error" style="rounded=1;whiteSpace=wrap;html=1;fillColor=#f8cecc;strokeColor=#b85450;" parent="WIyWlLk6GJQsqaUBKTNV-1" vertex="1">
          <mxGeometry x="455" y="190" width="97.5" height="45" as="geometry" />
        </mxCell>
        <mxCell id="4Ivwiv6vfabpAXgnyQMF-67" value="Component Failure" style="rounded=1;whiteSpace=wrap;html=1;fillColor=#f8cecc;strokeColor=#b85450;" parent="WIyWlLk6GJQsqaUBKTNV-1" vertex="1">
          <mxGeometry x="457.5" y="887.5" width="92.5" height="45" as="geometry" />
        </mxCell>
        <mxCell id="4Ivwiv6vfabpAXgnyQMF-68" style="edgeStyle=orthogonalEdgeStyle;rounded=0;orthogonalLoop=1;jettySize=auto;html=1;entryX=0.5;entryY=0;entryDx=0;entryDy=0;" parent="WIyWlLk6GJQsqaUBKTNV-1" source="4Ivwiv6vfabpAXgnyQMF-71" target="4Ivwiv6vfabpAXgnyQMF-72" edge="1">
          <mxGeometry relative="1" as="geometry" />
        </mxCell>
        <mxCell id="4Ivwiv6vfabpAXgnyQMF-71" value="Emergency Signal?" style="shape=hexagon;perimeter=hexagonPerimeter2;whiteSpace=wrap;html=1;fixedSize=1;fillColor=#fff2cc;strokeColor=#d6b656;" parent="WIyWlLk6GJQsqaUBKTNV-1" vertex="1">
          <mxGeometry x="280.33000000000004" y="810.0000000000001" width="160" height="40" as="geometry" />
        </mxCell>
        <mxCell id="4Ivwiv6vfabpAXgnyQMF-72" value="Transition to ready state" style="rounded=1;whiteSpace=wrap;html=1;fillColor=#d5e8d4;strokeColor=#82b366;" parent="WIyWlLk6GJQsqaUBKTNV-1" vertex="1">
          <mxGeometry x="300.33000000000004" y="892.5000000000001" width="120" height="40" as="geometry" />
        </mxCell>
        <mxCell id="4Ivwiv6vfabpAXgnyQMF-76" value="&lt;div&gt;&lt;br&gt;&lt;/div&gt;&lt;div&gt;&lt;div&gt;&lt;div&gt;&lt;span style=&quot;background-color: initial;&quot;&gt;STEER = Steering Actuator&lt;/span&gt;&lt;/div&gt;&lt;div&gt;CU = Computing Unit&lt;/div&gt;&lt;div&gt;CONTROLLER = Motor Controller&lt;/div&gt;&lt;div&gt;&lt;br&gt;&lt;/div&gt;&lt;/div&gt;&lt;div&gt;Check if there was a timeout.&lt;br&gt;&lt;/div&gt;&lt;div&gt;NOW = Current Time&lt;/div&gt;&lt;div&gt;&amp;lt;Component&amp;gt;_Timestamp = The time when a CAN signal from &amp;lt;component&amp;gt; was received&lt;/div&gt;&lt;/div&gt;" style="shape=note;size=10;whiteSpace=wrap;html=1;fontSize=10;" parent="WIyWlLk6GJQsqaUBKTNV-1" vertex="1">
          <mxGeometry x="40" y="732.5" width="134.59" height="160" as="geometry" />
        </mxCell>
        <mxCell id="4Ivwiv6vfabpAXgnyQMF-77" style="edgeStyle=orthogonalEdgeStyle;rounded=0;orthogonalLoop=1;jettySize=auto;html=1;entryX=0;entryY=0.75;entryDx=0;entryDy=0;dashed=1;endArrow=none;endFill=0;" parent="WIyWlLk6GJQsqaUBKTNV-1" source="4Ivwiv6vfabpAXgnyQMF-78" target="4Ivwiv6vfabpAXgnyQMF-71" edge="1">
          <mxGeometry relative="1" as="geometry">
            <Array as="points">
              <mxPoint x="289.33000000000004" y="905.5000000000001" />
            </Array>
          </mxGeometry>
        </mxCell>
        <mxCell id="4Ivwiv6vfabpAXgnyQMF-78" value="CAN Emergency signal from RES or CU" style="shape=note;size=10;whiteSpace=wrap;html=1;fontSize=10;" parent="WIyWlLk6GJQsqaUBKTNV-1" vertex="1">
          <mxGeometry x="190" y="870" width="82.5" height="62.5" as="geometry" />
        </mxCell>
        <mxCell id="4Ivwiv6vfabpAXgnyQMF-79" style="edgeStyle=orthogonalEdgeStyle;rounded=0;orthogonalLoop=1;jettySize=auto;html=1;entryX=0.375;entryY=1;entryDx=0;entryDy=0;dashed=1;endArrow=none;endFill=0;" parent="WIyWlLk6GJQsqaUBKTNV-1" source="4Ivwiv6vfabpAXgnyQMF-80" target="4Ivwiv6vfabpAXgnyQMF-34" edge="1">
          <mxGeometry relative="1" as="geometry">
            <Array as="points">
              <mxPoint x="595.5000000000001" y="290" />
              <mxPoint x="595.5000000000001" y="250" />
              <mxPoint x="659.5000000000001" y="250" />
            </Array>
          </mxGeometry>
        </mxCell>
        <mxCell id="4Ivwiv6vfabpAXgnyQMF-80" value="Overpressure is handled mechanical with automatic release" style="shape=note;size=10;whiteSpace=wrap;html=1;fontSize=10;" parent="WIyWlLk6GJQsqaUBKTNV-1" vertex="1">
          <mxGeometry x="455" y="270" width="75" height="70" as="geometry" />
        </mxCell>
        <mxCell id="4Ivwiv6vfabpAXgnyQMF-81" style="edgeStyle=orthogonalEdgeStyle;rounded=0;orthogonalLoop=1;jettySize=auto;html=1;entryX=1;entryY=0;entryDx=0;entryDy=0;dashed=1;endArrow=none;endFill=0;" parent="WIyWlLk6GJQsqaUBKTNV-1" source="4Ivwiv6vfabpAXgnyQMF-82" target="4Ivwiv6vfabpAXgnyQMF-10" edge="1">
          <mxGeometry relative="1" as="geometry">
            <Array as="points">
              <mxPoint x="433.5" y="480" />
              <mxPoint x="433.5" y="560" />
            </Array>
          </mxGeometry>
        </mxCell>
        <mxCell id="4Ivwiv6vfabpAXgnyQMF-82" value="Implies closing the SDC in Supervisor and Watchdog (SDC Logic)" style="shape=note;size=10;whiteSpace=wrap;html=1;fontSize=10;" parent="WIyWlLk6GJQsqaUBKTNV-1" vertex="1">
          <mxGeometry x="462.5" y="420" width="75" height="77.5" as="geometry" />
        </mxCell>
        <mxCell id="4Ivwiv6vfabpAXgnyQMF-83" value="&lt;font style=&quot;font-size: 24px;&quot;&gt;ASF - ASB Initial Checkup Flowchart&lt;/font&gt;" style="text;html=1;align=center;verticalAlign=middle;whiteSpace=wrap;rounded=0;" parent="WIyWlLk6GJQsqaUBKTNV-1" vertex="1">
          <mxGeometry x="152" y="60" width="522.25" height="30" as="geometry" />
        </mxCell>
        <mxCell id="4Ivwiv6vfabpAXgnyQMF-84" value="" style="shape=table;startSize=0;container=1;collapsible=0;childLayout=tableLayout;fontSize=16;" parent="WIyWlLk6GJQsqaUBKTNV-1" vertex="1">
          <mxGeometry x="460" y="1000" width="361.5" height="161" as="geometry" />
        </mxCell>
        <mxCell id="4Ivwiv6vfabpAXgnyQMF-85" value="" style="shape=tableRow;horizontal=0;startSize=0;swimlaneHead=0;swimlaneBody=0;strokeColor=inherit;top=0;left=0;bottom=0;right=0;collapsible=0;dropTarget=0;fillColor=none;points=[[0,0.5],[1,0.5]];portConstraint=eastwest;fontSize=16;" parent="4Ivwiv6vfabpAXgnyQMF-84" vertex="1">
          <mxGeometry width="361.5" height="40" as="geometry" />
        </mxCell>
        <mxCell id="4Ivwiv6vfabpAXgnyQMF-86" value="&lt;font size=&quot;1&quot; color=&quot;#ff3333&quot;&gt;&lt;b style=&quot;font-size: 14px;&quot;&gt;EBS Supervision - Initial Checkup Flowchart&lt;/b&gt;&lt;/font&gt;" style="shape=partialRectangle;html=1;whiteSpace=wrap;connectable=0;strokeColor=inherit;overflow=hidden;fillColor=none;top=0;left=0;bottom=0;right=0;pointerEvents=1;fontSize=16;rowspan=1;colspan=2;align=left;" parent="4Ivwiv6vfabpAXgnyQMF-85" vertex="1">
          <mxGeometry width="362" height="40" as="geometry">
            <mxRectangle width="180" height="40" as="alternateBounds" />
          </mxGeometry>
        </mxCell>
        <mxCell id="4Ivwiv6vfabpAXgnyQMF-87" value="" style="shape=partialRectangle;html=1;whiteSpace=wrap;connectable=0;strokeColor=inherit;overflow=hidden;fillColor=none;top=0;left=0;bottom=0;right=0;pointerEvents=1;fontSize=16;" parent="4Ivwiv6vfabpAXgnyQMF-85" vertex="1" visible="0">
          <mxGeometry x="180" width="182" height="40" as="geometry">
            <mxRectangle width="182" height="40" as="alternateBounds" />
          </mxGeometry>
        </mxCell>
        <mxCell id="4Ivwiv6vfabpAXgnyQMF-88" value="" style="shape=tableRow;horizontal=0;startSize=0;swimlaneHead=0;swimlaneBody=0;strokeColor=inherit;top=0;left=0;bottom=0;right=0;collapsible=0;dropTarget=0;fillColor=none;points=[[0,0.5],[1,0.5]];portConstraint=eastwest;fontSize=16;" parent="4Ivwiv6vfabpAXgnyQMF-84" vertex="1">
          <mxGeometry y="40" width="361.5" height="40" as="geometry" />
        </mxCell>
        <mxCell id="4Ivwiv6vfabpAXgnyQMF-89" value="&lt;font style=&quot;font-size: 12px;&quot;&gt;Team Name:&lt;br&gt;&lt;font color=&quot;#ff3333&quot;&gt;Formula Student FEUP&lt;/font&gt;&lt;/font&gt;" style="shape=partialRectangle;html=1;whiteSpace=wrap;connectable=0;strokeColor=inherit;overflow=hidden;fillColor=none;top=0;left=0;bottom=0;right=0;pointerEvents=1;fontSize=16;align=left;" parent="4Ivwiv6vfabpAXgnyQMF-88" vertex="1">
          <mxGeometry width="180" height="40" as="geometry">
            <mxRectangle width="180" height="40" as="alternateBounds" />
          </mxGeometry>
        </mxCell>
        <mxCell id="4Ivwiv6vfabpAXgnyQMF-90" value="&lt;font style=&quot;font-size: 12px;&quot;&gt;University:&lt;br&gt;&lt;font color=&quot;#ff3333&quot;&gt;University of Porto&lt;/font&gt;&lt;/font&gt;" style="shape=partialRectangle;html=1;whiteSpace=wrap;connectable=0;strokeColor=inherit;overflow=hidden;fillColor=none;top=0;left=0;bottom=0;right=0;pointerEvents=1;fontSize=16;align=left;" parent="4Ivwiv6vfabpAXgnyQMF-88" vertex="1">
          <mxGeometry x="180" width="182" height="40" as="geometry">
            <mxRectangle width="182" height="40" as="alternateBounds" />
          </mxGeometry>
        </mxCell>
        <mxCell id="4Ivwiv6vfabpAXgnyQMF-91" value="" style="shape=tableRow;horizontal=0;startSize=0;swimlaneHead=0;swimlaneBody=0;strokeColor=inherit;top=0;left=0;bottom=0;right=0;collapsible=0;dropTarget=0;fillColor=none;points=[[0,0.5],[1,0.5]];portConstraint=eastwest;fontSize=16;" parent="4Ivwiv6vfabpAXgnyQMF-84" vertex="1">
          <mxGeometry y="80" width="361.5" height="40" as="geometry" />
        </mxCell>
        <mxCell id="4Ivwiv6vfabpAXgnyQMF-92" value="&lt;font style=&quot;&quot;&gt;&lt;span style=&quot;font-size: 12px;&quot;&gt;Car# &lt;/span&gt;&lt;span style=&quot;font-size: 12px; white-space: pre;&quot;&gt;&#x9;&lt;/span&gt;&lt;span style=&quot;font-size: 12px; white-space: pre;&quot;&gt;&#x9;&lt;/span&gt;&lt;font style=&quot;font-size: 16px;&quot; color=&quot;#ff3333&quot;&gt;32&lt;/font&gt;&lt;/font&gt;" style="shape=partialRectangle;html=1;whiteSpace=wrap;connectable=0;strokeColor=inherit;overflow=hidden;fillColor=none;top=0;left=0;bottom=0;right=0;pointerEvents=1;fontSize=16;align=left;verticalAlign=top;" parent="4Ivwiv6vfabpAXgnyQMF-91" vertex="1">
          <mxGeometry width="180" height="40" as="geometry">
            <mxRectangle width="180" height="40" as="alternateBounds" />
          </mxGeometry>
        </mxCell>
        <mxCell id="4Ivwiv6vfabpAXgnyQMF-93" value="" style="shape=partialRectangle;html=1;whiteSpace=wrap;connectable=0;strokeColor=inherit;overflow=hidden;fillColor=none;top=0;left=0;bottom=0;right=0;pointerEvents=1;fontSize=16;rowspan=2;colspan=1;" parent="4Ivwiv6vfabpAXgnyQMF-91" vertex="1">
          <mxGeometry x="180" width="182" height="60" as="geometry">
            <mxRectangle width="182" height="40" as="alternateBounds" />
          </mxGeometry>
        </mxCell>
        <mxCell id="4Ivwiv6vfabpAXgnyQMF-94" style="shape=tableRow;horizontal=0;startSize=0;swimlaneHead=0;swimlaneBody=0;strokeColor=inherit;top=0;left=0;bottom=0;right=0;collapsible=0;dropTarget=0;fillColor=none;points=[[0,0.5],[1,0.5]];portConstraint=eastwest;fontSize=16;" parent="4Ivwiv6vfabpAXgnyQMF-84" vertex="1">
          <mxGeometry y="120" width="361.5" height="20" as="geometry" />
        </mxCell>
        <mxCell id="4Ivwiv6vfabpAXgnyQMF-95" value="&lt;font style=&quot;font-size: 12px;&quot;&gt;Document Version:&lt;span style=&quot;white-space: pre;&quot;&gt;&#x9;&lt;/span&gt;&lt;span style=&quot;white-space: pre;&quot;&gt;&#x9;&lt;/span&gt;&amp;nbsp; &amp;nbsp;&amp;nbsp; &lt;font color=&quot;#ff3333&quot;&gt;V1.0&lt;/font&gt;&lt;/font&gt;" style="shape=partialRectangle;html=1;whiteSpace=wrap;connectable=0;strokeColor=inherit;overflow=hidden;fillColor=none;top=0;left=0;bottom=0;right=0;pointerEvents=1;fontSize=16;" parent="4Ivwiv6vfabpAXgnyQMF-94" vertex="1">
          <mxGeometry width="180" height="20" as="geometry">
            <mxRectangle width="180" height="20" as="alternateBounds" />
          </mxGeometry>
        </mxCell>
        <mxCell id="4Ivwiv6vfabpAXgnyQMF-96" style="shape=partialRectangle;html=1;whiteSpace=wrap;connectable=0;strokeColor=inherit;overflow=hidden;fillColor=none;top=0;left=0;bottom=0;right=0;pointerEvents=1;fontSize=16;" parent="4Ivwiv6vfabpAXgnyQMF-94" vertex="1" visible="0">
          <mxGeometry x="180" width="182" height="20" as="geometry">
            <mxRectangle width="182" height="20" as="alternateBounds" />
          </mxGeometry>
        </mxCell>
        <mxCell id="4Ivwiv6vfabpAXgnyQMF-97" style="shape=tableRow;horizontal=0;startSize=0;swimlaneHead=0;swimlaneBody=0;strokeColor=inherit;top=0;left=0;bottom=0;right=0;collapsible=0;dropTarget=0;fillColor=none;points=[[0,0.5],[1,0.5]];portConstraint=eastwest;fontSize=16;" parent="4Ivwiv6vfabpAXgnyQMF-84" vertex="1">
          <mxGeometry y="140" width="361.5" height="21" as="geometry" />
        </mxCell>
        <mxCell id="4Ivwiv6vfabpAXgnyQMF-98" value="&lt;font style=&quot;font-size: 12px;&quot;&gt;Date:&lt;span style=&quot;white-space: pre;&quot;&gt;&#x9;&lt;span style=&quot;white-space: pre;&quot;&gt;&#x9;&lt;/span&gt; &lt;/span&gt;&amp;nbsp; &amp;nbsp; &amp;nbsp;&amp;nbsp;&lt;span style=&quot;white-space: pre;&quot;&gt;&#x9;&lt;/span&gt;&amp;nbsp; &amp;nbsp; 3/14/2024&lt;/font&gt;" style="shape=partialRectangle;html=1;whiteSpace=wrap;connectable=0;strokeColor=inherit;overflow=hidden;fillColor=none;top=0;left=0;bottom=0;right=0;pointerEvents=1;fontSize=16;" parent="4Ivwiv6vfabpAXgnyQMF-97" vertex="1">
          <mxGeometry width="180" height="21" as="geometry">
            <mxRectangle width="180" height="21" as="alternateBounds" />
          </mxGeometry>
        </mxCell>
        <mxCell id="4Ivwiv6vfabpAXgnyQMF-99" value="&lt;font style=&quot;font-size: 12px;&quot;&gt;Sheet/BL: &lt;span style=&quot;white-space: pre;&quot;&gt;&#x9;&lt;/span&gt;&lt;span style=&quot;white-space: pre;&quot;&gt;&#x9;&lt;/span&gt;&lt;span style=&quot;white-space: pre;&quot;&gt;&#x9;&lt;/span&gt;&lt;span style=&quot;white-space: pre;&quot;&gt;&#x9;&lt;/span&gt;1/&lt;font color=&quot;#ff3333&quot;&gt;1&lt;/font&gt;&lt;/font&gt;" style="shape=partialRectangle;html=1;whiteSpace=wrap;connectable=0;strokeColor=inherit;overflow=hidden;fillColor=none;top=0;left=0;bottom=0;right=0;pointerEvents=1;fontSize=16;" parent="4Ivwiv6vfabpAXgnyQMF-97" vertex="1">
          <mxGeometry x="180" width="182" height="21" as="geometry">
            <mxRectangle width="182" height="21" as="alternateBounds" />
          </mxGeometry>
        </mxCell>
        <mxCell id="NxA7Hxz0lzZM3i-V5ae6-7" style="edgeStyle=orthogonalEdgeStyle;rounded=0;orthogonalLoop=1;jettySize=auto;html=1;entryX=0.5;entryY=0;entryDx=0;entryDy=0;" parent="WIyWlLk6GJQsqaUBKTNV-1" source="NxA7Hxz0lzZM3i-V5ae6-6" target="4Ivwiv6vfabpAXgnyQMF-28" edge="1">
          <mxGeometry relative="1" as="geometry" />
        </mxCell>
        <mxCell id="NxA7Hxz0lzZM3i-V5ae6-6" value="Close MV1,2" style="verticalLabelPosition=middle;verticalAlign=middle;html=1;shape=trapezoid;perimeter=trapezoidPerimeter;whiteSpace=wrap;size=0.23;arcSize=10;flipV=1;labelPosition=center;align=center;fillColor=#f5f5f5;fontColor=#333333;strokeColor=#666666;" parent="WIyWlLk6GJQsqaUBKTNV-1" vertex="1">
          <mxGeometry x="64.59" y="120" width="110" height="50" as="geometry" />
        </mxCell>
        <mxCell id="NxA7Hxz0lzZM3i-V5ae6-11" style="edgeStyle=orthogonalEdgeStyle;rounded=0;orthogonalLoop=1;jettySize=auto;html=1;entryX=1;entryY=0.25;entryDx=0;entryDy=0;exitX=1;exitY=0.5;exitDx=0;exitDy=0;fillColor=#f8cecc;strokeColor=#b85450;" parent="WIyWlLk6GJQsqaUBKTNV-1" source="4Ivwiv6vfabpAXgnyQMF-8" target="4Ivwiv6vfabpAXgnyQMF-8" edge="1">
          <mxGeometry relative="1" as="geometry">
            <Array as="points">
              <mxPoint x="442" y="660" />
              <mxPoint x="442" y="630" />
              <mxPoint x="413" y="630" />
            </Array>
          </mxGeometry>
        </mxCell>
        <mxCell id="NxA7Hxz0lzZM3i-V5ae6-12" value="No" style="edgeLabel;html=1;align=center;verticalAlign=middle;resizable=0;points=[];" parent="NxA7Hxz0lzZM3i-V5ae6-11" vertex="1" connectable="0">
          <mxGeometry x="-0.8082" y="-1" relative="1" as="geometry">
            <mxPoint y="9" as="offset" />
          </mxGeometry>
        </mxCell>
        <mxCell id="NxA7Hxz0lzZM3i-V5ae6-5" style="edgeStyle=orthogonalEdgeStyle;rounded=0;orthogonalLoop=1;jettySize=auto;html=1;entryX=0.5;entryY=0;entryDx=0;entryDy=0;fillColor=#f8cecc;strokeColor=#b85450;" parent="WIyWlLk6GJQsqaUBKTNV-1" source="4Ivwiv6vfabpAXgnyQMF-71" target="4Ivwiv6vfabpAXgnyQMF-67" edge="1">
          <mxGeometry relative="1" as="geometry" />
        </mxCell>
        <mxCell id="LWvMHmKoVDwPnqm5MfRn-0" value="No" style="edgeLabel;html=1;align=center;verticalAlign=middle;resizable=0;points=[];" parent="NxA7Hxz0lzZM3i-V5ae6-5" vertex="1" connectable="0">
          <mxGeometry x="-0.8567" y="-1" relative="1" as="geometry">
            <mxPoint y="9" as="offset" />
          </mxGeometry>
        </mxCell>
        <mxCell id="NxA7Hxz0lzZM3i-V5ae6-19" style="edgeStyle=orthogonalEdgeStyle;rounded=0;orthogonalLoop=1;jettySize=auto;html=1;entryX=0.993;entryY=0.767;entryDx=0;entryDy=0;entryPerimeter=0;endArrow=none;endFill=0;dashed=1;exitX=0;exitY=0.25;exitDx=0;exitDy=0;" parent="WIyWlLk6GJQsqaUBKTNV-1" source="4Ivwiv6vfabpAXgnyQMF-56" target="4Ivwiv6vfabpAXgnyQMF-76" edge="1">
          <mxGeometry relative="1" as="geometry">
            <Array as="points">
              <mxPoint x="589" y="855" />
            </Array>
          </mxGeometry>
        </mxCell>
        <mxCell id="ccpmyIJlVu0cU-_VwgHW-0" value="" style="shape=image;verticalLabelPosition=bottom;labelBackgroundColor=default;verticalAlign=top;aspect=fixed;imageAspect=0;image=data:image/png,iVBORw0KGgoAAAANSUhEUgAAC0cAAAHMCAYAAACkkTL0AAAACXBIWXMAAC4jAAAuIwF4pT92AADznklEQVR4nOzde7zcVX3v/6VSHDSa4ZaZkL3J7IAhBUm+/FK8W9f02ONd41FPejkqKD38UivVXX5kY6hANbCJ6UauKfUC1p7WqJVoq8VWmYXQcrEx3xDEAIl7ktlJZoDgRKJsKZbfH3vncIdZe3+/+z1rzev5ePCQQCCvcxq+853v97PWep5BV1ve33e1MeYUdQc65tY3xqrqiOkYHui3xpiaugNeBoZGG3V1xHTUSmWudWFx1VYz6GtdRB5VBwBA3kZGRvoGBwd3qTuA6Vi5cuXrfvnLX/7WgR//4he/ePmDDz547ON/TrPZXPjLX/7ykCf/s7/4xS9euHXr1qf8dSA0q1ev/qNVq1Z9Xt0BY2qlctEY8zN1BwDMgJOqrWaqjpiuWqk8aoypqDsAQKxabTWdOmK6aqXyx4wxF6s70Llqq/k8dQPiVSuVLzbGfEzdgY5F8f3i6dRK5Zoxxqo7gCdpG2PSp/nrqTFm35N+3J7883q11aznl4TQHKQOwHOy6gB4uUEdkAGrDoCXeuiD0ZMSdQC8xHCtC95HP/rRj1122WXqDADIVV9f3yMMRqNbffSjH/2YMU8cdH78gPO2bdtm79u373nGGHPRRRfJOoFuwWB0V0nUAQAwA9oxDC5MLmipiDMAQC6GwehJS9QB8OLUAYieVQegczF8v3gWVh0API2iefrfm0/31/6vWql84E9TMzE03TbGbJ78a86YqO4t8RwYju5iy/v7KoaHXqFx6oAMvEEdAC9OHTBdkw/4E3EG/KTqABjTbDaXqRsAIG/HH398fWxsTJ2BHnRgp+cDg8/79u2bt3fv3iMev4szi5SAzi1durS9ceNGdQYeY9UBADADnDogI1YdAABdwKkDMmTVAfCSqgMQL96RB8epA/JSK5WtugHISfK4P182+b/nGvOEAWpnHhuerpuJnadd/mmYKQxHd7dEHQA/6xtjTt2QgUQdAC+bn/undD2rDoA3pw7AxM6U6gYAyFtfXx+nFSA3q1ates3Pf/7zV/zsZz97w69+9atDf/rTny45MPzMTs9AthYsWLCZ4eiuwsJ4AL0ghuemxnDNBgBjIjnNslYqVwwbo4Umit976FqJOgBeYr4eJOoAQMhO/u+yA39hcnC6bSYWSd1gJoam08h3j48Ww9HdjYdeYUnVAdM1PNCfmIljCRAOpw7IQKIOgJe02mq21REw5vbbby8/988CgLAVi8V/VTcgfGvXrj35V7/61ZKf/exnb2+320fv2rVr3q233jrnM5/5jHn44YfVeUBPKJfLG9QNeIJEHQAAM8CpAzKSqAMAoAuk6oCMJOoAeHPqAETNqgPgxakDcsRsGvBURTNxnbYH/sLk0HQ6+cdmY4xjYLr7MRzd3aw6AF6cOiADVh0AL+2h0UaqjsgAN9thSdUBMOaCCy545yc+8YnnqTsAIE9z5sx5dGRkZL26A2FZs2bN23fs2PHWRqPxql27dg1s27Zt9plnnslnJiBUKBTMZZdd9ll1BybUSuXEsDAeQA+I6Bhcqw4AgC7g1AEZ4X1YWOpsFoSccU0IS6oOyJFVBwABSczjFrxNDkw7M7HDdGomBqbbM16FZ8RwdHdL1AHwEsMxGkvUAfCSqgMyYtUB8BLDtS54999//++qGwAgbyeffHLj29/+tjoDXWzt2rUn79279w9ardbJu3fvftnWrVvnjIyMmHa7bcbHx9V5ACa95jWvue/6669XZ+AxVh0AADPAqQOyUCuVrboBALpATKdZWnUAvDh1AKKXqAPQsZg+i56gVipXDIvogemy5ok7TKfmsYFphqXFGI7uUsv7+6y6Ad5SdUAGrDoAXoIfUuUBf5CcOgDG7Nq1y6obACBvc+fO/Ym6Ad3l0ksv/cDu3buX3Xbbba/buHHjEewIDYRhwYIFP2I4uquwMB5AL0jVARmx6gAA6AJOHZCFWqlcNAxChmazOgDx4lSn4Dh1QI6sOgCIUDL5x8eMMaZWKjszMd+1odpqpqKmnsVwdPey6gB4qa9vjNXVEdMxPNBfMcZUxBnw49QBGUjUAfDSrraadXUEjBkdHT1W3QAAeTviiCO+pW6A1urVq0+777773rl9+/aTt2zZUh4ZGTHj4+PsDA0Ehut517HqAACYAcFvKjGJBS0AEM81PVEHwJtTByBqVh0ALzEvlniDOgDoAXbyj3NrpXLbGLPBGPNNw67SM4Lh6O7FB1BYnDogA4k6AH6GRhtO3ZABrnVhceoAGDMyMjJvzZo1BXUHAORteHj4SnUDZtbjd4a+/vrrj1y1apU6CUAGuJ53j8mjUiviDACYCU4dkBGrDgCALpCqAzJi1QHww86OyBmL4MLi1AE5StQBQI8pGmNOmfzD1ErlDWZiUHoDg9L5YDi6eyXqAHiJYaUYQ6phSdUBGbHqAHiJZYeGoDUajf/dbrfVGQCQq6VLl7Y3btyozkDO1q5de/LevXv/4J577nnn1q1b54+MjLzgwM7QAOLA9bzrJOoAAJgB9RheKHLUOgAYYyau6XV1REZ4DxsWpw5A9Kw6AB2L9mTlWqlcNDwrAtSWTf5xNYPS+WA4ugst7+9LDA+9QuPUARmw6gB4ceqA6ZrcsaoozoCfVB0AY7Zv3/6O8fFxdQYA5KZQKJiFCxfexTBdnNasWfP2TZs2nbNp06bFZ5555iHqHgD5KRQK5sQTT/wh1/OuwkAGgF7g1AEZSdQBANAFnDogQ1YdAC9sFoTccKpTcJw6IEdWHQDgCZZN/nHxgUHpaqu5QdgTBYaju5NVB8BLe31jLFVHZCBRB8BLDF/KrToAfqqtplM3wJhdu3YNqBsAIE/FYtGccMIJG9QdyM7KlSs/Wa/X3zc6OnrsyMhIod1uGxb6APErFovm2GOPvV7dgSew6gAAmAExPDc1hgUtAGBMJNf0ydMAEBanDkDUEnUAvETxWfQMEnUAgKdVNMacYow5pVYq140xXzLGXBPrLvZ5Yzi6Oy1RB8BLqg6YruGBfqtugLdUHZABHvCHxakDMGHjxo1FdQMA5KlQKJgjjzzyS+oOTM+nP/3poU2bNr3/e9/73m9edNFFz1P3AJh5XM+7UqIOAIAZkKoDMmLVAQDQBZw6ICNWHQBvqToAUeMdeVhSdUCO+L0IdL+KMeZcY8y5k7tJf4ndpP0wHN2drDoAXmJYKWbVAfBSHxpt1NURGUjUAfASw7UueKtXrz5t1apV6gwAyNWcOXPGTz/99D3qDvg799xzl42Ojp61devWky6//HJ2iAZ63Pz583/O9bx71Eplq24AgBnQrraaqTpiumqlctFw1DoAtCPaHY/hs7Ck1VazrY5A1Kw6AJ2L/GRlqw4A4GWZMWbZ5G7Sl5iJ3aTbyqAQMBzdZZb391UMD71C49QBGeBLeVicOmC6Jh/wJ+IM+EnVATDmvvvue6e6AQDytnDhwrtvu+02dQY6NDIyMu+uu+4aueGGG95x/vnnH6LuAdA9jjnmmC033MAayy5i1QEAMAOcOiAjVh0AAF3AqQMylKgD4CVVByB6iToAHXPqgLzUSuVE3QBgyirGmIvNY7tJnx/RosLMMRzdfRJ1APysb4w5dUMGEnUAvGxWB2TAqgPgzakDYMzY2NgJ6gYAyFt/f//16gY8t6GhoT8eHR1dsWbNmpezQzSAp9PX1/fP6gY8AQvjAfSCGJ6bGsPzegAwJpLTLGulcsWwMVpoovi9h+7EqU7Bifl6YNUBAKataIw5xRhzSq1UvsYYc0kMp2lljeHo7sOLirCk6oDpGh7oT8zEBRPhcOqADCTqAHjhCLEusXXr1vnqBgDI2+zZsxmO7lJXXXXV3D179gxee+21Hx0eHn6hugdAdysWi9eoG/AEiToAAGaAUwdkhPdEABDPNd2qA+AtVQcgalYdAC+pOiBHfOcA4nKKmRiSdmZiJ2knrekiDEd3H6sOgBenDsiAVQfAS3totJGqIzLAzXZYUnUAjFm3bt1JF1100QvUHQCQp9mzZz86NDT0j+oOPNHatWtPvv322y+57LLLXnH//fe/oN1uq5MAdLlFixY9NDg4uEvdgQmTR6UWxRkAkLuIXv5ZdQAAiLUj2vVuiToAXmL6vYfuxDvysDh1QI4SdQCAXFhjjGVI+jEMR3efRB0ALzEco8GX8rCk6oCMWHUAvMRwrQteq9X6g/HxcXUGAORq8eLFzRtvvFGdgUlXXHHFm++6666/WLt27cnNZlOdAyAgCxcu3Lp161Z1Bh6TqAMAYAY4dUAWOGodAIwx8bwLM4b3YaFx6gBEL1EHoGPRnqxcK5UrxpiKOANAvqyZGJLeYIz5eLXVrEtrhBiO7iLL+/usugHeUnVABqw6AF6CH1LlAX+QnDoAxmzZsuWt7NQJIHblcvludQOMWb169Wk33njj6s985jNzxsfHDZ8/AHwdddRR31U34AnYmQpAL0jVARlJ1AEA0AWCfxdmjDG1UrlouK6HZrM6APHiVKfgpOqAHFl1AIAZs8wYs6xWKl9jJoak29IaAYaju4tVB8BLfX1jrK6OmI7hgf6KYUVYaJw6IAOJOgBe2r28iqyb/PjHPx5g52gAMSsUCqZSqXxN3dHLLr300g9s3rz505dddlk/O0UDmKpCoWD6+vquVHfgCaw6AABmQBSDdIYFLQBgTBzvwozhfViInDoAUbPqAHiJ5fvF0+F0eaD3nGImhqQvqbaa54lbZtTz1QF4Ah56hcWpAzKQqAPgZ2i04dQNGeBaFxanDoAxIyMj87Zu3XqIugMA8lQsFs1nPvOZK9QdvWj16tWnvfnNb26NjIx86dvf/nY/O0UDmI6TTjrpwXPOOaeh7sCEyd3qKuIMAJgJTh2QEasOAAC1aqvp1A0ZseoA+Ino9x66EwOpYXHqgBxZdQAAiaIx5txaqTxaK5WXiVtmDDtHd5dEHQAvMRyrw5BqWFJ1QEasOgBeYl4VG4x2u32KugEA8pYkyb3XXXedOqOnrFu37qQtW7b83WWXXbaInaIBZOVlL3vZHTfffLM6A4+x6gAAmAH1GI6GrZXKFcNR6wDg1AEZ4j1sWFJ1AKJn1QHoWLQnK08uok/EGQC0KsaYa2ul8gZjzMdjvd4dwHB0l1je35cYHnqFxqkDMmDVAfDi1AHTxQP+IKXqABhz7733vlbdAAB5mzNnznZ1Q68YGRmZd+utt1530UUXvXx8fNywUzSALM2ZM+df1A14AgYyAPQCpw7IiFUHAEAXSNUBGbLqAHhx6gDEa/IdeUWcgc45dUCOEnUAgK6xzBhja6XyJdVW8zxxS24Yju4eVh0AL+31jbFUHZGBRB0ALzHs4GvVAfDDEWLdoV6vL1U3AEDe5s6dy7bRM2BoaOgbV1555bu2bdv2fHULgDgdeeSRn1c34AkSdQAAzIAYnpsaw4IWADAmkmt6rVS26gZ4i+HUaHSvRB0ALzFfD6w6AEBXKRpjzq2Vyu8yxpxabTVTbU72eBnaPZaoA+AlVQdM1/BAv1U3wFuqDsgAD/jD4tQBmLB169Y56gYAyFupVPqCuiFmQ0NDf/yKV7zioWuuuebdY2NjPAsAkItFixY9tHLlyjF1B57AqgMAYAak6oCMJOoAAOgCTh2QkUQdAG9OHYCo8Y48LE4dkCN+LwJ4OokxZlOtVD5P3JE5Xoh2D6sOgJcYVi1bdQC81IdGG3V1RAYSdQC8xHCtC96FF174ofHxcXUGAOSqr6/vkcHBwV3qjhiNjIzMe9vb3rZjeHj4ittuu63QbDYNnysA8lAoFMxJJ510u7oDj2G3OgA9oh3Dzka1UrloeHYKAGm11WyrIzLC8FlY6tVWs66OQNQSdQA6F/nJylYdAKCrnVsrlTfVSuVEHZIVhqO7wPL+vooxpiLOgB+nDsgAX8rD4tQB08UD/iCl6gAYU6/X39Rut9UZAJCr448/vq5uiNGf/dmf/c2VV1658/vf//7R6hYA8SsWi+aEE07YoO7AE1h1AADMAKcOyIhVBwBAF3DqgAxZdQC8pOoARM+qA9Axpw7IS0zDjgBylRhjarVS+WPijkwwHN0dEnUA/KxvjDl1QwYSdQC8bFYHZMCqA+DNqQNgzJ133vl6dvgEELNCoWBe9rKX/au6IyaXXHLJ0uXLl++6+uqr379t27bn8zkCYCYUCgVz5JFHfkndgSdYog4AgBkQw3NTY3heDwDGRHJNr5XKFWNMUZwBP5ykitxwqlNwUnVAjqw6AEAwisaYi2ul8rWTG2EGi+Ho7sAOvmFJ1QHTNTzQnxi+lIfGqQMykKgD4CWm4+uCdvvtt5fVDQCQp2KxaObPn/8ddUcsVqxY8ZXLL7/81n/91389av/+/eocAD1k/vz5Pz/99NP3qDvwBFYdAAAzwKkDMsJ7IgCI55pu1QHwlqoDEDWrDoCXmBdLsIgegK9lxphNIe88z3B0d7DqAHhx6oAMWHUAvLSHRhupOiIDPOAPS6oOgDEXXXTRK/bt2/c8dQcA5OmII4749VlnnfVP6o7QjYyMzPud3/mde9etW7f8nnvuecEDDzxgHn74YXUWgB5yzDHHbFE34DGTD6yL4gwAyF211XTqhoxYdQAAiNWrrWZdHZER3ocFJqL7CXQnBlLD4tQBObLqAABBqpiJAelTxB1TwnB0d0jUAfASw0oxbsDDkqoDMmLVAfASw7UueK1W6/3qBgDI27HHHttQN4Ru1apV51x55ZU7//3f//1IdQuA3tXX1/fP6gY8QaIOAIAZ4NQBWeCodQAwxkRyTZ+UqAPgxakDED2rDkDH6rGerFwrlStmYsARAKbq6lqpfLU6wtdB6oBet7y/z6ob4C1VB2TAqgPgJfghVR7wB8mpA2DMrl27rLoBAPJWLpd/om4I2R//8R/fsG7dut9+4IEH1CkAelyxWLxG3YAnYLc6AL0gVQdkJFEHAEAXCP5dmDHG1ErlouG6HppUHYB4capTcJw6IEeJOgBAFE6Z/GyrhrKYhJ2j9aw6AF7q6xtjdXXEdAwP9FcMK8JC49QBGUjUAfDSjuj4uqA1m82j1Q0AkLe5c+deq24I0eWXX/7/vPWtb/3ZV77yld/ev3+/OgdAj1u0aNFDg4ODu9QdeAKrDgCAGRDFIJ1hQQsAGBPPgKpVB8BbLPcT6E6JOgBeYr4e8J0DQFYSY8zo5JB012M4Wo8PoLA4dUAGEnUA/AyNNpy6IQNc68Li1AEwZmRkZN5dd931UnUHAOTt3HPP/Zy6ITQXXHDBWV//+tdvveWWW4oPPPCAefjhh9VJAHrcwoULt6ob8JjJ3eoq4gwAmAlOHZARqw4AALF2tdVM1REZSdQB8ObUAYga78jDkqoDcmTVAQCiUjTG1Gql8jJxx3NiOFovUQfAy2Z1QAa4AQ9Lqg7IiFUHwEvMq2KD0Wg0/ne73VZnAECuli5d2lY3hOZDH/rQdZdffvlFt99++0HsGA2gWxx11FHfVTfgCaw6AABmQD2UI1yfTa1UrhiOWgcApw7IEO9hwxLF/QS6mlUHoGMxLdR5Ook6AEB0isaYa2ul8inijmfFcLTQ8v6+xPDQKzROHZABqw6AF6cOmC4e8AcpVQfAmLGxsTeMj4+rMwAgN4VCwSxcuPAudUcoRkZG5r3nPe/58Re/+MU37d6927BjNIBuUSgUTF9f35XqDjxBog4AgBng1AEZseoAAOgCMW3YYtUB8OLUAYgXpzoFx6kD8lIrla26AUDUrq6VyherI54Jw9FaVh0AL+31jbFUHZGBRB0ALzE8ELLqAPiptppO3QBjfvrTny5RNwBAnorFojnhhBM2qDtCcNFFF/V97Wtf+8m3v/3t49UtAPBkJ5100oPnnHNOQ92BJ2C3OgC9IIbnpsZwzQYAYyIZSGP4LEgxnBqN7mXVAfAS8/XAqgMARO9jtVL5anXE02E4Wouhp7Ck6oDpGh7ot+oGeEvVARngAX9YnDoAEzZu3FhUNwBAngqFgjnyyCO/pO7odp/+9KffdeWVV+64+eabX8KJAgC60cte9rI71A14CqsOAIAZkKoDMpKoAwBArdpqpuqGjFh1ALw5dQCixjvysDh1QI74vQhgJpzSjQPSDEdrWXUAvMSwE4VVB8BLfWi0UVdHZCBRB8BLDNe64A0PD79D3QAAeZszZ8746aefvkfd0c0++clPnv65z33uG3v27OG7O4CuNWfOnH9RN+Ax7FYHoEe0YxikmzxqPRFnAICaUwdkiI3RAhPD/QS6WqIOQOciP1k5UQcA6BldNyDNC1aR5f19FWNMRZwBP04dkAFWhIXFqQOmiwf8QUrVATBm796971U3AEDeFi5ceLe6oZutXLny4ssvv/yvduzY8fyHH35YnQMAz+jII4/8vLoBT5CoAwBgBjh1QEasOgAAukBMG7ZYdQC8OHUAomfVAehYqg7IS61UTowxRXEGgN7SVQPSDEfrJOoA+FnfGHPqhgwk6gB42awOyIBVB8CbUwfAmNHR0depGwAgb/39/derG7rVmWeeecnnPve5j+3fv1+dAgDPqq+v75GVK1eOqTvwBCyMB9ALYnhuagzP6wHAmEjeSTB8FqSYBvPRZTjVKThOHZAjqw4A0JO6ZkCa4WgdXlSEJVUHTNfwQH9i+FIeGqcOyECiDoCXtNpqttURMGbnzp1HqRsAIG+zZ89mOPpprFy58uIvfvGLZzzwwAOGHaMBdLNCoWBe+cpXcgpA97HqAACYAU4dkBHeEwHoedVW06kbMpKoA+DNqQMQNasOgJeYF0ssUQcA6FldMSDNcLSOVQfAi1MHZMCqA+ClPTTaSNURGeABf1hSdQCMWbdu3Un33ntvQd0BAHmaPXv2o0NDQ/+o7ug27BgNICTFYtGceOKJ31F34DG1UrliWBgPoAdENEhn1QEAIObUARnifVh4UnUAosZAalhSdUCOrDoAQE+TD0gzHK2TqAPgJYaVYtyAhyVVB2TEqgPgJYZrXfBardYfjI+PqzMAIDeFQsG87nWva6g7ug07RgMITaFQMKVS6e/UHXgCqw4AgBng1AFZ4Kh1ADDGxPMuzBjuxUPDSarIm1UHoGP1aqtZV0fkYXIRfUWcAQCn1Erl81S/OMPRAsv7+6y6Ad5SdUAGrDoAXoIfUuUBf5CcOgDG3HXXXa9vt9vqDADIzeROoxvVHd2EHaMBhGjOnDnjK1as2KTuwBOwWx2AXpCqAzKSqAMAoAsE/y7MGGNqpXLRMHwWmlQdgHjVSuXEcKpTSJw6IEeJOgAAJp1bK5VPUfzCDEdrWHUAvNTXN8bq6ojpGB7orxi+lIfGqQMykKgD4KUd66rY0GzatGkxO0cDiFmhUDBHHXXUBnVHt2DHaAChWrhw4d3qBjxFog4AgBkQxSCdYUELABgTx7swY3j3H6JY7ifQnRJ1ALxsVgfkiO8cALrJ1bVSedlM/6IMR2vwARQWpw7IQKIOgJ+h0YZTN2SAa11YnDoAxoyMjMzbunXrIeoOAMjbGWec8Tfqhm7AjtEAQtbf33+9ugGPmdytLhFnAMBMcOqAjFh1AACIpdVWs62OyAjvw8KTqgMQNa4JYXHqgBwl6gAAeJKrJ09YmDEMR2sk6gB4iWGlGDfgYUnVARmx6gB4YZV8F3jwwQffqm4AgLydeOKJTXVDN2DHaAChO/zww/9O3YAnsOoAAJgB9RgG6WqlcsVw1DoApOqADCXqAHhpV1vNVB2BqCXqAHQs9uuBVQcAwJMUjTHXTm70MSMYjp5hy/v7EsNDr9A4dUAGrDoAXpw6YLp4wB+kVB0AY/bs2fNudQMA5K2/v/8udYPapz/96Xd95StfOYMdowGEqq+v75Ezzzzzh+oOPEGiDgCAGeDUARmx6gAA6AIxbdhi1QHw4tQBiBenOgUnVQfkpVYqW3UDADyDijGmNlO/GMPRM8+qA+Clvb4xlqojMpCoA+AlhgdCVh0AP9VW06kbYEy9Xl+qbgCAvJVKpe+qG5RGRkZ+65prrvnGjh07ns+O0QBCdfzxx9fVDXgKTg0D0AtieG5qDNdsADAmkgFVhs+CFMOp0eheVh0AL7F8v3g6Vh0AAM8iqZXKF8/EL8Rw9Mxbog6Al1QdMF3DA/1W3QBvqTogAzzgD4tTB2DC1q1b56gbACBvL3nJS/5G3aAyMjIy72tf+9r1Y2NjfBcHELS+vr6YXx6FyqoDAGAGpOqAjCTqAAAQq1dbzbo6IiNWHQBvTh2AqCXqAHhx6oAcMZsGoNt9rFYqn5L3L8IL2Zln1QHwEsPLPqsOgJf60Gijro7IQKIOgJcYrnXBW7NmzdvHx8fVGQCQq76+vkcGBwd3qTtUrrvuuh/dfPPNL+F6DyBkhULBzJs37wvqDjymVion6gYAmAHtaquZqiOmi6PWAcAYE9cwGsNngeEkVeSMDcQCEvn1wKoDAKADF+f9bJvh6Bm0vL+vYoypiDPgx6kDMsANeFicOmC6eMAfpFQdAGO2b9/+/na7rc4AgFwdf/zxdXWDysqVK//ljjvu4IQAAME77rjjfvWpT33qZnUHnsCqAwBgBjh1QEYSdQAAdIHN6oAMWXUAvKTqAETPqgPQsVQdkJfJQcOiOAMAOlE0xlw9OWeWC4ajZ1aiDoCf9Y0xp27IQKIOgJcYHghZdQC8OXUAjLnzzjtfz06iAGLX19fXk6cV/OVf/uWZtVrtd7nOA4jBokWL7lE34ClYGA+gF8Tw3NQYnp0CgDGRvJNg+CxITh2AeNVKZatugBenDshRog4AAA+JMebcvP7lDEfPLF5UhCVVB0zX8EB/YvhSHhqnDshAog6Al7TaarbVETBmdHT0SHUDAOStWCz+q7phpl122WVv+drXvnbhtm3bzP79+9U5ADBtpVKpJxe6dLlEHQAAM8CpAzLCeyIAva5dbTVTdURGrDoA3mJZbIXulKgD4CXm51t85wAQmo/ltciI4eiZZdUB8OLUARmw6gB4aQ+NNlJ1RAa42Q5Lqg6AMWvXrj15bGzsIHUHAORpzpw5j46MjKxXd8ykq666au73v//9/3P33Xcf9MADD5iHH35YnQQA0zZnzpy/VTfgMbVSuWKMqYgzACB31VbTqRsyYtUBACDm1AEZWqIOgDenDkDUeEcellQdkCOrDgCAKbi2VioXs/6XMhw9sxJ1ALzEsFKML+VhSdUBGbHqAHiJ4VoXvH379v2eugEA8nbyySc31A0zbdOmTV/5wQ9+cCg7RgOIRV9f3yPnnHPOLeoOPIFVBwDADHDqgCzUSuVE3QAAXSCmdxJWHQAv9WqrWVdHIGpWHYCORXs9mBwsrIgzAGAqisaYq7P+lzIcPUOW9/dZdQO8peqADFh1ALwE/0Aor2MOkCunDoAxe/fuXapuAIC8zZ079yfqhpn06U9/emjDhg2/zY7RAGJRKBTMK1/5yrvVHXgKFsYD6AWpOiAjVh0AAF0gVQdkgRNcgpSqAxCvyWtCUZyBzqXqgBxZdQAATMOyWqm8LMt/IcPRM8eqA+Clvr4xVldHTMfwQH/F8KU8NE4dkIFEHQAv7VhXxYbmnnvuSdQNAJC3I4444lvqhpkyMjIy75prrlndbrfVKQCQmWKxaE488cTvqDvwFFYdAAAzIPhNJSZx1DqAnldtNZ26ISOJOgDeYrmfQHey6gB4ifl6wHcOAKG7enIX/EwwHD1z+AAKi1MHZCBRB8DP0GjDqRsywLUuLE4dgAn33HPPbHUDAORteHj4SnXDTLnhhhtu2rZt2/PHx8fVKQCQmUKhYEql0t+pO/CYyYfEiTgDAGaCUwdkJFEHAICYUwdkiPdh4UnVAYga14SwOHVAjhJ1AABMU9EYc25W/zKGo2dOog6Al83qgAxwAx6WVB2QEasOgJeYV8UG49JLL/2AugEA8rZ06dK2umGmXHDBBWf98Ic/rKg7ACBrc+bMGV+xYsUmdQeeIFEHAMAMqFdbzbY6Yromj1qviDMAQC2mdxJWHQA/Ee1aju6UqAPQuWqrmaobcmTVAQCQgY/VSuUki38Rw9EzYHl/X2ImptoRDqcOyIBVB8CLUwdM1+QD/qI4A35SdQCM2b179zJ2FgUQs0KhYBYuXHiXumMmXHXVVXP/5V/+ZTXXdQAxWrhw4d3qBjyFVQcAwAxw6oCMWHUAAHQBpw7IUKIOgBenDkC8ONUpOE4dkJdaqWzVDQCQoYuz+JcwHD0zrDoAXtrrG2OpOiIDiToAXmJYLW/VAfDDKvnucNttt72u3W6rMwAgN8Vi0Zxwwgkb1B0z4aabbvrB7bffftD+/fvVKQCQuf7+/uvVDXgKTg0D0AtieG5qjDFL1AEAoBbLOwmGz4KUqgMQNasOgJdYvl88nUQdAAAZsrVS+ZTp/ksYjp4ZPPQKS6oOmK7hgX6rboC3VB2QAV7KhsWpAzBh48aNR7DDKICYFQoFc+SRR35J3ZG3Cy+88EP/+q//euwDDzxgHn74YXUOAGTu8MMP/zt1A57CqgMAYAak6oCMWHUAAIil6oAMWXUAvMU8DAm9RB0AL04dkCPmNQDE5uLJExqmjOHomWHVAfASw5cjqw6Al/rQaKOujshAog6AlxiudcEbHh5+x759+56n7gCAPM2ZM2f89NNP36PuyNtXvvKVKzkJAECs+vr6HjnzzDN/qO7AY2qlcqJuAIAZ0K62mqk6Yro4ah0AjDFxDaMxfBYepw5A1LgmhCVVB+TIqgMAIGNFY8zHpvMvYDg6Z8v7+yrGmIo4A36cOiAD3ICHxakDposH/EFK1QEwZu/eve9VNwBA3hYuXHi3uiFvp5122nWbN29+IScBAIjV8ccfX1c34CmsOgAAZoBTB2QkUQcAQBeIacOWRB0AL/Vqq9lWRyBqVh2AjqWxXg9qpXLFTAwRAkBs/nQ6u0czHJ2/RB0AP+sbY07dkIFEHQAvm9UBGbDqAHhz6gAYs2fPnkTdAAB56+/vv17dkKd169addMstt7xR3QEAeerr64tpkCEWLIwH0AtieG5qDM9OAcCYSN5JTJ7gUhRnwI9TByBetVLZqhvgxakDcmTVAQCQk6Ix5uKp/sMMR+ePFxVhceqA6Roe6E8MX8pD49QBGUjUAfAS7arY0Nx9990L1Q0AkLfZs2dHPRz9k5/85Kr777//BeoOAMhLoVAw8+bN+4K6A0+RqAMAYAY4dUBGeE8EoNfF9E7CqgPgLZbFVuhOiToAXmK+HvCdA0DMTpncId8bw9H5s+oAeEnVARmw6gB4aQ+NNlJ1RAa42Q5Lqg7AxE6j9957b0HdAQB5mj179qNDQ0P/qO7Iy+rVq0/76le/enK73VanAEBujjvuuF996lOfulndgcdMPgiuiDMAIHfVVtOpGzJi1QEAIJaqAzK0RB0Ab04dgKjxjjwsTh2Qo0QdAAA5O3cq/xDD0flL1AHwEsMxsXwpD0uqDsiIVQfASwzXuuDt3bv3TePj4+oMAMjV4sWLm+qGPN14442rm82m4XoOIGaLFi26R92Ap0jUAQAwA5w6IAu1UjlRNwBAF4jpnYRVB8BPtdVM1Q2ImlUHoGP1aqtZV0fkoVYqFw3PigDEb0q7RzMcnaPl/X1W3QBvTh2QAasOgJfgHwjVSmWrboA3pw6AMT/+8Y+XsdMogNiVy+W71Q15ufTSSz+wdevWOeoOAMhbqVQK/ntrhNiZCkAvSNUBGbHqAADoAk4dkAVOcAmSUwcgXpPXhKI4A51L1QE5suoAAJgh3rtHMxydL6sOgJf6+sZYWx0xHcMD/RXDl/LQOHVABhJ1ALy0Y10VG5pNmzYtZqdRADErFAqmUql8Td2Rl5tuuukKruMAesGhhx76PXUDnsKqAwBgBsSyOIcFLQB6XUw7dVp1ALzFcj+B7mTVAfAS8/UgUQcAwAw5ZXK3/I4xHJ0vHnqFxakDMpCoA+BnaLTh1A0Z4FoXFqcOwIStW7ceom4AgDwVi0Xzmc985gp1Rx7+/M///C9/8IMfzOIEAACxmz179qPnn3/+BnUHniJRBwDADHDqgIwk6gAAEHPqgAwtUQfAm1MHIGpcE8KSqgNyxLwGgF7yMZ+fzHB0vhJ1ALzEsFKMm56wpOqAjFh1ALzEcK0L3vnnn/9H6gYAyFuSJPeqG/Ly3e9+94+bzaZh52gAMSsUCuZ1r3tdQ92BJ6qVylbdAAAzoF5tNdvqiOmaPGq9Is4AALXN6oAMWXUAvKXqAETNqgPQuWqr6dQNObLqAACYQX/q85MZjs7J8v6+xBhTFGfAT6oOyIBVB8CLUwdM1+QD/qI4A35SdQCM2bNnz7vVDQCQtzlz5mxXN+Rh7dq1q++9996CugMA8lYsFk2SJN9Td+AprDoAAGaAUwdkxKoDAKALOHVAFiaP707EGfCTxrDYCt2Ja0JwnDogLyyiB9CDirVS+ZROfzLD0fmx6gB4aa9vjKXqiAwk6gB4iWEHX6sOgJ/IV8UGo16vL1U3AEDe5s6de526IQ+33XbbGewYDaAXFAoFc9RRR31N3YGn4NQwAL0ghuemxnDUOgC0q61mqo7ISKIOgLdUHYCoJeoAeInl+8XTSdQBACDQ8e7RDEfnh4deYXHqgOkaHui36gZ4S9UBGeClbFicOgATxsbGDlc3AEDeSqXSF9QNWTv//PPP/sEPfjCr3W6rUwAgd7Nmzfr1Rz7ykSgXugQuUQcAwAxI1QEZseoAABBz6oAMWXUAvMU8DAk9qw6Al1QdkCPmNQD0oqRWKied/ESGo/Nj1QHwslkdkAGrDoCX+tBoo66OyECiDoAXHgR1gTVr1rz9/vvvf4G6AwDy1NfX98jg4OAudUfWbr755o81m03DztEAesGiRYt2qBvwRJMPfIviDADIWxS7jHLUOgAYY+J4/3oAw2fhSdUBiBrXhLA4dUCOrDoAAEQ62j2a4egcLO/vqxhjKuIM+HHqgAxwAx4Wpw6YLh7wB8mpA2DMjh073sqOowBid/zxx9fVDVm79NJLP7B169Y56g4AmCkDAwM3qRvwFFYdAAAzwKkDMpKoAwCgCzh1QIasOgBeolhsha5m1QHoWFptNdvqiDzUSuWKYRE9gN61bHJu7VkxHJ2PRB0AP+sbY07dkIFEHQAvMezga9UB8JaqA2DMPffc87vsOAogZoVCwbzsZS/7V3VH1rZt2/YnXL8B9JLDDz/86+oGPMUSdQAAzIBYdhm16gAAUKu2mk7dkIVOj+xGV3HqAMSLa0JwUnVAjqw6AACEisaYZc/1kxiOzgc7+IbFqQOma3igPzGsCAtNqg7IQKIOgJdoV8WG5s4776yoGwAgT8Vi0cyfP/876o4srV279uSvfvWrJ7PzP4BeMXv27EeHhob+Ud2Bp7DqAACYAU4dkBHeEwHodU4dkCGrDoC3WBZboTtZdQC8xLBp3TNhET2AXvfB5/oJDEfnw6oD4CVVB2TAqgPgpT002kjVERngAX9YnDoAxoyMjMwbGxs7SN0BAHk64ogjfn3WWWf9k7ojS7fffvslzWbTsHM0gF6xePHiproBTzR5VGpFnAEAuYtll1HDM3sAiGkYjfdh4XHqAESNa0JYnDogR1YdAABidvK5+TNiODofiToAXmL4cs6KsLA4dUBGrDoAXlgl3wUefPDBD6gbACBvxx57bEPdkLUf/ehHr1A3AMBMmj9//q3qBjxFog4AgBng1AFZ4Kh1ADDGRHJNn5SoA+AnosVW6E6JOgAda1dbzbo6Ig+1Urlo+L0IAMYYs+zZ/ibD0Rlb3t9n1Q3w5tQBGbDqAHgJfki1VipbdQO8OXUAjGm1Wm9SNwBA3srl8k/UDVk677zzPnP//fe/QN0BADOlUCiY+fPn/626A0/BzlQAekGqDsiIVQcAQBdI1QFZ4ASXIKXqAMSLa0JwnDogR4k6AAC6xAef7W8yHJ09qw6Al/r6xlhbHTEdwwP9FcMNeGicOiADiToAXuqxrooNTaPROE7dAAB5mzt37rXqhiz94Ac/+GC73VZnAMCM6evr+6/Vq1f/g7oDT2HVAQAwA2I45dEYFrQAQFptNdvqiIxYdQC8OXUAombVAfASy/eLp2PVAQDQJZLJxUtPi+Ho7PHQKyxOHZCBRB0AP0OjDaduyADXurCk6gBM2LJlS1ndAAB5O/fccz+nbsjKRRdd9Irrr7/+yPHxcXUKAMyYl7/85TvVDXhaiToAAGaAUwdkJFEHAICYUwdkiPdh4Qn+BF90tSXqAHhJ1QE54vMJAB6z7Jn+xkEzGNErEnUAvMSwUoybnrA4dUBGrDoAXmK41gXv0ksv/cDIyIg6AwBytXTp0vbGjRvVGZm56667uHAD6Dlz5869Rd2AJ6qVylbdAAAzoB7DLqMctQ4Axpi43kkk6gB4c+oARM2qA9C5aqvp1A05suoAeEmNMW1xw0xKjDFFcQN6yweNMZ99ur/BcHSGlvf3JYb/uEOTqgMyYNUB8JKqA6Zr8gF/UZwBP04dAGN27969jJ1HAcRu3rx5ozENR99xxx1L1Q0AMNPmzJmzXt2Ap7DqAACYAU4dkBGrDgCALuDUAVmolcpFw3B0aOrVVrOujkCcuCYEx6kD8lIrlRN1A7y9u5c/n560iDgxE/NGSyb/98CPgelIaqVy8ekW3TMcnS2rDoCX9vrGWKqOyECiDoCXGFbLW3UA/FRbzVTdAGO2bNmytN1uqzMAIFdHHXXUd9UNWbn44osHL7nkkoK6AwBm0uzZsx89//zzN6g78BQc2wugF8Tw3NQYrtkAEMVJAJOsOgDeUnUAopaoA+AlVQfkyKoD4KXdy4PRxhgz+f/++uQP3ZP//uMWnyRm4jv1gT8HfCwzxlzz5L/IcHS2eOgVFqcOmK7hgX6rboA3pw7IwBvUAfDi1AGYcNNNN/Wzc3Q4XvnKV/6sUCj812/8xm/81/Of//xHX/jCF/7Xi1/84l8ffPDBj6rb1GbNmtV60YteNKbuQHc66qijLlc3ZGV0dPT3uG4D6CWFQsG87nWva3z7299Wp+CprDoAXs5XBwCBcuqAjFh1ALw4E89gPtAt6uqADCXqAHjjmo48WXUAvMR8PWBeIyxOHdDtJhfWOfO4/7+aHJi2ZuL3uzXcl+G5vcEwHJ07qw6Al83qgAxYdQC81IdGG211RAYSdQC8xPzFLxjDw8PvGBoaep66A51ZtGjRQ7feeuth6g4AOiMjI/OuvPJKdvwH0FOKxaJJkuR7DEd3l8mjUoviDHTOVVvN89QRAKQSdQC8nF9tNZ06AkDXYvgsPKk6AFHjmhAWpw7IUaIOgBfmNaZgcmB6w+QfplYqV8zEjNy7zMQOwcCTLTPGnPrkv8hwdEaW9/dVjDEVcQb8OHVABrgBD4tTB0zX446zQDicOgDG7Nu373fUDejMwQcfbI477rgdW7duVacAEKrX62dv27bt+eoOxKdQKJhisWgKhcLT/nimjI+Pm3a7bQ7sjv7kH6O3HPh9uGDBArNgwYL16h48RaIOgBdeeAE9rFYqW3UD/DAYDeA5WHUA/HBdR86sOgAdq08OVkZnckC0Is6An1QdEINqq1k3E7sCXzM5t7TMGPOnhmeneEyxVion1VYzffxfZDg6O4k6AH7WN8acuiEDiToAXmJ4QWbVAfCWqgNgTKPRYDg6ELNmzTKLFi267pvf/KY6BYDQzp0736ZuQLgWLVr00Itf/OJfHX744ffPnj17lzHGvOQlL9n24he/+I5CofCfhx122EPFYnHTihUrNqlbjTFm3bp1J7Xb7ZMeeOCBQ8bHx39jpn7dX/ziFy9/8MEHj52pX88YY/bt2zdv7969R8zUr/eLX/zihVu3bj1kpn69qSoWi2bJkiXmhBNO+NWHP/zhf1H34ClYGB8Wpw4AIGXVAfCSqgMAdC8WvATJqQMQr8lTnRAOpw7IkVUHwA8Ld7I3ufjhGjMxKJ2YiSHpU3RF6CLWPOm7PsPR2eFFRVicOmC6hgf6E8OxqqFJ1QEZSNQB8JLGuio2NHffffdCdQM6UygUzFFHHfW36g4AOiMjI/PWrFlTUXegOx3YYffoo48eP+yww35eqVQ2HnrooXfNmjXrx4cccsg/Dw4O7grt9IHJIe2uGNTG9Kxdu/bkX/3qV0t8/7lDDjnkP8vl8kOHH354c2RkJI80TI9VB8BLqg4AIMV7orA4dQCArpaoA+AtVQcgalYdAC8xbFr3TLyf/UHKqQNiN7lL8Km1UvnjxpiPmYlB6aIwCVpvMMZ89vF/geHo7Fh1ALyk6oAMWHUAvLSHRhupOiIDPOAPi1MHwJirrrpq7oUXXlhQd6Azs2fP/vWf/umfblR3ANDZvn37qna7rc5AF5k9e/ajixcvbpbL5bsrlcrX5s6du2FwcHCXugt4sjPPPPOHxpgfqjuQnckjIiviDHSOBcoAEnUAvMQ8NANg+ngfFh6u68gTA6lhSdUBObLqAHhJ1QG9YvKZ3Hm1UvmzxphzzcSgNHqPffJfYDg6O4k6AF5i+HLEDXhYnDogI1YdAC+b1QEw5r777vvg+Pi4OgMdOuGEE3b85Cc/UWcAELrnnnt+l+t27zqwM/SrXvWq+ty5c2+ZM2fO+vPPP3/DjTfeqE4D0JusOgBenDoAgM7kUb5FcQb8pOoAAF3NqgPgzakDEDWrDkDH2pM7yUZnchF9Is6Anxhm04IyOST98VqpfIkx5mrD9bvXFGulcvL4zwGGozOwvL/PqhvgzakDMmDVAfAS/JBqrVS26gZ4c+oAGPPjH/94GTuQhmNgYOAmdQMArVtvvfUYdQM0Xv/61+9ZvHjxhmOOOWY1O0MD6BLsVheW4J/9AJgWqw6Al3q11ayrIwB0p1qpXDEseAlNnVNckJfJa0JFnIHOOXVAjhJ1ALw5dUCvmvy+V62VysvMxJB0UdmDGZWYxy2GZjg6G1YdAC/19Y2xtjpiOoYH+iuGG/DQOHVABhJ1ALzwgL9L3H333cexA2k4isUiW4MCPeyTn/zkqr/4i794nroDM+eYY475z9e//vVu/vz5nzz//PNvYYdoAF0mUQfAi1MHAJDipMewOHUAgK5m1QHw5tQBiFqiDoCXmBcuW3UAvLBwpwtUW80NtVLZGWOuNfw31CveYIy55sAPGI7OBru4hMWpAzKQqAPgZ2i04dQNGeBaF5ZUHYAJGzduLKob0LlVq1Z9Xt0AQGdsbOwt6gbMjL6+vkf++3//71/64he/eNr27dvVOQDwTKw6AB1rs0AZ6HlWHQAvMQ/NAJg+3oeFh+s68sQ1ISxOHZAjfi+GxakDMGFySL1aK5XPM8acq63BDEge/4PniyJik6gD4OUGdUAGuOkJi1MHZMSqA+Alhmtd8M4///w/Ujegc0uXLm2rGwBo3XHHHUvVDcjHwQcfbA477DDzspe97NdnnHHGlWNjY7/xxS9+8TR1FwA8k1qpbNUN8OLUAQB0OGo9SE4dAKCrJeoAeHPqAETNqgPQuWqr6dQNOUrUAfDCvEaXqbaa5xljTjXGtLUlyFny+B8wHD1Ny/v7EmNMUZwBP6k6IANWHQAvqTpguiYf8BfFGfDj1AEwZu/evVbdgM4tWLCA3SWAHrZu3bqT7r333oK6A/mYNWuW+b3f+70fnHHGGUdfeumlH1H3AEAHrDoAXnjhBfS2RB0AL+1qq5mqIwB0p1qpXDRc14PDdR05S9QB6JhTB+SlVionhnmN0KTqADxVtdW8xhhTNQxIR+3xG48cJOyIhVUHwEt7fWMsVUdkIFEHwEsML8isOgB+eBDUHXbu3PkadQM6UygUTF9fXwzXawBTNDY29ifj4+PqDGTs4IMPNkmS7H/HO97x/j//8z/foO4BAA9L1AHwkqoDAEhx0mNYUnUAgK5m1QHw5tQBiBenOgUnVQfkyKoD4IUFmV2s2mqmtVK5aoypGRYdxCoxk/eI7Bw9fbyoCItTB0zX8EC/VTfAm1MHZIAH/GFx6gBM2LZtW7+6AZ0pFoumv7//r9UdAHTSNH1ju91WZyBjb3nLW7a+5z3v+U0GowEEyKoD0LnIj+0F8NysOgBeWBwP4NnwPiw8XNeRJ6sOgJeYrwfMpoXFqQPw7CaH19lBOl7zD/wJw9HTZ9UB8LJZHZABqw6Al/rQaKOtjshAog6Al5i/+AVjZGTkt+6///4XqDvQmeOOO+7ng4ODu9QdAHRuuummfnaOjsfBBx9sVqxY8Vff/OY3f3PlypVj6h4A8FErlSuGXUtC4tQBAOQSdQC8OHUAgK6WqAPgzakDEDUWTIQlVQfkyKoD4CWG2bToPW5AGvFJDvwJw9HTsLy/r2KMqYgz4MepAzLADXhYnDpgumqlctHwMCg0Th0AY7Zv3/4hdiANR7lc3qluAKAzPDz8jn379j1P3YFszJ49+9HBwcH/uW7duhXqFgCYIqsOgBcWKAM9jKPWw8Nu/wCeg1UHwFuqDkDUEnUAOlavtpp1dUQeJhfRV8QZ8OPUAejM5ID0qeoOZC458CcMR09Pog6An/WNMaduyECiDoCXGF6QWXUAvKXqABhzzz33/C47kIZj3rx5Tt0AQKfZbP6RugHZOPLIIx9dsWLF8uHh4a+pWwBgGlgYH5ZUHQBAyqoD4MWpAwB0Lxa8BCmttpptdQTiVCuVE8OpTiFx6oAcJeoA+GFBZliqreY1xpjPijOQreLkRqAMR08TLyrC4tQB0zU80J8YbsBDk6oDMpCoA+CFB0FdYufOnfPUDehcqVT6sroBgM727dtPVjdg+mbPnv3ohz/8YQajAcQgUQfAi1MHAJDiPVFYUnUAgK5m1QHwlqoDEDWrDoCXzeqAHPGdIyxOHQB/1Vbz44b/28UmMYbh6Omy6gB4SdUBGbDqAHhpD402UnVEBrjZDotTB8CYkZGReVu3bj1E3YHOzJ49+9GVK1fepu4AoLNly5ayugHTw47RAGIxuaNFIs5A51igDCBRB8BLDCc9AsjPEnUAvHFdR564JoTFqQNyZNUB8JKqAzBl7zbGtNURyEzFGIajpytRB8BLDF+OuAEPi1MHZMSqA+Al5lWxwXjwwQc/oG5A5xYvXtxUNwDQueKKK96sbsD0/cEf/MFqBqMBRMKqA+AlVQcA0OGo9SA5dQCArmbVAfCWqgMQNasOQMfa1VYzVUfkKFEHwEsMs2k9aXIDhFPVHchMxRiGo6dseX+fVTfAm1MHZMCqA+Al+CHVWqls1Q3w5tQBMOZnP/vZq9UN6Nz8+fNvVTcA0Nm9e/f7xsfH1RmYooMPPti8//3v/94ll1zy5+oWAMhIog6AF154Ab3NqgPgpc5u/wCeCQteghT7MCSEaqVyxUwOVSEIqTogL8xrBClVB2Dqqq3mBmPMBnEGsjHfGIajp8OqA+Clvr4x1lZHTMfwQH/FcAMeGqcOyECiDoCXerXVrKsjYMz27dtPVjegc4ceeigDDUAPS9P0je12W52BKXr1q1+998tf/vLvqjsAIENvUAfAS6oOACDFSY9hceoAAF0tUQfAm1MHIGqJOgBeYn7PZ9UB8MK8Rhw+boxpqyMwbRVjGI6eDl5UhMWpAzKQqAPgZ2i04dQNGeBaF5ZUHYAJW7ZsKasb0JlCoWAuu+yyz6o7AOhs3rz5KHaODs/BBx9s5s+f/19vetOb3qZuAYCMWXUAOsZOdQCsOgBeYh6aATB9vA8LT/An+KKrcU0Ii1MH5Ijfi2Fx6gBM3+SA+yXqDkxbxRiGo6cjUQfASwwPvbjpCYtTB2TEqgPgJYZrXfAuvfTSD6gb0LnXvOY196kbAOisXbv25LGxsYPUHfA3a9Ys8653vevbn/jEJ25VtwBAVjgqNThOHQBAh6PWg5SqAwB0NasOgDenDkDUrDoAnau2mk7dkKNEHQAvLNyJRLXVPM8YUxdnYHoqxjAcPSXL+/sSY0xRnAE/qTogA1YdAC+pOmC6Jh/wF8UZ8OPUATCm1Wq9gR1Iw7FgwYIfqRsA6Pz85z//7+oGTM38+fN/demll75T3QEAGUvUAfDCCy+gtyXqAHhht38Az6hWKhcNC16CE/kwJPQSdQA6lqoD8lIrlRPDvEZonDoAmTpfHYDpYzh6aqw6AF7a6xtjqToiA4k6AF5i2MHXqgPghwf83SFN0ze22211BjpULBZvUTcA0Ln33ntfq27A1Lz+9a//groBAHLAqWFhceoAAFJcs8Pi1AEAuppVB8Bbqg5AvDjVKThOHZCjRB0ALyzIjEy11bzGsHt00GqlsmU4emqWqAPgxakDpmt4oN+qG+DNqQMywAP+sDh1ACbcdNNN/ewcHY4jjzzy8+oGADr1en2pugF+CoWCWbJkya8uvfTSj6hbACAHVh2AzrFTHdDzrDoAXtjtH8Cz4X1YeJw6AFGz6gB4iWHTumfC51NYUnUAcsHu0YFjOHpqrDoAXmJ46GXVAfBSHxpttNURGUjUAfAS8xe/YKxdu/bkffv2PU/dgc4sWrTooZUrV46pOwDoPPDAAy9VN8BPsVg07373uy9TdwBA1mqlcsVwVGpInDoAgFyiDoAXpw4A0NUSdQC8xfD+H92LgdSwpOqAHFl1ALwwrxGnDcaYtrgBU1dkONrT8v6+ijGmIs6AH6cOyAA34GFx6oDpqpXKRcPDoNA4dQCM2bt37x+oG9CZQqFgTjjhhFF1BwCdkZGReTt37iyoO+Dn6KOPHj/vvPP+P3UHAOTAqgPgJVUHANDhqPXwsNs/gOdg1QHw5tQBiFqiDkDH6tVWs66OyMPkvEZFnAE/Th2A7FVbzbaZGJBGmBKGo/0l6gD4Wd8Yc+qGDCTqAHiJYUWYVQfAW6oOgDGNRuN31A3oTLFYNCeeeOJ31B0AdPbs2bOs3W6rM+Bp8eLFMdxrA8DTYWF8WPg8AnqbVQfAi1MHAOheLHgJUrTDkNCrlcqJ4VSnkKTqgBxZdQD8sCAzapeoAzB1DEf740VFWJw6YLqGB/oTww14aFJ1QAYSdQC8pJMr1iDWaDQq6gZ0plAomFKp9HfqDgA69Xr9fePj4+oMeKpUKuepGwAgJ4k6AF6cOgCAFO+JwpKqAwB0NasOgLdUHYCoJeoAeIl54TLfOcKSqgOQn2qrmRr+bxwshqP9WXUAvKTqgAxYdQC8tIdGG6k6IgPcbIfFqQNgzFVXXTV3x44dL1V3oDOzZs369YoVKzapOwDo7Nu3b566AX4WLVr00DnnnHOLugMAsjZ5VGoizkDn6ixQBnpeog6Al5iHZgBMH+/DwsN1HXnimhAWpw7IUaIOgBenDkDuvqQOwJTMZzjaX6IOgJcYvhwtUQfAi1MHZMSqA+BlszoAxjzwwANvYQfScCxatGiHugGA1s6dOxmODsxv/dZvfVfdAAA5SdQB8OLUAQB0OGo9SE4dAKCrJeoAeEvVAYiaVQegc5O7ucbKqgPgJYbZNDy7DeoATEmF4WgPy/v7rLoB3pw6IANWHQAvwQ+p1kplq26AN6cOgDF33XXX77XbbXUGOjQwMHCTugGA1tatWw9RN8DPvHnz/lLdAAA5seoAeAn+2Q+AabHqAHhht38Az4gFL2GqtppO3YA4TZ7qVBFnoHNOHZAX5jWClKoDkK9qq1k3xtTFGZgChqP9WHUAvNTXN8ba6ojpGB7orxhuwEPj1AEZSNQB8FKfvBGD2JYtW05m5+hwFIvFG9UNAHRWr159mroBfhYvXvzLiy66iIUtAGLFsb1hceoAAFKc9BgWpw4A0NWsOgDenDoAUbPqAHiJeadeqw6AF+Y1escGdQD8MRzthxcVYXHqgAwk6gD4GRptOHVDBrjWhSVVB2DCxo0bi+oGdG7VqlWfVzcA0BkfH/9NdQP8nHDCCVvUDQCQI6sOQMfakR/bC+C5WXUAvMQ8NANg+ljwEp5UHYCo8Y48LE4dkCM+n8KSqgMwY/h+GSCGo/0k6gB4ieGixA14WJw6ICNWHQAvMVzrgnfBBRe8U92Azi1durStbgCgtXfv3qXqBviZN2/edeoGAMjD5FHeCEeqDgCgUyuVK4aTHkOTqgMAdDWrDoA33okhT4k6AF5SdUCOrDoAXvhs6h1OHQB/DEd3aHl/X2KMKYoz4CdVB2TAqgPgJVUHTNfkA/6iOAN+nDoAxjSbzeXqBnRuwYIFm9UNALQajcZx6gb4KRaLX1A3AEBOrDoAXnjhBfS2RB0AL+z2D+AZseAlWE4dgKhZdQA6llZbzbY6Ig+Ti+iL4gz4ceoAzIzJ605dnAFPDEd3zqoD4KW9vjGWqiMykKgD4CWGF2RWHQA/PODvDjt37nyNugGdKRQKpq+vL4brNYBp2LJlS1ndgM719fU9cs455zTUHQCQE04NC4tTBwCQ4podFqcOANDVEnUAvNVjHYaEXq1UtuoGeHHqgBwl6gD4YV6j56TqAHipMBzduSXqAHhx6oDpGh7ot+oGeHPqgAzwgD8sTh2ACbt372bILhDFYtH09/f/tboDgM66detOUjfAz8DAwH3qBgDIUaIOQOeqraZTNwCQStQB8MLJYQCeDe/DwuPUAYiaVQfAS8z3eXw+hcWpAzDjYr7+xIjhaA9WHQAvMVyMrDoAXupDo422OiIDiToAXtj9tguMjIz81s6dOwvqDnTmuOOO+/ng4OAudQcAnb17975pfHxcnYEOFQoFc8wxx9yh7gCAPHCUd3BSdQAAOasOgBenDgDQ1aw6AN5ieP+P7sVmiWFx6oAcWXUAvDCv0XucOgB+GI7uwPL+vorhRUVonDogA6wIC4tTB0xXrVQuGoajQ+PUATBm+/btH2q32+oMdKhcLu9UNwDQ2rZt2+9w3Q5HsVg0xx133FfUHQCQE6sOgBenDgCgw1Hr4WG3fwDPIVEHwJtTByBqVh2AjtWrrWZdHZGHyXmNijgDfpw6ADOurg6AH4ajO5OoA+BnfWPMqRsykKgD4CWGFWFWHQBvqToAxjQajVexA2k45s2b59QNALS2bNlyMtftcBQKBXPYYYf9s7oDAHLCzlRhYac6oLdZdQC8OHUAgO7FgpcwVVvNVN2AONVK5cQYUxRnoHOpOiBHVh0Ab6k6ADMr1sUZMWM4ujPs4BsWpw6YruGB/sRwAx6aVB2QgUQdAC9ptdVsqyNgzN13371I3YDOlUqlL6sbAGi1Wq1Z6gZ0bs6cOeOnn376HnUHAOTEqgPgxakDAEixoCUsqToAQFez6gB4c+oARC1RB8BLDJvWPZNEHQAvzGv0rro6AJ1jOLozVh0AL6k6IANWHQAv7aHRRqqOyAALQcLi1AEwZmRkZN7WrVsPUXegM7Nnz3505cqVt6k7AOiMjIzMGxsbO0jdgc4dffTRu9UNAJCHyaNSE3EGOhftsb0AOmbVAfAS89AMgOnjfVh4uK4jT1wTwuLUATni92JYnDoAMnV1ADrHcPRzWN7fVzS8qAhNDF+O2IUiLE4dkBGrDoAXjvPtAg899NBb1A3o3OLFi5vqBgBaXLfD09fX92N1AwDkJFEHwEuqDgCgw1HrQXLqAABdLVEHwJtTByBqVh2AzlVbzVTdkCOrDoAX5jWA7ucYjn5uiToA3pw6IANWHQAvwd/01Eplq26AN6cOgDH33XffO9UN6EyhUDDHH3/8jeoOAFpct8Nz5JFHfkvdAAA5seoAeIlhMwYAU5eoA+CF460BPCMWvAQrVQcgTpOnOlXEGeicUwfkhXmNIDl1AGR4ThgQhqOfm1UHwEt9fWOsrY6YjuGB/orhBjw0Th2QgUQdAC8c59sltm/ffrK6AZ0pFoumUql8V90BQOv++++fr26An0MOOeSf1Q0AkBOOSg2LUwcAkOKaHZZUHQCgq1l1ALyx6AV5suoAeIl5IDFRB8AL8xpAIBiOfm489AqLUwdkIFEHwM/QaMOpGzLAtS4sqToAE7Zs2VJWN6AzhULBnH322V9UdwDQajQaFXUDOtfX1/fI4ODgLnUHAOTEqgPQuciP7QXw3Kw6AF5iHpoBMH28DwtPqg5A1LgmhCVVB+SI34thSdUBADrDcPRzs+oAeInhoRc3PWFx6oCMWHUAvMRwrQveFVdc8WZ1Azq3aNGie9UNAPR27NjxUnUDOjcwMHCfugEA8jB5lDfC4dQBAHQ4aj1ITh0AoKsl6gB4450Y8pSoA+DFqQNyZNUB8MJnExAIhqOfxfL+vkTdAG+pOiADVh0AL6k6YLpqpXLFGFMUZ8CPUwfAmN27d79vfHxcnYEOVSqVjeoGAFoXXnjhh7huh6NQKJjjjz/+RnUHAOTEqgPghRdeQG+z6gB4aXO8NYBnMvk+rCLOgL9UHYCoWXUAOpZWW822OiIPzGsEKVUHAOgMw9HPzqoD4KW9vjGWqiMykKgD4CWGF2RWHQA/HOfbHdI0fWO73VZnoENz5sz5N3UDAK2xsbHf4rodjmKxaCqVynfVHQCQkyXqAHhx6gAAUpz0GBanDgDQ1aw6AN7avBNDXmqlslU3wEuqDsiRVQfAT7XVdOoGSKXqAHSO4ehnx0OvsDh1wHQND/RbdQO8OXVABrjWhcWpAzBh8+bNR7EDaTiKxeI16gYAWo1G41Vct8NRKBTM2Wef/UV1BwDkxKoD4CVVBwCQStQB8BLDZiYA8sMixfA4dQCilqgD4CXm+zzmNcLi1AGQa6sD0LE6w9HPLlEHwMtmdUAGrDoAXupDo422OiIDiToAXmL+4heMtWvXnjw2NnaQugOdWbRo0UODg4O71B0AtHbt2jWgbkDn5syZwyQ7gChxlHdwoj22F0DHrDoAXlJ1AICuZtUB8BbD+390LwZSw+LUATlK1AHwwrwGKuoAdGwHw9HPYHl/X8Xwmzk0Th2QAW7Aw+LUAdNVK5WLhpvt0Dh1AIz5+c9//t/VDehMoVAwJ5xwwqi6A4Dexo0bi+oGdK5UKrXVDQCQk0QdAC+pOgCADketh4fjrQE8E96HBcupAxA1qw5Ax9rVVrOujsgDn09BStUBkKuoA9A5hqOfmVUHwM/6xphTN2TAqgPgJYYVYVYdAG+pOgDGjI2NvUXdgM4Ui0Vz4oknfkfdAUBr7dq1J6sb4Ke/v/8udQMA5ISF8WGJ4dkPgKmz6gB4ceoAAF0tUQfAH4tekJfJU52K4gx0zqkDcmTVAfDm1AEAOsdw9DNbog6AF6cOmK7hgf5E3QBvqTogA7yUDQvH+XaJ7du3n6huQGcKhYIplUp/p+4AoMWO/+F50Yte1FY3AEBOrDoAXpw6AIAU74nCwoIWAM/GqgPgLVUHIGpWHQAvMd/nJeoAeGFeAwhLneHoZ2bVAfCSqgMyYNUB8NIeGm2k6ogMJOoAeHHqAEzYsWPHS9UN6MysWbN+vWLFik3qDgBa995772vVDfBz0EEH/UzdAAA5SdQB6Fi0x/YC6JhVB8BLqg4A0NXYLCg8Th2AqHFNCEuqDsgRvxfDkqoDAHhhOPrpLO/vKxpeVIQmhpVi3PSExakDMmLVAfCyWR0AYy688MIPjY+PqzPQoUWLFu1QNwDQq9frS9UN8POSl7zk39QNAJC1Wqls1Q3w4tQBAHRqpXJiOGo9NE4dAKCrWXUAvPFODHlK1AHoXLXVdOqGHFl1ALzEMJsG9BSGo59eog6AN6cOyECiDoCX4L+Q81I2SE4dAGPuuuuu32u32+oMdGhgYOAmdQMAvQceeIAd/wEA3cCqA+CFF15Ab0vUAfDC8dYAntHkgheEx6kDEKdaqVw03OuFxKkD8sK8RpCcOgBdgc1Pw9FmOPrpWXUAvNTXN8ba6ojpGB7orxhjKuIM+HHqgAxYdQC81DnOtzts2bLlZHaODkexWLxR3QBAa2RkZN7OnTsL6g4AAAwPzkOTqgMASHHNDkuqDgDQ1aw6AN54J4Y8WXUAvMS8cDlRB8BLm88mICzVVjNlOPrp8dArLE4dkAGrDoCfodGGUzdkYIk6AF5SdQAmbNu2bba6AZ1btWrV59UNALT27NmzjB3/AQBdIlEHoHORH9sL4LlZdQC8xDw0A2D6ePcfnlQdgKgl6gB4SdUBOeLzKSxOHYCuUVEHoHMMRz89qw6AlxgeejGkGhanDsiIVQfASwzXuuBdcMEF79y3b9/z1B3ozNKlS9vqBgB6e/bseSM7/gMA1CaP8i6KM9A5pw4AoDN51HpFnAE/Th0AoKtZdQC88U4MeWIgNSxOHZCjRB0AL3w24YCKOgAdqRvDcPRTLO/vS9QN8JaqAzJg1QHwkqoDpouXskFy6gAY02w2l6sb0LkFCxZsVjcA0PvVr351qLoBAADDs5/QpOoAAFJWHQAvHG8N4BnVSuWK4X1YiFJ1AKJm1QHoWL3aarbVEXmY/HyqiDPgJ1UHQG/yv12EoW4Mw9FPx6oD4KW9vjGWqiOmY3igv2hYERaaGFaEJeoA+Km2mqm6Aca0Wq3F6gZ0plAomL6+vhiu1wCm6ac//SmntATokUceOVLdAAAZ4/MoLHyXAHobuwmGxakDAHQ1qw6Av2qr6dQNiFOtVLbqBnhx6oAcWXUA/PDZhEkVdQD8MBz9VDz0CotTB2QgUQfAm1MHZIBrXVicOgATRkdHj1U3oDPFYtH09/f/tboDgF6r1ZqlboC/Bx988JXqBgDImFUHwItTBwCQStQB8MKCFgDPhvdh4XHqAEQtUQfAS8z3eSyiD4tTB6BrJOoAdOwGYxiOfjqJOgBeNqsDMmDVAfBSHxpttNURGbDqAHiJ+YtfMEZGRn5r586dBXUHOnPcccf9fHBwcJe6A4De2NjYQeoG+PvlL39ZVDcAQFZqpXLRsKtISKI9thdAx6w6AF5SdQCArpaoA+AtVQcgaiyYCEuqDsiRVQfAS6oOQNeYrw6AH4ajH2d5f1/F8KIiNE4dkAFuwMPi1AHTxUvZIDl1AIxpNBrvaLfb6gx0qFwu71Q3ANBbu3btyeoGTE2j0ThO3QAAGbLqAHhx6gAAOhy1Hh6OtwbwTCbfhyXiDPhjwyDkyaoD0LF2tdVM1RF54PMpSHw24YBEHYCOOWMYjn4yqw6An/WNMaduyIBVB8BLDDc9Vh0Ab6k6AMZs3779HePj4+oMdGjevHlO3QBA71e/+hVH0wVqdHT0SHUDAGSIhfFhieHZD4Cps+oAeHHqAABdzaoDMCVOHYA41UrlijGmKM5A55w6IEeJOgDenDoAXcOqA+CH4egn4sV5WJw6YLqGB/oTdQO8peqADPBSNiwpx/l2h7vvvnuRugGdK5VKX1Y3ANB78MEHX6tuwNTs37//BVdcccWb1R0AkJFEHQAvqToAgBTvicLCghYAzyZRB8BbnXdiyJFVB8DLZnVAjqw6AF74bIIxxphaqZyoG9C5A6dMMRz9RFYdAC+pOiADVh0AL+2h0UaqjshAog6AF6cOwIStW7ceom5AZ2bPnv3oypUrb1N3ANB75JFHDlU3YGrGx8fN7t2736fuAICMWHUAOhbtsb0AOmbVAfCSqgMAdDU2CwqPUwcgalwTwuLUATni92JYnDoAXSNRB8Afw9GTlvf3FQ2/iUMTw44A3PSExakDMmLVAfAS86rYYKxevfo0dQM6t3jx4qa6AUB3+OUvf9mnbsDUtNttc/311zMcDSB4tVLZqhvgxakDAOhM7gJVFGfAj1MHAOhqVh0Ab7wTQ54SdQA6d2DHz0hZdQC8xDCbhmww4xcOd+BPGI5+TKIOgDenDshAog6Al+C/kPNSNkhOHQBj7rvvvneqG9C5+fPn36puANAdHnjggbK6AVMzPj5ubr755pece+65r1K3AMA0WXUAvAT/7AfAtCTqAHhJOd4awDPhfViwnDoAcaqVykXDvV5InDogL5MLMhGWVB2ArmHVAehY/cCfMBz9GKsOgJf6+sZYWx0xHcMD/RVjTEWcAT9OHZABqw6Al3q11ayrI2DM2NjYCeoGdO7QQw9lBS8AY4wxv/jFL16gbsD07Nq16zx1AwBM0xJ1ALw4dQAAKXaBCkuqDgDQ1RJ1APxVW81U3YBoJeoAeEnVATmy6gB4afPZBGOMqZXKFcOMX0h2HPgThqMfw0OvsDh1QAasOgB+hkYbTt2QAV7KhiVVB2DC1q1b56sb0JlCoWAuu+yyz6o7AHSHLVu2sHN04JxzvzsyMjJP3QEA02DVAehc5Mf2AnhuiToAXlgcD+DZ8O4/PE4dgKhZdQC8xHyfx+dTWJw6AF1jmToAXtIDf8Jw9GOsOgBeYrgZYkg1LE4dkBGrDoCXGK51wbviiivevH//fnYeDcRrXvOa+9QNAIDsjI2NPf/222+/Wt0BAFMxeVRqUZyBzqXqAAA6HLUeJKcOANDVrDoA3ngnhjwxkBoWpw7IUaIOgJfN6gB0DT5HwlI/8CcMRxtjlvf3JeoGeEvVARmw6gB4SdUB08VL2SA5dQCMue+++/7b+Pi4OgMdWrBgwY/UDQC6w8jIyDyu3+EbHx8311xzze+ec845/0PdAgBTkKgD4MWpAwBIWXUAvNSrrWZdHQGgO00ee14UZ8CfUwcgalYdgI7Vq61mWx2Rh8nPp4o4A36cOgB6k4upl4kz4KHaaqYH/pzh6AlWHQAv7fWNsVQdMR3DA/1Fwwuy0MSwWjlRB8DP4z+wobNly5a3ttttdQY6VCwWb1E3AOgOe/bsWcb1Ox61Wu2ayy677Ch1BwB4YkeRsMTw7AfA1CXqAHhJ1QEAuppVB2BKUnUA4jS5gRjC4dQBOUrUAfBTbTWdugFdYZk6AF7Sx/+A4egJvKgIi1MHZCBRB8CbUwdkgGtdWJw6ABNuvfXWhew8Go4jjzzy8+oGAN1hfHz8N7h+x+MnP/nJSzZv3vxP6g4A8GTVAfCSqgMASPHsNCwsaAHwbLimhyeNdadYdAWrDoCXzeqAHPH5FBanDkDXeJc6AF7Sx/+A4egJiToAXmK4GbLqAHipD4022uqIDFh1ALzwgL8LjIyMzBsbGztI3YHOLFq06KGVK1eOqTsAANnbv3+/+cY3vnHSKaeckqpbAKATk8ctVsQZ6Fy92mrW1REApKw6AF6cOgBAV7PqAHhL1QGIGgOpYXHqgBxZdQC8pOoA6NVK5Yph5+jQ7Hj8D3p+OHp5f1/F8KIiNE4dkAFuwMPi1AHTxUvZIDl1AIxpt9unqBvQmUKhYE444YRRdQeA7vGf//mfJXUDsvPwww+bBx54wHzrW99actppp/1I3QMAHbDqAHhx6gAAOrVS2aob4KfaaqbqBgDdifdhwWLDIOQpUQegY+3I7/MSdQC88NkEYxiMDpF7/A96fjja8KIiOOsbY07dkAGrDoCXGG56rDoA3lJ1AIwZGxt7i7oBnSkWi+bEE0/8jroDQPfYu3fvq9UNyN6BHaR///d/f9tVV101V90DAM+ChfFhieGkOgBTl6gD4MWpAwB0NasOwJSk6gDEaXLHz4o4A51L1QF5YUFmkFJ1ALrCn6oD4C19/A8YjjZmiToAXpw6YLqGB/oTdQO8peqADPBSNixptdVsqyNgzO7du1+mbkBnCoWCKZVKf6fuAADk68AO0t/97nePufbaa7d95jOfOVXdBADPIFEHwItTBwCQ4tlpWGLYzARAfrimhyf2nWKhZdUB8BLzfZ5VB8BLvdpq1tUR0Jpc1FARZ8BP/cmzVgxH8wEUmlQdkAGrDoCX9tBoI1VHZCBRB8CLUwdgwtatW+eoG9CZWbNm/XrFihWb1B0AgJmxf/9+c9ttt73o4osv/uLy5cvvWLt27cnqJgB4EqsOQMcYxgBg1QHw4tQBALpaog6AN6cOQNTYLDEsTh2QIxbvhMWpA9AV2DU6POmT/0JPD0cv7+8rGr4ghSaGlWLc9ITFqQMyYtUB8MJxvl3gwgsv/ND4+Lg6Ax1atGjRDnUDAGDmHNhBevfu3Wb9+vUnrF279rYzzjjjtnXr1p2kbgMAjkoNTqoOAKAzedR6UZwBP6k6AEBXs+oAeOOdGPJk1QHoXLXVdOqGHCXqAHjhs6nHTT4rWCbOgL+nzJUepKjoIok6AN6cOiADiToAXoK/6eGlbJCcOgDG3HXXXb/XbrfVGejQwMDATeoGAIBOu902X/3qV08uFAo/evOb33zv8ccf/9W+vr7hwcHBXeo2AD0pUQfASwybMQCYOqsOgJf0yUfkAsABvA8LllMHIE61Urlo+H4eklQdkJdaqZwYFmSGxqkDIHeuOgBTkj75L/T6cLRVB8BLfX1jrK2OmI7hgf6KMaYizoAfpw7IgFUHwEu92mrW1REwZvv27S9n5+hwFIvFG9UNAACd8fFx02w2jTHG1Ov1Odddd92fGGP+5G1ve9vOJEm+d9RRR33tIx/5yHXaSgA9hFPDwuLUAQCkuGaHxakDAHQ1qw6Av8h3ioVWog6AF6cOyJFVB8BLu9pqpuoI6EzuGn2KOANT8HT3lb0+HM1Dr7A4dUAGrDoAfoZGG07dkIEl6gB4SdUBmHD77beX1Q3o3KpVqz6vbgAAdJ/vf//7R2/cuPFDhULhQy9/+ct/PTAwcN8xxxzzw0MPPfTmgw466D4+PwDkxKoD4CVVBwCQStQB8BL8SY8AcsX7sPCk6gBEzaoD4CXmU534fApLqg6AHLtGh8k93V/s9eFoqw6AlxhuhrjpCYtTB2TEqgPgJYZrXfAuuOCCd37iE594nroDnVm6dGl748aN6gwAQBd6/I7SxpgX3HHHHWVjzDsm/zDGmM8ZM/FZYowxL3rRix4ql8t3P92/q1wub8g1NgeFQuE/DzvssIeKxeKmFStWbFL3AL1gcmeRojgDnUurrWZbHQFAg6PWg+TUAQC6mlUHwJtTByBqbJYYllQdkCOrDoAX5jV6GLtGB+1p/9vt2eHo5f19iboB3lJ1QAasOgBeUnXAdNVK5cTwUjY0Th0AY+6///7fVTegcwsWLNjMcDQAYDo2btxYnPzTojFm7jP8tOBeqBQKBVMsFk2hUDCVSuUJPy6Xy3sPPvjghw783Dlz5vzfD9NDDz30n4wx5oUvfOHmM88884eKdiBgVh0AL04dAEDKqgPgpV5tNevqCADdifdhweJEAOTJqgPQsWjv8yYHLSviDPhx6gBIXawOwJS5p/uLPTscbbgRCk17fWMsVUdMx/BAf9GwC0VoYlgRlqgD4KfaaqbqBhiza9cuq25A5w4//PCb1Q0AAHSjJ+2c/WSHP+nHfY/783c9+Scf2F17wYIFm1/84hc/fNxxx33lpS996e6PfOQj12USC8QjuIUUPY5hDKC3JeoAeEnVAQC6WqIOwJQ4dQDiNLlgAuFw6oAcJeoA+Km2mk7dAI1aqWyNMcvEGZi69On+Yi8PR/OiIixOHZCBRB0Ab04dkAGudWFx6gBMGB0dPVbdgM4dfvjhf6VuAAAgdgd21964ceMbJneg/t0DO1L39/ePz5s3b2+pVLr7kEMO2fGSl7zk31atWvV5cTKgkqgD4MWpAwBI8ew0LDFsZgIgP1zTwxPtTrHoClYdAC8xL1zm8yksqToAUuwaHS5XbTXbT/c3enk4OlEHwEsMN0NWHQAv9aHRRlsdkQGrDoAXHvB3gZGRkXlr1qwpqDvQmUWLFj20evXqHeoOAAB6yZN3pK7X6wVjzLzJP4wx5hRjzOf6+voeGRgYuO+YY46547jjjvvKYYcd9s+nn376npkvBmZGrVQuGp45hoRhDABWHQAvH6yVyk854QToIh/nZEgpqw6At1QdgKgxkBoWpw7IkVUHwItTB0CjVip/zPBcN2TPOGvVk8PRy/v7KsaYijgDfpw6IAPcgIfFqQOma/KlbEWcAT9OHQBjGo3G/2632+oMdOjoo4/etXXrVnUGAAB4GmNjYweNjY3N/eEPfzj3wE7Tr3jFK8YXLlx499y5c9PDDz/860NDQ/+o7gQyZNUB8JKqAwDoTB6Xi7Ak6gDgOdTVAb2K92HBYsMg5ClRB6BzkS8uStQB8MJnUw+qlcoVY8y56g5Mi3umv9GTw9GGFxXBWd8Yc+qGDFh1ALzEcNNj1QHwlqoDYMzY2NgbxsfH1RnoUF9fXwzXawAAovb4nabr9XrhtttuW2yMWWyM+cDs2bMffd3rXtdIkuR7Rx111Nc+8pGPXCeNBaYnUQfAC98lgN6WqAMARCV9pmOcMSOsOgBTkqoDEKfJIbeKOAOdc+qAvLAgM0ipOgASVxtjiuoITFm72mq6Z/qbvTocvUQdAC9OHTBdwwP9iboB3lJ1QAbYrTwsPDztEj/96U+5TwjIkUceeY26AUB3euELX/gzdQOA57Zv377nff/73z9648aNHyoUCh96+ctf/uskSX7c399//ZFHHrl2cHBwl7oR8MD38LCk6gAAUlyzAWTJqQN6HNf0AD3bEAswTVYdAC8xL1y26gB4qVdbzbo6AjOrVip/zPDfaujcs/3NXh2OtuoAeEnVARmw6gB4aQ+NNlJ1RAYSdQC8OHUAJmzcuLGobkDnvve97/3j0qVL1RnAM1qyZMk/fPGLXzxN3dGL5s6d+71CobCM0wCA7vf4naWNMS+44447Duws/bFFixY99IY3vOEfjzvuuM8MDg7+h64S6IhVB8DLubVSmSMz0c1uqLaa56kjImbVAQCislkd0OOsOgDenDoAUWMTpLA4dUCO+L0YllQdgJlVK5UTYwzPBsP3zWf7mz03HL28v69oGBgMTQwrxVixHBanDsiIVQfACw9Pu8Dq1atPW7VqlToDHhhmR7dbsoRnXyqHHXbYQ8Vi8fEDlwACtHXr1kPq9fr/LBaL//MNb3jDz48//vjvzJs375JzzjnnFnUb8HgclRokqw4AnsOzvtzB1E0etV4UZwCIi1MH9LhEHQBvqToAUbPqAHhJ1QE5suoAeIlhNg0dqpXKRWPM1YZnAzFwz/Y3e2442vDlKEROHZCBRB0AL8EPqfJSNkhOHQBj2u3269UNAOJRKBTMvHnzvqDu6FUvfvGLHykUCuoMABk4sLN0s9l86Q033PB7xpjfe9yO0oODg4O71I2A4dkPgOyl6oCIWXUAgKhwBLsQ78OCxQAa8pSoA9CxtNpqttUReZjckbYozoAfpw7AjLrY8HkRg/S5vov14nC0VQfAS319Y6ytjpiO4YH+ijGmIs6AH6cOyIBVB8ALD0+7xOjo6OvUDQDi0dfX91+f+tSnblZ39KozzjjjbyqVypfUHQDy8fgdpZctW1Y/9thjv7R27drz1F3oaZwaBiBT1VbTqRsixjUbQJZSdUCPs+oATIlTByBOLJgIjlMH5ChRB8BPtdVM1Q2YGbVS+WPGmFPEGcjGc74H7sXhaB56hcWpAzJg1QHwMzTacOqGDCxRB8BLqg7AhK1bt85XNwCIx8tf/vKd27ZtU2f0NHaOBuJ2YEfpDRs2VIwx5y5ZsmToLW95y3fmz5//qRUrVmxS96HnWHUAgKg4dUDkEnUAgKiwA64W7/7DU491p1h0BasOgJfgT/R+Fnw+hcWpAzAzaqXyMjOxazTi4J7rJzx/BiK6jVUHwEsMDxQYUg2LUwdkxKoD4CWGa13w1q1bd9L+/ftfoO4AEI+5c+feom7odQsWLPilugHAzLnrrrteeM0117z7oosu+tHy5cu3DA8Pv0PdhN5QK5UrhqNSAWSLZ0U5qZXKRcNwNIBsOXVAj0vUAfDm1AGIGgOpYXHqgBxZdQC88B28B9RK5cQYc7W6A5mpd7Lje0/tHL28vy9RN8Bbqg7IgFUHwEuqDpiuyQ/0ojgDfpw6AMa0Wq0/GB8fV2cAiMhhhx3GwxSxI4444gFjzIvUHQBmxoGdpI0xpl6vv/yGG2741oc//OHGkiVLzjnjjDP+RpyHuFl1AIDopOqAiFl1AIC4cAS7Du/DghXzTrHQS9QB6Fi92mrW1RF5mFyQWRFnwI9TByBfk/eNNcO9Y0w2dPKTem3naKsOgJf2+sZYqo6YjuGB/qLhBjw0MQwxJeoA+OHhaXfYsmXLW9vttjoDQERWr179V+qGXjdr1qyWugGATrvdNt/+9rf7R0ZGvvTmN7+5tXr16tPUTYgWp4YByJpTB0QsUQcAiIpTB/Q4qw7AlDh1AOLEgongpOqAHFl1ALyl6gDkh8HoaH2pk5/Ua8PRHKERFqcOyECiDoA3pw7IANe6sDh1ACb8+Mc/HmDnaABZWbp0aVvdAGNe9KIXjakbAOgc2Em6Xq+b6667bs5ll132uQ9/+MM7L7300g+o2xAdqw4AEJW02mq21RER49kpgCzFsOFOyFikGCA2DEKOrDoAXmL+DOU7R1j4Dh4xBqOjVe/0nrLXhqMTdQC8xHCkjlUHwEt9aLTRVkdkwKoD4CXmL37BGBkZmbd169ZD1B0A4rFgwYIY7mWD95KXvORWdQOA7sFO0sjD5FGpiTgDQFxSdUDkrDoAQFScOqDHWXUAvDl1AKLGgomwOHVAjhJ1ALw4dQDywWB01C7p9CcelGdFN1ne31cxxlTEGfDj1AEZYEVYWJw6YLomX8pWxBnw49QBMKbdbp+ibgAQj0KhYPr6+lj80gVe+MIX3qFuANA9DuwkbYwx9Xp9TpqmnzvjjDP+92/+5m+evmLFik3iPIQrUQcAiA7fJXJSK5WtugFAdFJ1QK+qlcoVw/uwEHGfgzxZdQA6F/ku8lYdAC9sdhQhBqOjt6HTn9hLO0dbdQD8rG+MOXVDBqw6AF5i+EJu1QHwlqoDYMy99977WnUDgHgUi0XT39//1+oOGDM0NPSP6gYA3avdbpuvfvWrJ19xxRU/PO20065T9yBYVh0AIDpOHRCxRB0AICocwa6VqAMwJU4dgDixYCI4Th2QFxZkBsmpA5CtWqm8zDAYHbO02mrWO/3JvTQczREaYXHqgOkaHuhP1A3wlqoDMsBu5WHh4WmXqNfrS9UNAOJx3HHH/XxwcHCXugMTli5d2lY3AOhOB3aSvuOOO17w+c9//k1LliwZv/DCCz+k7kJw+B4OIEttnxc88MY1G0CWnDqgx3FND1OqDkC0EnUAvMSwad0zseoAeKnzHTwutVL5Y8aYaw2D0TG7xOcn99JwtFUHwEuqDsiAVQfAS3totJGqIzKQqAPgxakDMGHr1q1z1A0A4lEul3eqG/CYww8//H51A4Aw3HXXXS+85JJLvvDhD39401VXXTVX3YNgWHUAgKg4dUDkrDoAQFQ4gl3LqgPgjQ2DkCcWTITFqQNyxMadYUnVAchGrVQu1krlq40xF6tbkKu2MWaDzz/QE8PRy/v7ioaBwdDEsFKMG/CwOHVARqw6AF54eNoFLrzwwg+Nj4+rMwBEZN68eU7dgMcMDAz8qFAoqDMABODATtLXXntt8vd///c7L7jggrPUTehutVI5UTcAiE4Mz8W70uRR60VxBoC4OHVAr6qVykXDu/8QpeoARM2qA+AlVQfkyKoD4IXv4BGYfEZbM8acoi3BDNjgu9iuJ4ajDV+OQuTUARlI1AHwEvyQaq1UtuoGeHPqABhTr9ff1G631RkAIlIqlb6sbsBjjjnmmC8Xi0V1BoCA7N+/39x+++0HXX755Re9//3v//eRkZF56iZ0LasOABCdVB0QMasOABAVjmDXStQBmBIG0JCnRB2AjkW7i/zkgGZRnAE/qToA01MrlU8xE4PRibYEM+RLvv9ArwxHW3UAvNTXN8ba6ojpGB7orxhjKuIM+HHqgAxYdQC88PC0S9x5552vZ+doAFmZPXv2oytXrrxN3YHHnHXWWf90xBFH/FrdASAcDz/8sHnggQfM7t27zZe//OVXf+1rX/vJmjVr3q7uQlfi1DAAmaq2mk7dEDGOtwaQpVQd0OOsOgBTkqoDECc2EAtOqg7IUaIOgB++g4erVioXa6XytcaYqw2LEnpFfSr/zfbKcDQvKsLi1AEZsOoA+BkabTh1QwZ4wB+WVB2ACbfffntZ3QAgHosXL26qG/BUfX19e9UNAMK1adOml/z1X//1N1euXHmxugVdJ1EHAIiKUwdEzqoDAESFHXC1ePcfnna11UzVEYiWVQfAS8yfoXw+hcWpAzA1tVJ5mTFm1BizTFuCGXb+VP6hXhmOtuoAeInhZogh1bA4dUBGrDoAXmK41gXvoosuesW+ffuep+4AEIdCoWCOP/74G9UdeKqFCxd+T90AIFzj4+Nm27Ztz//c5z73sdNOO+1H6h50h1qpXDGcGgYgWzwrykmtVC4aFrQAyFaqDuhxVh0Ab04dgKgxkBoWpw7IUaIOgBe+gwemVipXaqVyzRhzrWG36F7TNsZsmMo/GP1w9PL+vkTdAG+pOiADVh0AL6k6YLpqpXJi+PAPjVMHwJhWq/V+dQOAeBSLRVOpVL6r7sBTlcvl9eoGAOHbv3+/+cY3vnHSW9/61p9dddVVc9U9kLPqAADRSdUBEUvUAQDiwhHsOpPvwxCezeoARC1RB6Bj7WqrWVdH5IEFmUFK1QHoTK1ULtZK5fOMMZsMz2R71YZqq9meyj8Y/XC04T+K0LTXN8ZSdcR0DA/0Fw03PaGJYUVYog6AH44P6w7333//UnUDgHgUCgVz9tlnf1Hdgaf6xCc+8a3Zs2c/qu4AELaHH37YPPDAA+aWW24p/v3f//3Oyy677C3qJkhxahiArDl1QMSsOgBAVJw6oMdZdQCmxKkDECc2EAuOUwfkyKoD4M2pA/DcaqXyKWZiKPpcw/W+l50/1X+wF4ajOUIjLE4dkIFEHQBvTh2QAa51YXHqAEzYsWPHCeoGAPFYtGjRveoGPLNXvvKV29UNAOKwf/9+c/vttx/0f/7P//nWX/7lX56p7oGMVQcAiEo61R1w0BGenQLIUgwb7oSMa3qA2G0dObLqAHiJ+TM0UQfAC9/Bu1ytVD6lViqPGmOuNsZUxDnQ2jCdUwd6YTg6UQfASwxH6lh1ALzUh0YbbXVEBqw6AF5i/uIXjJGRkXl33XXXS9UdAOJRqVQ2qhvwzF72spf9a6FQUGcAiMCBHaTvvvvug9avX/+ZNWvWXKhugkSiDgAQlVQdEDmrDgAQlVQd0OMSdQC8peoARI1TncKSqgNyxOKdsKTqADxVrVQu1krljzEUjSe5ZDr/cNTD0cv7+yqG/1BC49QBGeCmJyxOHTBdtVK5aLjWhcapA2DMnj17lrXbbXUGgIjMmTPn39QNeGbHHHPM6mKxqM4AEJH9+/ebbdu2mb/9278dYkC6t9RKZatuABAdFtLnZPKodQDIklMH9KpaqVwxvA8LkVMHIGpWHYDORb6LvFUHwAvfwbtIrVROaqXy1caYUWPMxYb7PTzGTfezI+rhaMOHT3DWN8acuiEDVh0ALzHc9Fh1ALyl6gAYU6/X3zc+Pq7OABCRYrF4jboBz2xwcHDXq171qrq6A0A8DuwgPTY2Zr7+9a8PfeITn/h3dRNmjFUHAIiOUwdEzKoDAESFI9i1rDoAUxLDydHoQmwgFhynDsgLi+iD5NQBva5WKlcmd4neZIzZZIw5xRhTlEahG31puv+Cg7Ko6GIcoREWpw6YruGB/kTdAG+pOiAD7FYeFh6edomf/vSn3CcAyMyiRYseGhwc3KXuwLM7+uijv22M+Yi6A0BcDuwgPT4+/upPfOIT/37BBRe8Rt2E3PE9HECW2tVWs66OiBjXbABZStUBPY5n+mFy6gBEy6oD4CWGTeueSaIOgBe+g4tMngKyzBjzQcN/N3hu9Wqrec10/yXsHI1ukqoDMmDVAfDSHhptpOqIDCTqAHhx6gBM2LhxY1HdACAOhULBnHDCCaPqDjy3SqVy4bHHHvtfhUJBnQIgIo/fQfp73/veq9lBuick6gAAUXHqgMgl6gAAUYl5sCsEVh0Ab3UG0JAjFsGFJVUH5Ijfi2Fx6oBeMbk79Cm1UvnqWqk8aowZNcZcbPiejs6cn8W/JNrh6OX9fUXDf0yhieGBAjc9YXHqgIxYdQC8cHxYFxgeHn6HugFAPIrFojnxxBO/o+7AcxscHNz11re+dWOxWFSnAIjQgR2k/+mf/okB6YjVSuXEcMQjgGzF8Fy8K03uSlURZwCIi1MH9KpaqVw0vPsPUaoOQNQSdQC8OHVAjqw6AF74Dp6DyUFoWyuVz6uVytc+bhj6amPMKYbv5vCTya7RxhhzUBb/ki6VqAPgzakDMpCoA+Al+CHVWqls1Q3w5tQBMGbv3r3vVTcAiEehUDClUunv1B3ozLHHHnt5oVD4kroDQHwO7CBtjDHf+973Xn3BBRf81Sc+8Yn/V5yF7Fl1AIDopOqAiFl1AICocAS7VqIOwJQwgIY8WXUAOpZWW822OiIPkwsyi+IM+EnVASF60oYRdvJ/3/CkHwNZyWTXaGPiHo626gB4qa9vjLXVEdMxPNBfMax0CY1TB2TAqgPghePDusTo6Ojr1A0A4jFr1qxfr1ixYpO6A50544wz/uYVr3jFVfV6vaBuARCnAztIf+UrXzl9zZo1PzvrrLPOVjchU0vUAQDiUm01nbohYlyzAWTJqQN6nFUHYEpSdQDixAZiwUnVATmy6gB4O7dWKp+rjgiAVQegZ2W2a7QxcQ9Hv+G5fwq6iFMHZMCqA+BnaLTh1A0Z4AF/WFJ1ACbs3LnzKHUDgHgsWrRoxx133KHOgIdXvepV37jtttv+QN0BIE6P30H661//+tCaNWsMA9JRseoAAFFx6oDIWXUAgKiwA64W7/4DxCIw5MiqA+Al5s9QPp/CY9UBAJ5VZrtGG2PM87P8l3UZqw6AlxhuhhhSDYtTB2TEqgPgJYZrXfDWrVt30r333stuoQAyMzAwcJO6AX4qlcpZs2fPflTdASBuB3aQ/sY3vnHmZZdd9hZ1D6Zv8qjUijgDQFx4VpSTWqlcNMYk4gwAcUnVAT3OqgPgzakDEDVmM8KSqgNylKgDACAime4abUykw9HL+/sSdQO8peqADFh1ALyk6oDpqpXKiTGmKM6AH6cOgDGtVusPxsfH1RkAIlIsFm9UN8DP4ODgrje+8Y0/KRRYKwMgPwd2kL777rsP+od/+IdvXXXVVXPVTZi2RB0AIDqpOiBiiToAQFzYAVenVipbdQOmJFUHIGpWHYCOtautZqqOyAMLMgEgc6dm/S+McjjacCMUmvb6xliqjpiO4YH+ouGmJzQx7MqSqAPgJ9YvfqG56667Xt9ut9UZACKyatWqz6sb4O+1r33tB4vFojoDQA/Yv3+/uf322w/65je/eScD0sHjqFQAWXPqgIhZdQCAqDh1QI9L1AGYkhjexaILsYFYcJw6IEeJOgAAIuLyWJAa63A0LyrC4tQBGUjUAfDm1AEZ4FoXFqcOwIRNmzYtZudoAFlZunRpW92AqRkcHPyPN7zhDXeoOwDE78AO0rfcckvxhz/84bfVPZgWqw4AEJW02mq21RER49kpgCwx5KnFNT1MTh2AaCXqAHjZrA7IkVUHAEBEzs/jXxrrcHSiDoCXGG6GrDoAXupDo422OiIDVh0ALzw87QIjIyPztm7deoi6A0A8FixYEMO9bM9atGjRH6kbAPSO/fv3m2984xsnrVy58mJ1C6YsUQcAiEqqDoicVQcAiEqqDuhxVh0Ab3UWgSFHLJgIi1MH5IjfiwCQjWvy2DXamAiHo5f391WMMRVxBvw4dUAGuOkJi1MHTFetVC4arnWhceoAGPPggw++Vd0AIC6HH374zeoGTN35559/y3ve8547C4WCOgVADziwg/SXvvSlj61Zs+bt6h74qZXKVt0AIDospM/J5FHrAJAlpw7oVbVSuWKMKYoz4M+pAxA1qw5A5/IadusSVh0AABFom5x2jTYmwuFow4dPcNY3xpy6IQNWHQAvMbx4sOoAeEvVATBmz54971Y3AIjL4Ycf/lfqBkzPa1/72g8Wi0V1BoAe0m63zbXXXvt3IyMj89Qt8GLVAQCi49QBEbPqAABRSdkBV8qqAzAlnLaHXLCBWHCcOiAvLMgEgMxcUm0163n9y2Mcjl6iDoAXpw6YruGB/kTdAG+pOiAD7FYeFh6edol6vb5U3QAgHosXL/7l6tWrd6g7MD2Dg4P/8ba3vS097LDDzMEHH6zOAdADxsfHzc033/ySTZs2fU3dAi98DweQpXaeL37ANRtAplJ1QI/jmh4mpw5AtKw6AF5SdUCOrDoAACJQr7aa5+X5C8Q4HG3VAfCSqgMyYNUB8NIeGm2k6ogMJOoAeHHqAEwYGxs7XN0AIB4ve9nL6uoGZOMVr3jFWxcvXvzIrFmz1CkAesj3v//9V3/mM585Vd2BjiXqAABRceqAyCXqAABRieE00pAl6gD4q7aaqboB0WLBRFhi/gzl9yIATF/u70eiGo5e3t9XNHxBCk0MN0Pc9ITFqQMyYtUB8MLxYV1gzZo1b7///vtfoO4AEI958+bV1A3Ixumnn77nta997TcLhYI6BUAPGR8fN9///vcvv+qqq+aqW/DsJo9KLYozAMQlhufiXalWKlcMR60DyFaqDuhVtVK5aHj3HyKnDkDUEnUAvDh1QI4SdQAABG5DtdV0ef8iUQ1HGz58QuTUARlI1AHwEvyQaq1UtuoGeHPqABizffv297fbbXUGgIgceuihf6tuQHZWr1793qOOOupX6g4AvWP//v3mtttue9GmTZu+om7Bc0rUAQCik6oDImbVAQCi0mYHXCmrDsCUsAgMebLqAHSsXm012+qIPLAgEwCmrW2M+fhM/EKxDUdbdQC81Nc3xtrqiOkYHuivGG56QuPUARmw6gB4qVdbzbo6AsaMjo7+P+Pj4+oMAJGYPXv2o+eff/4t6g5k693vfveflMtlww7SAGbCww8/bB544AGzYcOG377wwgs/pO7Bs+LUMACZmomdcXrYEnUAgKg4dUCPS9QBmBKnDkCc2EAsOE4dkCOrDgCAwJ0/U3NUsQ1H86IiLE4dkAGrDoCfodGGUzdkgAf8YUnVAZhw5513VtQNAOKxePHiproB2Vu1atXn/8f/+B9bi8WiOgVAD2m32+Zb3/rWZ9UdeFZWHQAgKk4dEDmrDgAQleBPIw0c7/7DlKoDEC2rDoCXmHeRZ14DAKbOVVvNz87ULxbbcLRVB8BLDDdD3PSExakDMmLVAfASw7UueGvXrj15bGzsIHUHgDgUCgVz/PHH36juQD6WLFnyO0ccccSv1R0Aesf4+Li5+eabX3LGGWdcrm7BU9VK5aLh1DAA2eJZUU4mr9mJOANAXJw6oMdZdQC8pdVWs62OQLSYzQhLqg7IkVUHAEDAPj6Tv1g0w9HL+/sSdQO8peqADFh1ALyk6oDpqpXKiTGmKM6AH6cOgDG/+MUv3qhuABCPYrFoKpXKd9UdyMfpp5++581vfvOn1R0Aes/111///1511VVz1R14CqsOABCdVB0QsUQdACAu1VbTqRt6Va1UtuoGTEmqDkDUrDoAHWtXW81UHZEHFmQCwLScP9OfD9EMRxtuhELTXt8YS9UR0zE80F803PSEJoZdWRJ1APzE+sUvNK1W603qBgDxKBQK5uyzz/6iugP5Wbt27Xlve9vbdhYKBXUKgB5y//33v2B0dPQKdQeegqO8AWTNqQMiZtUBAKLi1AE9LlEHYEpieBeLLsQGYsFJ1QE5StQBABAoV201z5vpXzSm4WheVITFqQMykKgD4M2pAzLAtS4sTh2ACffcc0+ibgAQj0WLFt2rbkD+/tt/+2+vOe64436l7gDQO9rttvn617/+rpGRkXnqFjxBog4AEBWOms8Xz04BZClVB/Q4rulhStUBiFaiDoCXmBdKWHUAAASobYw5VfELxzQcnagD4GWzOiADVh0AL/Wh0UZbHZEBqw6Al5i/+AXlnnvuma1uABCPSqWyUd2A/A0ODu563/vet/ywww4zBx98sDoHQA8YHx8327Zte/6tt956nboFT2DVAQCikqoDImfVAQCiwvN9LasOgLc2p6kiRyyYCItTB+SI34sA4O/8aqtZV/zCUQxHL+/vqxhjKuIM+HHqgAxw0xMWpw6YrlqpXDRc60Lj1AEw5tJLL/2AugFAXObMmfNv6gbMjHPOOeebH/rQh/5m1qxZ6hQAPeTWW299+bp1605Sd8CYWqls1Q0AosOgXU4mj1oHgCw5dUCvmrymF8UZ8OfUAYhaog5A56qtplM35MiqAwAgMBuqreZnVb94FMPRhg+f4KxvjDl1QwasOgBeYnjxYNUB8JaqA2DM7t27l42Pj6szAESkWCxeo27AzFm7du0H3/nOd25mB2kAM2V8fNzs2LHjz9UdMMbwPRxA9pw6IGJWHQAgKvVqq9lWR/SwRB2AKYnh5Gh0ockNxBJxBjqXqgPywoJMAPBWN8acqgyIZTh6iToAXpw6YLqGB/oTdQO8peqADLBbeVhSHp52h9tuu+117XZbnQEgEosWLXpocHBwl7oDM+vVr371W377t3/7Z+wgDWAmtNtt8/Wvf/1dIyMj89Qt4JkjgEy1VUeI9gienQLIklMH9Diu6WFy6gBEy6oD4MWpA3Jk1QEAEJhT1XNTsQxHW3UAvKTqgAxYdQC8tIdGG6k6IgOJOgBenDoAEzZu3HgEO0cDyMrRRx/NYHQPOv300/e88Y1vfOPChQsfYQdpAHkbHx8327Zte/6dd975BXULeP4DIFNOHRC5RB0AICoxnEYaMqsOgL9qq+nUDYhWog6Al5g/Q1lEDwCdO78b7g+DH45e3t9XNNwMhSaGmyFWLIfFqQMyYtUB8MLxYV1geHj4Hfv27XueugNAPPr6+mK4l8UU/Mmf/MmP/vAP//Cdxx57rGEHaQAz4fbbb+fZg9DkUalFcQaAuPBdIie1UrlijKmIMwDEJVUH9KpaqVw0XNNDlKoDEDWej4QlVQfkyKoDACAQG6qt5nnqCGMiGI42DEaHyKkDMpCoA+Al+CHVWqls1Q3w5tQBMGbv3r3vVTcAiEehUDDz5s1jF88e9tGPfvSf3/ve9w739fUZdpAGkLedO3cWPv3pTw+pO3pYog4AEJ1UHRCxRB0AICrtaquZqiN6mFUHYEqcOgBRs+oAdKxebTXr6og8sCATADpWN8acqo44IIbhaKsOgJf6+sZYWx0xHcMD/RXDTU9onDogA1YdAC/RfvELzZ49exJ1A4B49PX1/denPvWpm9Ud0DrrrLPO/l//638Ns4M0gLy1221z8803r1B39DB2pgKQqW44SjRiXLMBZMmpA3oc1/QwBb9RFboTG4gFx6kDcpSoAwAgAG1jzLurrWZb3PF/xTAczReksDh1QAasOgB+hkYbTt2QgSXqAHhJ1QGYcPfddy9UNwCIx8tf/vKd6gZ0h7POOuvsN7/5zd9lB2kAeRofHzff/va3j77oooteoW7pUVYdACAqTh0QOasOABAVhjy1EnUApsSpAxCtRB0ALzF/hjKbBgDP7ePddgpPDMPRVh0ALzeoAzLAkGpYnDogI1YdAC8xXOuCt27dupPuvffegroDQDzmzp17i7oB3eMv/uIv3vz2t7/9ZnaQBpC3Xbt2/am6odfUSuWi4dQwANniWVG+EnUAgKg4dUCPs+oAeOM0VeSJgdSwOHVAjqw6AAC63GerreY16ognC3o4enl/X6JugLdUHZABqw6Al1QdMF21UjkxxhTFGfDj1AEwZu/evW8aHx9XZwCIyGGHHcZAA57gggsueM0b3/jGm9lBGkCeNm/e/HZ1Qw+y6gAA0UnVAbHiqHUAWau2mk7d0Ku4pgcrVQcgalYdgI61u2230Iwl6gAA6GIbqq3mx9URTyfo4WjDjVBo2usbY6k6YjqGB/qLhpue0MQwxJSoA+An8i9+wfjxj3+8rN1uqzMARGT16tV/pW5A97ngggteww7SAPK0Y8eOl15xxRVvVnf0mEQdACA6Th0QMasOABAVpw7ocVYdgCmJ4V0sulCtVK4YNhALSaoOyAuLdwDgWaXGmFPVEc8k9OFojtAIi1MHZCBRB8CbUwdkgGtdWJw6ABPuvvvu49g5GkBWli5d2lY3oHuxgzSAPI2Pj5tGo/G/1R09hu/hALKUVlvNtjoiYlyzAWQpVQf0uCXqAExJqg5AtKw6AF5iXihh1QEA0KXaxphqNz/3Cn04OlEHwMtmdUAGrDoAXupDo422OiIDVh0ALzF/8QvKxo0bi+oGAPFYsGBBDPeyyNEFF1zwmve+971fZQdpAFlrt9vmhhtueKO6o8dYdQCAqKTqgMgl6gAAUeH5vpZVB8BftdV06gZEi0VwYXHqgBzxexEAnqptunww2piAh6OX9/dVjDEVcQb8OHVABrjpCYtTB0xXrVQuGq51oXHqABhz/vnn/5G6AUA8CoWC6evr4+UYntMnP/nJ5e9973uH2UEaQJbGx8fNzTff/JKLLrroFeqWXsBRqQBywHeJnNRK5cRw1DqAbKXqgF7FNT1YTh2AqCXqAHhJ1QE5StQBANCFqtVWM1VHPJdgh6MNK0eDs74x5tQNGbDqAHiJ4cWDVQfAW6oOgDF79ux5t7oBQDyKxaLp7+//a3UHwnDWWWed/cEPfvD/W7x48SPsIA0gS61W6/3qhh6RqAMARMepAyJm1QEAolKvtpp1dUQPS9QBmJJUHYA4TW4glogz0Lm023cOnSoW7wDA0zo1hMFoY8Iejl6iDoAXpw6YruGB/kTdAG+pOiAD7FYelmi/+IWm2Wz+proBQDyOO+64nw8ODu5SdyAcf/Znf7b2Pe95zzsXLlz4CDtIA8jKT3/607erG3oE38MBZKnNoF2ueE8EIEtOHdDjuA8PUwwbVaE7WXUAvDh1QI6sOgAAusyp1VbzGnVEp0IejrbqAHhJ1QEZsOoAeGkPjTZSdUQGEnUAvDh1ACZs27atX90AIB7lcnmnugHh+ehHP/rPp5566tG//du//TN2kAaQBe5xZ4xVBwCIilMHRM6qAwBEZbM6oMdZdQCmxKkDEK1EHQAvMX+GsiATAB4T1GC0MYEORy/v7ysaboZCE8OqUVYsh8WpAzJi1QHwEvMXv2CsWbPm7ffff/8L1B0A4jFv3jynbkCYTj/99D0bNmw47J3vfOdmdpAGMF3333//C9asWcPu0TmqlcoVw1GpALIVw3PxrjR5za6IMwDExakDelWtVC4arukhqnOaKnLEbEZYnDogR1YdAABdIrjBaGMCHY42DEaHyKkDMpCoA+Al+CHVWqls1Q3w5tQBMGbHjh1vbbfb6gwAESmVSl9WNyBs11xzTfJHf/RHn507d+5/qVsAhKvdbpvt27e/X90ROasOABCdVB0QsUQdACAq7WqrmaojephVB2BKnDoAUbPqAHSsXm016+qIPLAgEwD+r4+HOBhtTLjD0VYdAC/19Y2xtjpiOoYH+iuGm57QOHVABqw6AF6i/eIXmnvuued3x8fH1RkAIjF79uxHV65ceZu6A+G76KKLPv5Hf/RH/+PVr371g4VCQZ0DIEDj4+NmdHT0/1F3RI6dqQBkqtpqOnVDxLhmA8hSqg7ocYk6AFMS/EZV6E5sIBacVB2Qo0QdAABd4Jpqq/lZdcRUhToczUOvsDh1QAasOgB+hkYbTt2QgSXqAHhJ1QGYcOedd1bUDQDisXjx4qa6AfE455xzvvm+973vN9/97nffqm4BECbudXOXqAMARMWpAyJn1QEAonKDOqDH8e4/TE4dgGgl6gB4ifkzlM8nAL3u1Gqreao6YjpCHY626gB4ieFmiCHVsDh1QEasOgBeYrjWBW9kZGTe2NjYQeoOAHEoFArm+OOPv1HdgbgMDg7u+vu///tXDQ0NfeQVr3jFeLlcNuwkDaBTY2NjB42MjMxTd8SoVioXDS9gAWSLZ0X5StQBAKLi1AE9zqoD4K1dbTVTdQSixUBqWJw6IEeJOgAAhE6ttprXqCOmK7jh6OX9fYm6Ad5SdUAGrDoAXlJ1wHTVSuXEGFMUZ8CPUwfAmAcffPAD6gYA8SgWi6ZSqXxX3YE4DQ8PX/nhD394wR/+4R9+v1gsqnMABOShhx56i7ohUlYdACA6qTogVhy1DiBr1VbTqRt61eT7MIQnVQcgaok6AJ2LfKGEVQcAgEgUg9HGGBPizopWHQAv7fWNsVQdMR3DA/1Fww14aGLYlSVRB8BP5F/8gtFqtd6kbgAQj0KhYM4+++wvqjsQr9NPP32PMeaNq1evPu3aa6+9fPfu3S8cHx83+/fvNw8//LA6D0CXevDBB19rjPm8uiNCiToAQHScOiBiVh0AICqpOqDHJeoATEkM72LRhWqlcsUYUxFnoHNOHZAXFmQC6GHRDEYbE+DO0YYjNELj1AEZSNQB8ObUARngWhcWpw7AhEajcZy6AUA8Fi1adK+6Ab1h1apVn/+P//iPwqmnnvoPixcvfmTWrFnqJABd7KGHHpqvbogU38MBZCmttpptdUTEuGYDyJJTB/S4JeoATIlTByBaVh0ALzEvlLDqAACYYW1jTDWmwWhjwhyOTtQB8LJZHZABqw6Al/rQaKOtjsiAVQfAS8xf/IKyZcuWsroBQDwqlcpGdQN6y+rVq9/7+7//+0e/+93vTsvlsikUCuokAF2o1WotVDdEyqoDAEQlVQdELlEHAIgKz/e1EnUApiRVByBaLJgIi1MH5IjfiwB6SdtMDEY7cUfmghqOXt7fVzEcoREapw7IALtQhMWpA6arVioXDde60Dh1AIy59NJLP6BuABCXOXPm/Ju6Ab3n9NNP3/OFL3zhpMHBwXe85jWvuU/dA6D77Nq163B1Q2xqpXKibgAQHQbtcjJ5zS6KMwDEJVUH9DirDoA3TshAnqw6AF5SdUCOrDoAAGZIaow5qdpqpuKOXBykDvBk1QHws74x5tQNGbDqAHiJ4cWDVQfAW6oOgDG7d+9eNj4+rs4AEJFisXiNugG966yzzvonY8ycoaGhP07T9Nw0Tee0223DZx2ARqPBtvLZs+oAANFx6oCIWXUAgKjUq61mXR3Rq1ikGKxUHYA4TW4glogz0LloF0qwIBNAD3HGmHfHej03JrCdow3HFoTGqQOma3igP1E3wFuqDsgAu5WHJdovfqHZsmXL0na7rc4AEIlFixY9NDg4uEvdAQwPD1953XXXlf70T//0w+wkDeCAdevWnaRuiAzfwwFkqc2gXa54TwQgS04d0OMSdQCmJIaNqtCdEnUAvDh1QI4SdQAAzIBrqq1mNfZ5p9CGo606AF5SdUAGrDoAXtpDo41UHZGBRB0AL04dgAk33XRTP7tpAshCoVAwJ5xwwqi6A3i8s88++4vXX3/9nKGhoY8sW7asXi6XTaHA5rFALxofHzftdpvh6Gwl6gAAUXHqgMhZdQCAqGxWB/Q4FryEyakDEC2rDoCXmD9DWUQPIHanVlvNU9URMyGY4ejl/X1Fw4uK0MSwapSbnrA4dUBGrDoAXmL+4heM4eHhd+zbt+956g4AcSgWi+bEE0/8jroDeDrDw8NXbtiwYeCss846+W1ve9uds2fPflTdBGBmtdttc++9985Xd8SiVipXjDEVcQaAuMTwXLwrcc0GkAOnDuhxiToA3jghA3liNiMsTh2QI6sOAICctI0xJ1VbzWvEHTPmIHWAh0QdAG9OHZCBRB0AL8EPqdZKZatugDenDoAx+/bt+x11A4B4FAoFUyqV/k7dATybwcHB/zDGnDAyMjJvbGxsaOPGjR/YsWPHSyd3lDWcpgDEa3x83IyNjfHCMDtWHQAgOqk6IGKJOgBAVNrVVjNVR/S4RB0Ab04dgKhZdQA6Fu1CiVqpXDQsyAQQp9QYU622mm1xx4wKaTjaqgPgpb6+MdZWR0zH8EB/xXDTExqnDsiAVQfASz3WL36haTQaDEcDyMysWbN+vWLFik3qDqATg4ODu4wxHzXGfPSKK65481133fUX3/nOd5Zu27YtmJOiAECMo7wBZKraajp1Q8RYHAQgS6k6oJdNngZQFGfAX/AbVaE71UrlRN0AL04dkCOrDgCAHHy22mp+XB2hENJwNA+9wuLUARmw6gD4GRptOHVDBngpG5ZUHYAJjUajom4AEI9FixbtuOOOO9QZgLePfOQj1xljrjPGmDPOOOPynTt3vu2WW26psJM0ADwrqw4AEBWnDoicVQfAy2eNMd9URwDPoq4O6HEVdQCmxKkDEC2rDoCXG9QBOWI2DUBM2saYU6ut5gZxh0xIw9FWHQAvMdwMMaQaFqcOyIhVB8BLDNe64F111VVzL7zwwpeqOwDEY2Bg4CZ1AzBdl1566Z8YY/5kZGRk3vbt21fdfvvty2688ca56i4A2Wg2mwvVDTGYPCo1EWcAiAvPivKVqAPg5UvVVjNVRwDoWlYdgClJ1QGIFgOpYUnVATlK1AEAkJHUGPPuaqtZF3dIBTEcvby/L1E3wJtTB2TAqgPgJVUHTNfkcUFFcQb8OHUAjLnvvvs+yG6YALJULBZvVDcAWRkcHNxljPnjyT/MJz/5yVU//elP/+fdd9+98N577y2Mj48bdpYGwvPLX/7yEHVDJBJ1AIDopOqAWNVKZatugB8GowE8h/nqAHirV1vNtjoC0UrUAehctdV06oYcWXUAAGTgs9VW8+PqiG4QxHC04cMnNO31jbG6OmI6hgf6i4Yb8NDEsCtLog6AHx7wd4dt27b9TrvdVmcAiMiqVas+r24A8vIXf/EXq40xq40xZt26dSeNjY39SZqmb7zpppv69+3b9zxxHgDMNKsOABAdpw6ImFUHwItTBwDoehV1ALyl6gDEqVYqVwzXhJA4dUBeWJAJIAJ1Y8ypkS9i8RLKcDRHaITFqQMykKgD4M2pAzLAtS4sTh2ACVu2bDmZ3S4BZGXp0qXtjRs3qjOAGbFixYpNxpgPH/jx8PDwO/bu3fve0dHR1+3cufModpYG0AP4Hg4gSym7KeaKa3ZYYtjMBEC+rDoA3jarAxAtqw6Al5jv8xJ1AABMwwYzMRjdFnd0lVCGoxN1ALzEcDNk1QHwUh8abbTVERmw6gB4ieFaF4WNGzcW1Q0A4rFgwYLNDEejVw0NDf2jMeYfD/x43bp1J+3du/dN27Zt+50tW7ac3Gq1Zo2NjYXyHAEAOmHVAQCikqoDIpeoA+AlVQf8/+3dfZRcdZ3v+68DYiGBFIRQFdJNqs0DGTFkMzE+u9ilg6MsdIL3OtE5VwVm0Mt1VNKHK5GHE7IU6GBWA3oYhqNHoufe48n1ODbOMI7otTbjzPiAGXYIchOStot0B6rkwR2C0jo43D+qMiCSpH7du+qzf7ver7WyQGR1v9eis1O167u/PwDZVSuVi+oGzEikDkBurVQHwEmsDugiHsgE4KPEWkPRY+KOTMr8h5prBwcqxhEavonVASngRY9fInXAbLVvBFXEGXATqQNgtnHjxos3bNigzgCQE4VCwQYGBnj4BWhrb5a+18xGDv6z0dHRhU8//fQ7Dhw48Mann356UbPZXLZv3755k5OTBTMzNk0D8EWtVA7UDQByh/cSXdK+ZhfFGXATqQMAZFqgDsCM1NUByK1QHQAnkTqgi0J1AAA4GjO2RR9W5oejjT98vLN1cipSN6QgVAfASR4+eAjVAXAWqwNg9vjjj4fqBgD5USwWbXBw8L+oO4AsGx4e3mdmX2j/+i233HLL25988slT6/X6Hz3xxBOlRqOx7Je//OWxv/jFL162c+fOY3tfCwCHFaoDAOROpA7IsVAdACcxH8wCOIJAHQB31Wajrm5A/rQXiAXiDHQut6/zaqVyxXggE4A/6tYaio7EHZnnw3A0R2j4JVIHzNbI0GCgboCzWB2QAraV+yW3b/x8s3fv3jeoGwD4r1AoWLFYtDe+8Y1PtAc/AczARz7ykb9v/+0XD/XvbN68efWvfvWrlWZmzzzzzPwDBw689vn/f5Iky3/9618f18XMrnjyySdPTJLk37tfuEGbjdpAJvE+HECaEgaGuorPifwSqwMAZF5RHQBnkToAuRWoA+AkVgd0UagOAIAObTSzm5hZ6owPw9GhOgBO2OCLXkvWT0zG6ogUBOoAOInUAWjZs2fPoLoBgP+KxaKtXLnSXv3qV9//ta99TZ0D5Npll112j5ndo+7opYMbtZ944oljp6enX9poNNaYmf3qV786Yd++fUNs1gZkAnUAgFyJ1AE5F6oD4CQPnxMB6C4eVPRPXR2A3ArVAXCS59d5/NkEIOsiM1tXbTZicYdXMj0cvXZwoGh8UOGbWB2QAl70+CVSB6QkVAfAyXZ1AMxGR0dffcMNNxyl7kBnjjnmGLvkkks+ffPNN1+tbgFeqNFoWKPRsG9961vqFAA59LyN2gfd9GL/3ujo6MKnn376HQcOHHjjk08+OTQ5OXn6xMTE/KeeeuooNk8D6WoflVoRZ8DNhdVmY4s6AkDvtY9ar4gz4CZWBwAAUveQOgC5xWyGXyJ1QBcF6gAAOITEWkPRW8QdXsr0cLTxh4+PInVACgJ1AJx4/3RirVQO1Q1wFqkDYDY+Pn5RkiTqDHRozpw5duqpp96m7gAAIKuGh4f3mdkX2r/+3a233npWs9n80x07dpz7wx/+cNnU1FTW7+UAPgjUAXAWqQMAyITqADhJ2GIFoAOhOgDOInUAcitQB6BjSbXZqKsjuqH9QGYgzgCAF7PRzG6qNhuJOsRXWf9ALVQHwEm8dXIqUUfMxsjQYMXYQuGbWB2QglAdACf1vL7x883u3bvPYXuiPxYtWvSryy+/fErdAQCAby655JJ7zexeM/s/zcw+/elPv27fvn0ff+CBB87dtWvXCWyUBmaEzVR+ye0HsAA6wjXbL5E6AEC2tQfQ4J9EHYD8qZXKgZkVxRnoXKQO6KJQHQAALzBmrW3RdXGH97I+HM1NL7/E6oAUhOoAuFk/MRmpG1KwUh0AJ5E6AC179+5dqG5A55YtW7bn3nvvVWcAAOC9q6666gdm9gMzs9HR0Vffd999133nO9+pslG6v7z85S9/Wt3guVAdACeROgCAVKAOgJPt6gAAmReoA+COUwHQJaE6AE68P9H7MAJ1AAC0RWa2sdpsROKO3Mj6B2ehOgBO8vBiiCFVv0TqgJSE6gA44QZ/BoyOji4cHh4+Vt2Bzi1cuLCmbgAAIG+Gh4d/bGZva//95/7hH/7h4ocffvhl09PT9tRTT9mvf/1rcSG6pVwuP6hu8FygDoCTPNxzBDBzoToATiJ1AIDMK6oD4CxRByC3mM3wS6wO6CIWdwJQq1trU/SYuCN3fk8dcChrBwcCdQOcReqAFITqADjx/sMxjgvyUqQOgNmBAwc+oG6Am5NPPvnb6gYAAPJsdHT0oz/+8Y8Ll1xyyWfOPPPMZ+bMmaNOAjKpViqH6gY4i9UBADS4ZvuH7VYAOhCoA+AsVgcgt0J1ADqX89d5oToAQN+qm9mF1WZjiMHo7sjscLTxh49vkq2TU3V1xGyMDA0WjTfkvonVASkI1AFwknB0WDb8/Oc/f726AZ2bO3fus1dcccU31B0AAPSDq6+++hPve9/7TvujP/qj8ZNOOsmOOeYYdRKQNaE6AG5y/gEsgMML1QFwEqkDAACAH2qlcsXMKuIMdC5SB3QLD2QCEKnbc0PRW8QtuZbl4WiOLfBLpA5IQaAOgLNIHZACrnV+idUBaBkfH1+tbkDnzjzzzIa6AQCAfvLhD3/4ka985StLLr744pvYIJ1Pxx9//B51g8d4H+6XSB0AQIqj1v0SqwMAeIHX4/7x/iRfZFKoDoCTPF8HAnUAgL5SN4aieyrLw9GBOgBO8vBiKFQHwEm8fmIyUUekIFQHwEkernW5sGPHjrK6AZ0rl8sPqhsAAOhHmzZtWrdu3brzFy1a9G9skM6X44477n51g8cCdQCc8D4c6G+hOgBOuGYDAIBO8aCEXyJ1QBfxswigFyIzO5+h6N7L5HD02sGBinGEhm9idUAKeNHjl1gdMFu1UrloXOt8E6kDYHbLLbe8Xd0AN+VyeUzdAABAv7r66qvHLr744ncvWLDg39QtgFqtVA7MrCjOgJtYHQBAg2u2l2J1AAAvVNQBcFZXByCXQnUAOldtNiJ1QxeF6gAAubbFzKrVZqNabTbGxC19KZPD0cYfPt7ZOjkVqRtSEKoD4CQPWyhCdQDc5PyNnzcefvjh90xPT6sz0KFCoWCf+9znblJ3AADQz6666qo73vOe9/znk046ydgg7b9CoWClUulr6g5PheoAOIvUAQBkAnUAnNSrzUZdHQHACxV1AJzV1QHIl/ZDcBVxBjoXqQO6pVYqV4wHMgGkLzGzm8xsqNpsXMickVZWh6NXqgPgJFIHzNbI0GCgboCzSB2QAraV+yVWB6AljuM/TJJEnYEOveENb3hU3QAAAMw2b9788fe+973/MGfOHHUKZqlYLNpVV101qe7wFPcc/RJXm41EHQFAhnunfonUAQAAwBuhOgBO8rC07lBCdQCAXInN7MJqs3FitdlYxwPE2XC0OuAQQnUAnOThxVCoDoCTZP3EZF0dkYJAHQAnkToALdu3bz+VzdH+GBgY2KNuAAAALb//+7//vkWLFv30iSeeeJm6BTN38skn/6bRaKgzfBWqA+AkVgcAkArVAXCyXR0AIPtqpXKobsCMJOoA5A4PwfklUgd0EQ/RA5itxMzGzOzmarMRS0vwojK3OXrt4EDRGBj0TawOSAEvwP0SqQNSEqoD4CQPD4J4b/Pmzaunpqay+nAXXsQpp5xyl7oBAAC0fPSjH334zW9+839Vd2B2BgYGHlc3+Kh9VGpFnAE3vA8H+lStVC4a12zfROoAAEB3MOiDLlijDkDnqs1GpG7oolAdAMBbY/bclugLeb2UXVkcLgrUAXAWqQNSEKgD4MT7D8d4Ot5LsToAZo8//vifqhvgZv78+V9QNwAAgOd89rOf/cjKlSv/bNeuXS/jNA4/zZkz5yl1g6cCdQCcxeoAADKhOgBu+CAYAAB0olYqr1E3wEmkDuiW9gOZgTgDgF9iM/uSmY1Vm426NgWdyuJwdKgOgJN46+RUoo6YjZGhwYqxhcI3sTogBaE6AE7qvLjJhmazuVrdgM4NDAw8c/nll0+pOwAAwG8777zz/u9ms3lRo9FQp2AGBgYGfqJu8BSnhvklYdAO6Gtcs/0SqQMAeCNUBwCQ43WeX+5QB3RRoA4A4IXYGIj2WhaHo3kx5JdYHZCCUB0AN+snJiN1QwpWqgPgJFIHoGV8fHyFugGdKRQK9trXvvbBqSlmowEAyJqBgYH/XCgULlJ3YGYKhcLj6gZPBeoAOInUAQCkAnUAnHh/0iMAAOiZNeoAOInUAV0UqgMAZFZsDETnxu+pA15EqA6Akzzc9GJI1S+ROiAloToATrarA2B22223LXjooYdOUHegM8Vi0VasWPF36g4AAPC7LrnkknsXLVr0pLoDM3P88cf/k7rBU6E6AE54Hw70t1AdACeROgAAAGRfrVSuGCd6+yTvJzqxuBPAQYmZjZnZhWZ2YrXZOKvabNzEYHQ+ZGpz9NrBgUDdAGeROiAFoToATrwfyK+VyoGZFcUZcBOpA2D2xBNPvGN6elqdgQ4VCgWbP3/+/6vuAAAAL27x4sU77r777jeqO+Du2GOP/aa6wTe1UjlUN8BZpA4AoME120uxOgCANxapA+Csrg5ArqxRB8DJmDqgy0J1AACp2MzuMLOo2mxE2hR0U6aGo40/fHyTbJ2cqqsjZmNkaLBoHNHnm1gdkIJAHQAneX8q1hu7du16b5Ik6gx0aM6cOb/5yEc+8vfqDgAA8OJKpdI9ZsZwtIeGh4f3qRs8FKoD4IYPJYC+FqoD4CSuNhuJOgKANyrqADirqwOQKx9UB8CJ90vrDqW9zA5Af4mttYzhbmsNRCfKGPRO1oajObbAL5E6IAWBOgDOInVACrjW+SVWB6Blx44dq9kc7Y/ly5c/dP/996szAADAIcyZM+cn6ga4W7VqVbJt2zZ1ho9WqgPgJFIHAJDimu2XWB0AAACyr1YqV4zZDN9E6oAuCtUBALousvYgtPFQb1/L2nB0oA6Akzw8KRaqA+AkXj8xmagjUhCqA+AkD9e6XNi2bVtR3YDODQwMMHAFAECGvexlL9uuboC7efPmPaZu8FSoDoCTWB0AQCpUB8AJ904BAEAnQnUAnMTVZqOujugiltkB+RJZ637idmtdv2JlDLIlM8PRawcHKsZROr6J1QEp4EWPX2J1wGzVSuWica3zTaQOgNl11133riuuuEKdAQfz58//hroBAAAc2mWXXXaPugFuCoWCnXrqqRPqDt+0j0otijPghkE7oE9xzfZSpA4AAHRVRR2A3PhjdQCcROqALgvUAQBmpN7+dXf7rwxC44gyMxxtPCnmna2TU5G6IQWhOgBO8vDhWKgOgJtqsxGpG2DWaDTWqhvg5sorr/yCugEAACBPisWinX766f9D3eGhQB0AZ5E6AIBMoA6AkyTnGwUBpC9UB8BZRR0A/7WXh60RZ8DNHeqAbqmVyhXj2gZkWWKtxZmJtTdBW+u9Z6QKgt+yNBy9Uh0AJ5E6YLZGhgYDdQOcReqAFLCt3C+xOgAte/fufYO6AZ1btWpVsm3bNnUGAABArhQKBTvppJO+qe7wEO/D/VKvNhuJOgKADNdsv0TqAAAA4IU16gA4yfsQYqgOAPpcbK3B57qZPWTPDUOzuBBdkaXh6FAdACds8EWvJesnJuvqiBQE6gA4idQBaHn44YfL6gZ0buHChRMMRwMAAKRrzpw5v/nwhz/8iLrDQ6E6AE4idQAAqVAdACfb1QEAAMALH1cHwEmkDugyFncCs1Nv/3qh2Mz2v+B/Jwf/nmUIUMnEcPTawYGiMTDom1gdkAK2UPglUgekJFQHwEkeHgTx3ujo6KtvuOGGgroDnSkUCrZ48eK/UXcAAADkzdDQ0KP333+/OsMr7aN7K+IMuOF9ONCnuGZ7KVIHAACAbKuVyhVjFsg3d6gDuixUB8DJTdVmY506AoC/fk8d0BaoA+AsUgekIFAHwIn3H47VSuVQ3QBnsToAZuPj4xclSaLOQIeKxaINDg4yHA0AAJCyxYsX36Nu8FCoDoCzWB0AQCZUB8ANRx4DAIAOrFEHwNmYOqDLAnUAnHg/JwRAKyvD0aE6AE7irZNTiTpiNkaGBivGFgrfxOqAFITqADipV5uNujoCZpOTk6+bnp5WZ6BDp5122vTw8PCP1R0AAAB5c+KJJ35f3eAhTg3zS1JtNmJ1BAAZrtl+idQBAIDeYPkTZunj6gA4iavNRqKO6BauZ16K1QEA/JaV4WhuevklVgekIFQHwM36iclI3ZCCleoAOInUAWh58MEHl6sb0LmhoaE96gYAAIA8Ou64476jbvBQoA6Ak0gdAEAqUAfASawOAAAA2VYrlQNjYZ1vvqQO6LJQHQAnLLMDMGtZGY4O1QFwkodjCxhS9UukDkhJqA6Ak+3qALTs3LnzWHUDOlcqle5TNwAAgCPbvHnzanUD3Fx22WX3qBs8FKoD4IT34UB/C9UBcJKHz4kAAJ0pqgPgLbZG+2dMHdBlLO70S6wOAOA/+XD02sGBQN0AZ5E6IAWhOgBOvL/R2n4ytijOgJtIHQCza6+99s/VDXBTLpe3qhsAAMCR/epXv+KhYY+sWrUqUTf4hqNSvRSpAwBocM32UqQOAAD0TKAOgH9qpXLRzNaIM+CmH7b0BuoAOPF+TgiAnnw42hhS9U2ydXKqro6YjZGhwaLxosc3sTogBYE6AE6SarMRqyNg9uijj75L3YDOzZ0799krrrjiG+oOAACAvFm4cOGEusFDoToAbqrNRqRuACATqgPgpF5tNhJ1BACgZ+aqA+ClNcbiMN+MqQO6iWV2XorUAQD8l4XhaI4t8EukDkhBoA6As0gdkAKudX6J1QFoGR8f57h3jyxZsmS/ugEAACCPTj755H9RN3iI7eh+idQBAKS4ZvslUgcAAHoqUAfASx9XB8DZl9QBXRaqA+CGZXYA0pCF4ehAHQAneTi2IFQHwEm8fmIyUUekIFQHwEkernW5MDExMV/dgM4UCgVbsWLFPeoOAADQmWeeeYbXWZ4oFAo2b968e9UdHgrVAXASqwMASIXqADjZrg4AAPRURR0Av7Q39AbiDLip98EgKg9k+iVSBwDIB+lw9NrBgYrxYto3sTogBWzw9UusDpitWqlcNK51vonUATC75ZZb3v7UU08dpe5AZ4rFop1++un/Q90BAAA6c+DAgdeqG9CZYrFon/nMZ25Rd/ikVipXjKNSfcNDykCf4nhrL0XqAABAT1XUAfAOW6P9M6YO6IFQHQAn3CcCkAr15uhQ/P3haOvkVKRuSEGoDoCTPLzoCdUBcFNtNiJ1A8wefvjh90xPT6sz0KFCoWCf/OQnv6juAAAAyJvTTz/9SXWDh0J1AJxF6gAAMoE6AE6SPtgqCAB4gfbDTMARtZeGXSDOgLsvqQO6qf0QfUWcATeROgBAPqiHozm2wC+ROmC2RoYGA3UDnEXqgBSwrdwvsToALTt37nxdkiTqDHRo0aJFDO0AAOCRX/7ylwPqBnSmXC7vVTd4iPfhfqlXm41EHQFAhmu2X2J1AABAIlAHwBuXqgPgrN4HD78F6gA4i9UBAPJBPRwdir8/3LDBF72WrJ+YrKsjUhCoA+AkUgeg5Yc//OEyNkf7Y/HixTvUDQAAoHNPPPFEWd2AzpRKpfvUDR4K1AFwEqkDAEgF6gA4ycPnRAAAdyy9Q6c+rg6AszF1QA/wQKZfYh6iB5AW2XD02sGBonHTyzexOiAFvOjxS6QOSEmoDoATbvBnwObNm1dPTU0dre5A5wYGBr6pbgAAAJ17/PHH56gb0Jl58+ZF6gaftI/wDcQZcMP7cKBPcc32UqQOAABIBOoAZF+tVL7AzIriDLj7kjqgB0J1AJxE6gAA+aHcHB0IvzdmJlIHpCBQB8CJ9x+O1UrlUN0AZ7E6AGZPPvnk29QNcHPCCSfcpW4AAACd271791x1Azpz/PHH/526wTOhOgDOYnUAAJlQHQBnsToAACARqgPghQ3qADirV5uNWB3RA4E6AE62qwMA5IdyODoUfm+4i7dOTiXqiNkYGRqsmFlFnAE3sTogBaE6AE7q1Wajro6A2dTU1DvUDejcwMDAM5dddtk96g4AANCZW2+99Sx1AzozMDDwzPDw8D51h2cCdQCcJH3yQSyAFxeoA+CE460BoI+xEAqH094aXRFnwN2YOqDbuHZ5KVIHAMgP5XD02cLvDXexOiAFoToAbtZPTEbqhhSsVAfASaQOQMv4+PgKdQM6UygU7LWvfe2D6g4AANC5JEnOmp6eVmegA0NDQ4+qGzzEPUe/ROoAAFJcs/0SqQMAeC9SB2BWQnUAMu2D6gDMyJfUAT0QqgPghGV2AFLF5mh06m51QAoYUvVLpA5ISagOgBOOaMmIhx566AR1AzpTLBZt+fLlP1B3AACAzu3ateu9SZKoM9CBcrnMQ2juQnUAnPA+HOhvoToATrhmA0B/+2N1ALKpvZk3FGfAXb1PTnLigUy/xOoAAPkiGY5eOzgQKL4vZiVSB6QgVAfAifcD+bVSOTCzojgDbiJ1AMyuv/76i9hk6I9CoWCnnnrqV9UdAACgc+Pj46/i9Vb2FQoFq1QqvM5ywFGpXorUAQA0uGZ7KVIHAACkglqpXFRHIJM2qAMwI/2wNdrMLFAHwIn3c0IAskW1OToUfV/MTLJ1cqqujpiNkaHBovGixzexOiAFgToATpI+eTo289hk6Jc5c+b85iMf+cjfqzsAAEDn7rvvvrK6AUdWLBZtwYIFP1R3eCZQB8BNtdmI1A0AZAJ1AJwkHG8NADCzNeoAZEutVL7AmP/x1RZ1QLexzM5LsToAQL6ohqM5tsAvkTogBYE6AM4idUAKuNb5JVYHoGXHjh2r2WToj6GhoUfVDQAAoHP/6T/9pyv379//EnUHjuzkk0/+zfDw8I/VHZ7hfbhfYnUAACmu2X6J1AEAciFWB2DW/lgdgMxha7Sf4j558C1QB8AND9EDSJtqODoQfV/MTB6OLQjVAXASr5+YTNQRKQjVAXCSh2tdLuzZs2euugGdW7x48T3qBgAA0Lmf/vSnf6JuQGcGBgYeVzd4KFQHwEmkDgAgFaoD4IR7pwDSsF8dgFlbUyuVi+oIZEN7a3RFnIGZuVkd0CM8kOmXSB0AIH96Phy9dnCgYrxA8k2sDkgBL3r8EqsDZqt9Y6AizoCbSB0As+uuu+5dbDL0y/z587+hbgAAAJ2L4/gMdQM6U6lUtqkbfFIrlSvGUam+YdAO6FNcs70UqwMAAJmxRh0AvfZn4WyN9teYOqBHQnUAnHCfCEDqFJujQ8H3xCxsnZyK1A0pCNUBcJKHFz2hOgBuOKIlGxqNxlp1A9xceeWVX1A3AACAztx4443DTz311FHqDnTmxBNP3KVu8EyoDoCzWB0AQCZUB8AN904BpKSuDkAqPqgOQCZcaiwK89WWarORqCO6jWV2XorVAQDyRzEcvVLwPTFzkTpgtkaGBgN1A5xF6oAUsK3cL7E6AC3NZvNMdQM6t3z58qfVDQAAoHO7d+++eHp6Wp2BDs2dO/e76gbP8D7cL/Vqs1FXRwCQ4Zrtl0gdACA36uoApCJsnwKBPtX+7/9xdQdm7A51QI+E6gA4i9QBAPKHzdE4Ejb4oteS9ROTdXVECgJ1AJxE6gC0TExMLFE3oHPLli3bqW4AAACd2bx58+q//uu/Xp4kiToFHVq/fv3fqBs8E6gD4CRSBwCQCtQBcBKrAwAAmcNgbH+70cyK6gjMSL3abIypI3qEBzL9EvfDRnMAvdfT4ei1gwNF46aXb2J1QAp40eOXSB2QklAdACd5eBDEe6Ojowv37t1bUHegM4VCwRYvXszADgAAnti5c+enGo2GsTnaD6tWrUrUDT5pH5UaiDPgZrs6AIAG12wvce8UQCqqzUakbkBqLlAHQKNWKodmtkacgZkbUwf0UKAOgJNYHQAgn3q9OTro8ffD7EXqgBQE6gA48f5Ga/tNIfwSqwNgNjk5+SE2GfqjWCza4OAgw9EAAHjiBz/4wR+qG9C5hQsXTqgbPBOoA+AsUgcAkAnVAXAWqQMAAJlTrJXKF6gj0Fvth9xuV3dgVm5WB/RQqA6AE+/nhABkU6+Ho8Mefz/MTrx1cipRR8zGyNBgxcwq4gy4idUBKQjVAXBSrzYbdXUEzMbHx9/JJkN/nHbaadPDw8M/VncAAIAju+aaaz7z2GOPHaXuQGcKhYItWLBgt7rDM6E6AE6SarMRqyMAyATqADipc7w1gJTF6gCkZoM6AD13qTF74bOoXz4TZ5mdlyJ1AIB86vVw9Nk9/n6YnVgdkIJQHQA36ycmI3VDClaqA+AkUgegZd++fUPqBnRuaGhoj7oBAAB05utf//pHOaHDH8Vi0SqVyrfUHZ7hnqNfYnUAACmu2X6J1AEAcidRByA1FbZH949aqRwYA/G++5I6oIdCdQCcJP0yuA+g99gcjcPJw7EFDKn6JVIHpCRUB8DJdnUAWrZt21ZUN6BzpVLpPnUDAAA4so997GP/efv27S/jhA5/FAoF++QnP/lFdYdnQnUAnOThniOAmQvVAXDCvVMAaaurA5AqhmX7x+3qAMxKUm02tqgjeog5Ib9E6gAA+dWz4ei1gwNhr74XUhOpA1IQqgPgxPsPx9pPzRbFGXATqQNgdu211/65ugFuyuXyVnUDAAA4vNtuu23Bd7/73f9d3QE3ixYtelLd4JP2+3D4JVIHANDgeGsvReoAALnzkDoAqWJ7dB+olcrXmFkgzsDsbFEH9FioDoAT7+eEAGRXLzdHBz38Xpi9ZOvkVF0dMRsjQ4NF4+fON7E6IAWBOgBOkmqzEasjYPboo4++S90AN1dcccU31A0AAODwJiYmbnnssceOUnfAzfz58x9TN3gmVAfATbXZiNQNAGQCdQCccO8UQDfE6gCkbkOtVC6qI9Ad7Yfb2BDuv5vVAb3CMjsvxeoAAPnVy+Hos3v4vTB7kTogBYE6AM4idUAKuNb5JVYHoGVqauoMdQM6t2rVqkTdAAAADm/z5s2rt2zZcn6SJOoUOBoYGPiJusEzvA/3S6wOACDFNdsvsToAQC4l6gCkrmJml4ob0AXtoffb1R2YtbFqs1FXR/RQoA6AGx6iB9BNvRyODnv4vTB7eTi2IFQHwEm8fmIyUUekIFQHwEkernW5sHPnzkXqBnTuFa94xXZ1AwAAOLy77rrrbxuNhk1PT6tT4Gj+/Pmc0OEmUAfASaQOACAVqgPghHunAFLHAFRubaiVyhV1BFJ3u7WG3+G3L6kDeowHMv0SqQMA5FtPhqPXDg5UjGMLfBOrA1LAix6/xOqA2Wo/PVsRZ8BNpA6A2S233PL2p556iuPePVIul8fUDQAA4NCuvPLK/3n//fefou7AzBx77LHfVDf4ov3he0WcATcM2gF9qn3NLooz4CZSBwDIrbo6AF3BhuEcqZXKl5rZGnEGZq9ebTbG1BE9FqoD4CRWBwDIt15tjg579H2Qkq2TU5G6IQWhOgBO8vDhWKgOgBs2FGTDo48++lY2GvqjUChYqVT6mroDAAC8uJtvvvmD3/72t/8XXl/5aWBg4Jnh4eF96g6PhOoAOIvVAQBkQnUA3HDvFEAX1dUB6IqwPVALz9VK5dDMblR3IBU3qwN6iWV2XsrDnBCADOvVcDQbfP0SqQNma2RoMFA3wFmkDkgB1zq/xOoAtOzYsePcJEnUGejQWWeddeCqq66aVHcAAIDf9bnPfe4dX/nKV76wZ88ee+qpp9Q5mIFSqcR/ODcr1QFwUq82G3V1BAAZ7p36JVYHAMg1BqHy68ZaqRyoIzBz7dM+vq7uQCoSM9sibui1UB0AZ5E6AEC+9Wo4OujR90E68vCGNFQHwEmyfmKyro5IQaAOgJNIHYCWH/7wh8vYbOiPpUuX3q9uAAAAv+u2225b8LWvfe0bDz744NFPPPGE/frXv1YnwVGhULAVK1bco+7wTKgOgJNIHQBAKlAHwEmkDgCQa3V1ALrq9vb2Vnim/d/t62ZW1JYgJWPVZiNRR/RYoA6Ak3of/owC6LGuD0evHRwoGn8A+SZWB6SALRR+idQBKQnVAXCShwdBvDc6OrpwamrqaHUHOlcsFv9F3QAAAH7b5z73uXfcfvvte++7776j2Rjtr2KxaEuWLPmuusMX7Q9tA3EG3GxXBwDQ4JrtJa7ZALqprg5AVwVmdqM6AjPydeM1W55sVAcIMCfkl0gdACD/erE5OuzB90C6InVACkJ1AJx4P6RaK5VDdQOcxeoAmCVJcoG6AW5OOeWU/0vdAAAAnvOZz3zmQjZG50OhULB58+Z9S93hkUAdAGeROgCATKgOgLNIHQAgv6rNRqRuQNddUCuVL1VHoHO1Uvl24zVbnoxVm426OkIgVAfAifdzQgCyrxfD0UEPvgfSE2+dnErUEbMxMjRYMY568U2sDkhBqA6Ak3qfviHMnKmpqXeoG9C5gYGBZ6666qofqDsAAEDLRRdd9Pc33njjF9kYnR+XXHLJveoGj4TqADhJqs1GrI4AIBOoA+CEe6cAeiFWB6DrbqyVyheoI3Bk7cHoC9QdSNXN6oBeY5mdl2J1AID868VwNMcW+CVWB6QgVAfAzfqJyUjdkAKudX6J1AFoefjhh5eqG9CZQqFgK1eufFjdAQAAzK655prPrFy5cvqLX/ziHz388MPGxuh8WLFiRUPd4Bneh/slVgcAkOKa7ZdYHQCgL8TqAPTEjbVSOVBH4NAYjM6lqE839AfqADjhIXoAPdGL4eiwB98D6cnDsQXcaPVLpA5ISaAOgJPt6gC07Ny58xR1AzpTLBYtCILvqDsAAOhXn/70p1/3gQ984J9f9apXPfNXf/VXl+3atetl6iaka3BwcJe6wTOBOgBO8nDPEcDMheoAOOGaDaAXuNb0h6KZ1RiQziYGo3Or77ZGtzEn5JdIHQCgPxzdzS++dnAg7ObXR1dE6oAUBOoAOPH+5kf7DX1RnAE3kToAZtdff/1FN9/cr+/P/VMoFOzUU0/9qroDAIB+csMNN5w3Pj7+/rvvvvudV1111bHqHnRXqVT6lrrBF7wP91KkDgCgwfHWXorVAQD6QqwOQM8UrTUgXWVLaHYwGJ1b9WqzMaaOEAnVAXDCMjsAPdHV4WhjSNU3ydbJqbo6YjZGhgaLxs+db2J1QApCdQCccERLRuzateu9SZKoM+DgIx/5yN+rGwAAyLPrrrvuXY899tg5+/btC3/yk5/8/ujo6FFJktj09LQ6DT1w3HHHcUpH50J1ANz06ZG+AFoCdQDccM0G0AvVZiOulcqJ8dBjvygaA9KZwWB0rm1UByjUSuWK8eeJbyJ1AID+0O3haI4t8EukDkhBqA6As0gdkIKV6gA4idUBaBkfH38Vgz7+WLFiRaNer6szAADIjVtuueXtjz766Fvr9frKHTt2rN6zZ8/cK6644iXqLmjMnTv32csuu+wedYdHeB/ul1gdAECKz4n8EqkDAPSV2Phst58UzezeWql8YbXZ2CJu6Uu1UrloZjXj4bW8qvfx761QHQA3PJAJoFe6PRwddvnrI113qwNSEKgD4CRePzGZqCNSEKoD4CQP17pcuO+++8rqBnRu8eLFDOsAAOBoZGTknb/5zW9KBw4ceOMzzzxz4tTU1Ksff/zxObt37577mc98xqanp43N0DAzO/PMMxvf+9731Bk+CdUBcBKpAwBIBeoAOOHeKYBeutt4bd+Pbq+VypVqs3GNOqSf1ErlwMy+bmYVbQm6qC+3RrfxQKZfInUAgP7RteHotYMDFePYAt/E6oAU8KLHL7E6YLbaR7RUxBlwE6kDYLZp06bXXH755WxG9Mj8+fO/oW4AACBLbr311rOSJDnriSeeOLZer7/HzOynP/3pSjOzPXv2zN2/f/9L1q9fr42EFwqFgr3yla/8HsPRneF9uJe2qwMAaHDN9lKsDgDQVyIz26COgMSGWqm80swurDYbiTom72ql8gVmdqMxv5NnSR9vjTbjgUzfxOoAAP2jm5ujwy5+bXTB1smpSN2QglAdACd52EIRqAPghiNasqHZbL5f3QA3xx577DfVDQD8tnHjxk8eOHDgtYf7d44++uifH3/88f+U5ve98sorv5Dm10P+Hdz2bGZ2cOPzv/7rv57w85//fOmvf/3rl+zevbv8+OOPH7Vp0yY2PyMVxWLRFi9e/N/UHR4J1AFwFqkDAMiE6gA4i9QBAPpHtdmIaiUOmOxja8wsqJXK51ebjVjckku1UrloraHoC7Ql6IGb1QEq7Z/zQJwBN3mYEwLgiW4OR7PB1y+ROmC2RoYGQ3UDnEXqgBRwrfNLrA5Ay759+0J1Azq3fPnyp4eHh/epOwD47Stf+crVO3fuPLaDf/WClL/159P8YnPnzn12yZIl+9P8mmZmr3jFK7qyVXPevHnff+lLX9pM++sWCoV/Pemkk54uFov3XnLJJfem/fVna3R0dOEjjzyyZnp6+qUH/9kvfvGLVx04cGDJwf99cMuzmVmz2ZwzNTV1tJkZ257RayeffPJvPvGJT/ytusMjvA/3S73abNTVEQBkVh75X0GG1NneCUAgMh6m6WcVM7u3VipvrDYb14hbcqVWKodmdrtxikc/SMzsJnGDUqgOgLNYHQCgf3RzODro4tdG+vLwZE6gDoCTZP3EZF0dkYJQHQAnkToALY1G4zR1Azq3bNmynTt37lRnAPDY6OjowuHh4U4GozNv//79L9m2bVsx7a+7bdu2bg37deXrFgoFKxaLVigUrFKp/Nb/VnjhBucbbriBjc7wxpIlSybvv/9+dYZPQnUAnMTqAABSoToATiJ1AIC+dIfx5wXMNtRK5T82swvZIj077S26G8zsUm0JeujmPn/ALVAHwAkP0QPoqa4MR68dHCgafwD5JlYHpIDNQX6J1AEpCdQBcJKHB0G8Nzo6uvCGG244Qd2BzhQKBRscHPyBugOA35IkuUDdgHRNT09bo9FQZwC5cNppp/2zusEzgToATngfDvQpjrf2EtdsAAqROgCZEVhri/RNZraxz4c9Z6RWKl9gZjeaWVFbgh5KrL+3RpsxJ+SbSB0AoL/8Xpe+btilr4vuidQBKQjVAXDi/Y3W9nFE8EusDoDZ5OTkh5IkUWegQ8Vi0RYvXvxFdQcAv/3sZz97o7oBALKqXC5vVTf4gvfhXorUAQBkAnUAnMXqAAD9p70luC7OQLZcamYTtVL5UnGHN2qlclgrlWtmdrsxGN1v1vEgAXNCntmuDgDQX7o1HB106euiO+Ktk1OJOmI2RoYGK8YLfd/E6oAUhOoAOOGIloyYmpo6myPu/XHaaadNDw8P/1jdAcBv9Xp9lboBALJoYGDgmSuuuOIb6g6PhOoAuOFIbKCvheoAOEm4ZgMQitQByJyimd1YK5Un2tuQ8SJqpXKlVip/3cxqxmuvflSvNhtb1BFKtVI5UDfAWaQOANBfujUczbEFfonVASkI1QFws35iMlI3pIBrnV8idQBafvrTn65UN6Bzp556akPdAMB/O3fuPEXdAABZ9MpXvrKubvAM78P9EqkDAEhxzfZLrA4A0NfuUAcgsypmdnt7SPrSWqlcFPdkwvM2RU+Y2RpxDnQ2qgMyIFQHwAkPZALouaO79HXDLn1ddMfd6oAUcKPVL5E6ICWBOgBOOKIlI7Zt21ZUN6Bzp5122j+rGwD47frrr7/o5ptvVmcAQOYUCgU744wz/vtdd92lTvFJoA6AkzzccwQwc6E6AE7qtVI5VEcAfYSTLp+n2myM1UpldQayrWJmN5rZhlqpvMXMbu7H30PtLdofN94bg63RBzEn5JdYHQCg/6Q+HL12cCBM+2ui6yJ1QAoCdQCceP/hWPuIlqI4A24idQDMrr322j+/8sor1RlwUC6Xt6obAPht165d702SRJ0BAJlTLBZtcHDwv6g7fMH7cC9F6gAAGhxv7aUL2r8A9MZGM7tGHZExY8YGXBxZ0cwuNbNLa6VybGY3m9lYtdlIdEnd1X5d9UFr/TldVLYgU9apAzIiUAfAifdzQgD8043N0UEXvia6J9k6OVVXR8zGyNBg0fi5802sDkhBqA6AE45oyYgkSd6sboCbK6644hvqBgB+27Fjx+rp6Wl1BgBkzute97r68PDwPnWHR0J1AJzF6gAAMqE6AAAyLlIHZNAdxnA03ARmdruZ3V4rlces9TMU5WGj9PMGotdYa2s28HxRtdkYU0eo1UrlivH7wzeROgBA/+nGcDTHFvglUgekIFQHwFmkDkjBSnUAnMTqALRMTEy8Sd2Azq1atSrZtm2bOgOA57Zt21ZUNwBAFp122ml3qhs8w/twv8R53t4G4Ij4nAgADqPabETqhgwas9agKzATa9q/rL1ROrLWhtLIh/cl7SHP0FqvodYYG6JxeBvVARkRqgPghtc/ABS6MRwdduFronvycGxBoA6Ak3j9xGSijkhBqA6Akzxc63Jh586di9QN6EyhULAVK1bcw3A0gNnYuHHjxRs2bFBnAEAmLVy4cETd4JlQHQAnkToAgFSgDgCADIvVAVlUbTaS9vbfNeIU+C9o/7rU7N+HpWMz226thzgjSVVbrVQu2nONK631Xrei6oF3xtQ/wxnCQ/R+idUBAPpTqsPRawcHKsZTbL6J1QEpYAuFX2J1wGxxRIuXInUAzG699dazNm3adJS6A50pFou2ZMmS76o7APjtkUceOV/dAABZ9OY3v/mRyy+/fErd4Yv2h8cVcQbcbFcHANDg3ikAHFGkDsiwO4zhaKQvsOc9uFUrlc3M6u1fsZntb/81MbOk2mzEs/2Gz3s9VGx/77ntvx7858BMrVMHZEioDoCTSB0AoD+lvTk6TPnrocu2Tk5F6oYUhOoAOMnDBt9AHQA3PEGbDc1m80+np6fVGehQoVCw+fPnf0ndAcBv9Xp9lboBALJo6dKlf/e9731PneGTUB0AZ5E6AIBMqA4AgIzLw+dkXVFtNrbUSuUbjWVs6L5K+1f4wv+jPTx9UL3960iKxufH6L6bqs1GXR2RBc/bwA5/8PoHgETaw9Fs8PVLpA6YrZGhwVDdAGeROiAFXOv8EqsD0LJjx45zkyRRZ6BDixYtevLDH/7wI+oOAH7buXPnKeoGAMiiBQsWfErd4Bneh/ulzge2QF/jeGsAOLxYHZBxY2Z2gbgBOKhibHpGNiRmtlEdkSGBOgDOYnUAgP70eyl/vSDlr4fuysOTOYE6AE6S9ROTdXVECkJ1AJxE6gC0/OQnPxlic7Q/BgcH6+oGAH67/vrrL+K6DwC/q1qt7rv22msfUnd4JlAHwEmsDgAgFaoDACDDeIjsyDjNEAB+17pqs5GoIzIkVAfACa9/AMikNhy9dnCgaHxQ4ZtYHZACNgf5JVIHpCRQB8BJHh4E8d7o6OjCnTt3HqvuQOcGBwe/q24A4Lddu3a9lxMDAOB3vfKVr/yGusFDoToATngfDvQpjrcGgCOK1AFZV202IjOrizMAIEviarOxRR2RMcwJ+SVWBwDoX2lujg5T/FrojUgdkIJQHQAn3n84ViuVQ3UDnMXqAJgdOHDgXHUD3MybN++/qxsA+G3Hjh2r2RwNAM855phjbNGiRf92yy23/B/qFp/wPtxLkToAgEygDgCAjNuuDvAE26MB4Dnr1AEZFKoD4MT7OSEA/kpzODpI8Wuh++Ktk1OJOmI2RoYGK2ZWFGfATawOSEGoDoATjmjJiEceeeR8dQM6N3fu3Gcvu+yye9QdAPy2bdu2oroBALJkzpw5ds455zAM4S5UB8BNtdmI1Q0AZEJ1AABkXKQO8MQWdQAAZMSW9kZ9tNVK5UDdAGeROgBA/0pzOJpjC/wSqwNSEKoD4Gb9xGSkbkgB1zq/ROoAtNTr9VXqBnSmUCjYm970pkl1BwC/bdy48WJ1AwBkTaFQsDPOOONqdYeHVqoD4CRSBwCQ4t4pABxawkNknWkvvRkTZwCAWmJsjX4xoToAbnj9A0ApzeHoMMWvhe7Lw7EF3Gj1S6QOSEmgDoATtrJlxM6dO09RN6AzxWLRgiD4jroDgN84MQAAftfixYufXLdu3Z3qDg+F6gA4ycM9RwAzF6oDACDDYnWAZ25WBwCA2MZqs5GoIzKIOSG/ROoAAP0tleHotYMDYRpfBz0VqQNSEKgD4MT7D8faR7QUxRlwE6kDYHbDDTecNz09rc5AhwqFgpVKJe+v2QC0ODEAAH7X6tWrv6xu8A3vw70UqQMAaHC8NQAcEfdcHVSbjcjM6uIMAFCJqs3GTeqIjArUAXDC6x8AUmltjg5S+jrojWTr5FRdHTEbI0ODRePnzjexOiAFoToATjiiLiPGx8ffnySJOgMOPvaxjzG4A2BWODEAAH7b3Llznx0YGBhRd3goUAfAWawOACATqgMAIOMidYCHNqoDAEBknTogi2qlcsXMKuIMuInUAQD6W1rD0Rxb4JdIHZCCUB0AZ5E6IAUr1QFwEqsD0PLAAw+8mc3R/lixYkVD3QDAb9dff/1FXPcB4DmFQsHOP//87wwPD+9Tt3iIe45+iTnyF+hrXLMB4DDam5DhZszMEnEDAPTaRhaAHVKgDoCzWB0AoL+lNRwdpvR10Bt5OLYgUAfASbx+YjJRR6QgVAfASR6udbkwMTExX92Azi1evPgedQMAv+3ateu9nBgAAM8pFot25plnXqHu8FSoDoCTSB0AQCpQBwBAhsXqAB+1H7y7Wd0BAD1UrzYb16gjMowHMv3CQ/QA5GY9HL12cKBiZsVZl6CXYnVACnjR45dYHTBbHNHipUgdALNNmza9Zmpq6mh1Bzp34oknfl/dAMBv4+Pjr2JzNAA85+yzz75/eHj4x+oO39RK5aLxPtw329UBADS4dwoARxSpAzy2RR0AAD10oTog40J1AJxE6gAASGNzdJjC10APbZ2citQNKQjVAXCShw2+gToAbjiiLhuazeb71Q1wc/zxx39Z3QDAb/fdd19Z3QAAWbJ06dIN6gZPheoAOIvUAQBkQnUAAGRcHj4nk6g2G3VjQBpAf7iJz7ePKFAHwAkP0QOQS2M4mg2+fonUAbM1MjQYqhvgLFIHpIBrnV9idQBaHnvssVXqBnRu+fLlTw8PD+9TdwDw13XXXfeu/fv3v0TdAQBZUCgU7C1vecujn/70p/9a3eIp3of7JWkPrgDoTyvVAQCQcbE6wHMb1QEA0GV141p3WLVSOVQ3wFmkDgCANIajgxS+BnonD08mB+oAOEnWT0zW1REpCNUBcBKpA9Dy0EMPnaFuQOdOO+00BqMBzEqj0VirbgCArCgWi3bOOeesV3d4LFAHwEmkDgAgFaoDACDD6jxENjtsjwbQBy6sNhuJOiLjQnUAnPD6B0AmzGo4eu3gQNH4oMI3sTogBWwO8kukDkhJoA6Akzw8COK90dHRhbt27TpB3YHOFAoFW7p06bfVHQD8tnfv3jeoGwAgK4Ig+NknP/nJL6o7PBaqA+CE9+FAn6qVykXj3ikAHE6kDsgJNqoCyKubqs1GpI7wAHNCfonVAQBgNvvN0WEaEeipSB2QglAdACfefzjGES1eitUBMHvkkUfWJEmizkCHisWiLV68mOEdALOyZ8+eQXUDAGRFEAR8eD9DvA/3UqwOACATqAMAIOO2qwPygO3RAHIqrjYb69QRngjUAXDi/ZwQgHyY7XB0kEYEeibeOjmVqCNmY2RosGJmRXEG3MTqgBSE6gA44YiWjKjX6++Znp5WZ6BDJ5988m+Gh4d/rO4A4K8bbrjhvMcee+wodQcAqBUKBXvLW97y6MjIyF+qWzwWqAPghi1XQF8L1QEAkHGROiBHeAAVQN5cqA7wQa1UDow5Id/E6gAAMJv9cDTHFvglVgekIFQHwM36iclI3ZACrnV+idQBaPnpT3+6Ut2Azi1ZsmRS3QDAb+Pj4+/nxAAAaJ3I8fa3v/0idYfneB/ul0gdAECKazYAHFpSbTZidURetBfj3CTOAIC0rOPPiI6F6gC44SF6AFkx2+HoMI0I9Eweji3gRqtfInVASgJ1AJxwRF1GbNu2rahuQOdOO+20f1Y3APDbAw888GZODAAAs7PPPvv+T3ziE3+r7vBcqA6AkzzccwQwc6E6AAAyLFYH5NBGM0vUEQAwS1G12bhJHeERFnL5JVIHAMBBMx6OXjs4EKbYgd6I1AEpCNQBcOL9h2Mc0eKlSB0As5GRkXeqG+Bm3rx5kboBgN/uu+++sroBANTmzp377PLlyy9Wd/isVipXjPfhvonVAQA02vdOAQCH5v3nZFlTbTYSM7tZ3QEAs5CY2fnqCM+E6gA44fUPgMyYzeboIK0I9ESydXKqro6YjZGhwaLxc+ebWB2QglAdACccUZcRjz/++P+qboCbDRs2fF7dAMBf11133bv279//EnUHACgVCgU7//zzv7Nx48YfqFs8F6oD4CxSBwCQCdUBAJBxkTogp24ys7q4AQBm6vz2gx7oQPsh+oo4A25idQAAHDSb4eizU6tAL0TqgBSE6gA4i9QBKeCIFr/E6gC0TExMvEndgM6tWrUqUTcA8Fuj0VirbgAAtdNPP/1XZ5555oXqjhzgnqNfYj7UBfoa904B4DCqzUakbsij9uvPdeoOAJiBjfzZ4CxQB8BZpA4AgINmMxwdphWBnsjDsQWBOgBO4vUTk4k6IgWhOgBO8nCty4W9e/eeqm5A517xildsVzcA8NvevXvfoG4AALVzzjlnZHh4eJ+6IwcCdQCcxOoAAFKhOgAAMixWB+RZtdkYM4avAPglqjYb16gjPMRD9H7hIXoAmTKj4ei1gwMVMyumWoJui9UBKeBFj19idcBscUSLlyJ1AMxuvfXWs372s58V1B3o3Lx5876vbgDgtz179gyqGwBAadWqVcnmzZuvUXf4rlYqF43haN/wkDLQp7h3CgBHFKkD+gAn9wDwRWJm56sjPBWqA+AkVgcAwPPNdHN0mGYEum/r5FSkbkhBqA6Akzx8OBaoA+CGY4iy4fHHH/+j6elpdQY6VCgUbGBg4C/VHQD8dcMNN5z32GOPHaXuAACVU0455dlzzz33XHVHToTqADiL1AEAZAJ1AABkXB4+J8u0arNRN7ON6g4A6ECVbbozFqgD4ITXPwAyZabD0Wzw9UukDpitkaHBUN0AZ5E6IAVc6/wSqwPQ8pOf/GRNkiTqDHTo9NNP/9VVV101qe4A4K/x8fH3c90H0M/OPffc73zqU5/iJI50BOoAOEnaAykA+hP3TgHg8GJ1QJ+4yczq4gYAOJx11WYjVkf4qFYqh+oGOIvUAQDwfDMdjg7SjEDX5eHJnEAdACfJ+onJujoiBaE6AE4idQBa7r333jPZHO2P5cuX71Y3APDbAw888Gau+wD60THHHGOvec1rntqyZcvb1C05wqCdXyJ1AACpUB0AABlW5yGy3mhvYr1Q3QEAh7Cl2mzcpI7wWKgOgBMeogeQOc7D0WsHB4rGoKpvYnVACvhwzC+ROiAlgToATvLwIEgu7Ny581h1AzpXKpX4vQNgVu67776yugEAFObMmWPvete7/jd1R86E6gA44b0E0N8CdQAAZFikDugn1WYjstYGaQDIktjM1qkjPLdSHQAnkToAAF5oJpujw7Qj0HWROiAFoToATrz/cIwjWrwUqwNgtnHjxovVDXBz4oknfkfdAMBf11133bv279//EnUHAPTSMcccYyeddJK9973vvfOqq666Q92TF7wP91KsDgCgwTUbAI5ouzqgD200s7o6AgDaEjOrtrfbY+ZCdQCceD8nBCB/ZjIcHaQdga6Kt05OJeqI2RgZGqyYWVGcATexOiAFoToATjiiLiMeeeSR89UN6NzcuXOf3bhx45i6A4C/Go3GWnUDAPTanDlz7Jxzznn4L//yL89Tt+RMoA6Am/aGPgD9KVQHAEDGReqAftMeQLxQ3QEAxmB0KmqlcmDMCfkmVgcAwAvNZDj67NQr0E2xOiAFoToAbtZPTEbqhhRwrfNLpA5AS71eX6VuQGcKhYK96U1vmlR3APBbs9k8U90AAL1ycGP0smXLnnnzm9/8TnVPDvE+3C+ROgCAFNdsADi0pNpsxOqIftR+eO8mcQYArOPPgVQE6gC44SF6AFk0k+HoMO0IdFUeji3gRqtfInVASgJ1AJxwRF1GTE1NzVM3oDPFYtFWrFixTd0BwG8TExNL1A0A0Ctz5syxJUuW2Hve855P/sVf/MW/qHtyKFAHwEke7jkCmLlAHQAAGRarA/rcRuO/AQCdddVmY4s6IieYE/JLpA4AgBfjNBy9dnAg7FIHuidSB6QgUAfAifcfjnFEi5cidQDMbrjhhvMee+yxo9Qd6EyhULBTTz11TN0BwF+jo6Ov3rt3b0HdAQC9UigUrFqtfvs//sf/uFndkje1UrliZhVxBtzE6gAAGtw7BYAj8v5zMp9Vm43EzC40s0RbAqAPbak2GzepI3IkVAfASawOAIAX47o5OuhGBLom2To5VVdHzMbI0GDR+LnzTawOSEGoDoATjqjLiPHx8fcnSaLOgIOPfexjX1Y3APDX+Pj4RVz3AfSTxYsXP7lp06a3qTtyKlQHwFmkDgAgE6oDACDjInVAv2t/ZrRO3QGgr4xVm40L1RF5USuVi8ZD9L7h4TAAmeQ6HM2xBX6J1AEpCNUBcBapA1KwUh0AJ7E6AC0TExN/MD09rc5Ah1asWNFQNwDw2+7du8/hug+gX8ydO/fZ88477wx1R47xPtwvcXsjH4D+xDUbAA6j2mxE6gaYVZuNLWa2RZwBoD/E1tpYj/SE6gA4i9QBAPBiXIejw25EoGvy8GROoA6Ak3j9xGSijkhBqA6Akzxc63LhgQceqKgb0LnBwcFd6gYAfuO6D6BfzJ0799k/+7M/e9/ll18+pW7JsVAdACexOgCAVKgOAIAMi9UB+C3rjP8mALorNrMqDxCnjsWdfqnzewBAVnU8HL12cKBiZsWulaAbYnVACnjR45dYHTBbtVK5YhzR4ptIHQCzzZs3r56amjpa3YHOlUqlb6kbAPhr06ZNr+G6D6Bf/Mmf/MkXRkdHt6o78qp9VGogzoAbHlIG+hT3TgHgiCJ1AJ7THtS60MwSbQmAnErM7HyGQrsiUAfASaQOAIBDcdkcHXYrAt2xdXIqUjekIFQHwEkePhwL1AFwwxF12fCLX/ziD9UNcHP88cd/Wd0AwF/NZvP96gYA6IX3vOc9d3/+85//kLoj5wJ1AJxF6gAAMoE6AAAyLg+fk+VKtdmIrTUgDQBpSqy1Mbou7sirUB0AJ7z+AZBZLsPRbPD1S6QOmK2RocFQ3QBnkTogBVzr/BKrA9DSbDb/SN2Azg0MDDwzPDy8T90BwF/79u0L1Q0A0G3veMc7HvzqV78aqjv6QKgOgJOED3+Bvsa9UwA4vFgdgN9VbTbGzGydugNAbiTWGoyOxR25VCuVQ3UDnMXqAAA4FJfh6KBbEeiKPDyZE6gD4CRZPzFZV0ekIFQHwEmkDkDL7t27A3UDOvfKV76yrm4A4LeJiYkl6gYA6Ka3ve1te775zW+eru7oEwza+SVSBwCQCtUBAJBhdR4iy65qs3GTmW0RZwDwX2IMRndbqA6Ak4TfDwCyrKPh6LWDA0VjUNU3sTogBXw45pdIHZCSQB0AJ3l4ECQXdu/ePVfdgM4UCgVbunTpt9UdAPw1Ojr66r179xbUHQDQLStWrPjlXXfdtVTd0UdCdQCcbFcHAJAK1AEAkGGROgCHV202LjT+OwGYucQYjO6FleoAOInUAQBwOJ1ujg67GYGuiNQBKQjVAXDi/ZAqR7R4KVYHwOyzn/3sB9QN6FyxWLRFixb9nboDgL/Gx8cvSpJEnQEAXbF8+fKn3/3ud/++uqNf1ErlQN0AZ5E6AIAG904B4Ih4iMwP5xufLQFwlxiD0b0SqgPghNc/ADKt0+HooJsRSF28dXIqUUfMxsjQYMXMiuIMuInVASkI1QFwwhF1GfHwww+vmZ6eVmegQyeffPJvPvGJT/ytugOAv3bv3n0O130AebRixYpfrl27dvnGjRv3qlv6SKgOgJtqsxGpGwDIhOoAAMi4SB2AI6s2G4mZVc2sri0B4JHEGIzuiVqpXDHmhHwTqQMA4HA6HY4+u6sVSFusDkhBqA6Am/UTk5G6IQVc6/wSqQPQ8qMf/ehNbBD1x5IlSybVDQD89sADD1TUDQCQtoMboxmM7jneh/slUgcAkOKaDQCHljA054/2gPT51hp4BIDDSYzB6F4K1QFww0P0ALKu0+HosJsRSN3d6oAUcKPVL5E6ICWBOgBOOKIlI7Zt23YyG0T9US6X/z91AwB/bdq06TVTU1NHqzsAIE3VavVhNkbLBOoAOInVAQCkAnUAAGRYrA6Am/agY9UYkAZwaIkxGN1rzAn5JVIHAMCRHHE4eu3gQNiDDqQrUgekIFAHwIn3A/m1UjkwjmjxTaQOgNnIyMg79+/f/xJ1Bzq3YMGCr6sbAPir2Wy+X90AAGl629vetqdWqy1kMLr32kelVsQZcOP9/R8AM8O9UwA4Il4neYgBaQCHkRiD0QqBOgBOYnUAABxJJ5ujg25HIFXJ1smpujpiNkaGBovGz51vYnVACkJ1AJxwRF1G7N+//y3qBrjZsGHD59UNAPy1b9++UN0AAGk5//zzt911111L1R19LFQHwFmkDgAgE6oDACDjInUAZoYBaQAvom4MRvdcrVQuGnNCvuHhMACZ18lwNMcW+CVSB6QgVAfAWaQOSMFKdQCcxOoAtExOTjIc7ZFVq1Yl6gYAfpuYmFiibgCANFx00UX/9etf//qr1R19jvfhfqlXm41EHQFAhms2ABxGtdmI1A2YOQakATxPbGZnMRgtEaoD4CxWBwDAkXQyHB12OwKpysOTOYE6AE7i9ROTiToiBaE6AE7ycK3LhQcffHCZugGdKRQKtmzZsl3qDgD+Gh0dffXevXsL6g4AmKlCoWBLliz5t/Xr13/ki1/84p+re8D7cM9E6gAAUqE6AAAyLFYHYPYYkAZgret5lQeDZQJ1AJzUq81GXR0BAEdy2OHotYMDFTMr9qQEaYnVASlgW7lfYnXAbNVK5YqZVcQZcBOpA2B22223LfjZz37GkJwnisWinXHGGWPqDgD+Gh8fvyhJEnUGAMzYWWeddeBDH/rQH4+MjPylugVmxodevuEhZaBPce8UAI4oUgcgHQxIA31tS7XZOIvBaCnmhPwSqQMAoBNHH+H/D3sRgfRsnZyK1A0pCNUBcJKHD8cCdQDccERdNjz66KMfnJ6eVmegQ4VCwebPn/8ldQcAf01OTr6O6z4AnxxzzDE2Z84cKxQKtnr16vrZZ5/9puHh4X3qLpjVSuVQ3QBnsToAgEygDgCAjMvD52RoqzYbca1UrprZ142Hg4B+sbHabFyjjgBzQp7Zrg4AgE4cdnO08WSObyJ1wGyNDA2G6gY4i9QBKeBa55dYHYCWn/zkJ2vYIOqPU045ZfrDH/7wI+oOAP568MEHl6sbAMDFnDlzbMmSJXbxxRf/1zvuuGOIwehMCdUBcJK0t+gB6E/cOwWAw4vVAUhX+7XvWcZ/WyDvEjO7kMFoPR6i91KkDgCAThxpODroRQRSk4cnkwN1AJwk6ycm6+qIFITqADiJ1AFoefDBB09ng6g/li1b9qC6AYC/RkdHF+7cufNYdQcAdOKYY46xk046yVauXPn0+9///nM3btz45+om/A4G7fwSqQMASIXqAADIsHq12airI5C+arORmFnVeC0M5FViZtVqs7FF3IGWQB0AJzxED8AbRx/q/1g7OFA0/gDyTawOSAEfjvklUgekJFAHwEkeHgTJhW3bthXVDejcggULYnUDAH81m80/UzcAQKfmzJlj55133u43vvGNZ3NyRmYF6gA44ahUoL8F6gAAyLBIHYDuOTggXSuVbzezC7Q1AFIUW2swOhF34DnMCfklVgcAQKcOtzk67FUEUhOpA1IQqgPgxPshVY5o8VKsDoDZxo0bL1Y3wM28efP+p7oBgL8eeeSRt6sbAOBICoWCLVmy5N8uueSSq7/85S8vYzA6m2qlcmBmRXEG3ETqAAAa3DsFgCPiIbI+UG02LjSzdeoOAKnYUm02zmIwOnNCdQCceD8nBKB/HHJztLENwDfx1smpRB0xGyNDgxXjwzHfxOqAFITqADjhiLqMeOSRR85XN6Bzc+fOfXb9+vV/o+4A4K+HHnroDHUDABzJW9/61r1vfetb3zA8PLxP3YLDCtUBcFNtNiJ1AwCZUB0AABkXqQPQG9Vm46ZaqVw3s9uNz7MBHyVmtq7abGwRd+AFaqVyxbiu+iZSBwBApw63OZpjC/wSqwNSEKoD4Gb9xGSkbkgB1zq/ROoAtDQajd9XN6AzhULBVq1a9Zi6A4C/RkdHF+7atesEdQcAvFChULByuWyvetWrfnPZZZdtvPPOOxcxGO2FleoAOInUAQCkuHcKAIeWVJuNWB2B3qk2G2NmVrV8fC4P9JPYzKoMRmdWqA6AGx6iB+CTww1Hh72KQCrycGwBN1r9EqkDUhKoA+CEI+oyYs+ePYPqBnSmWCzaa17zmn9UdwDw1+Tk5IeSJFFnAMDvKBaL9h/+w3/4fz/60Y8Obt68+Rp1DzoWqgPgJFYHAJAK1AEAkGGxOgC91x6Ir5rZmLYEQIe2WGswOhZ34NCYE/JLrA4AABdHv9g/XDs4EPa4A7MXqQNSEKgD4MT7gfxaqRwYR7T4JlIHwOyGG244b3R09Ch1BzpTKBTs1FNPHVN3APDX+Pj4O6enp9UZAGDHHHOMzZkzxwqFgi1evPjJt7/97f/xyiuv/IK6C51rH5VaEWfAjff3fwDMDPdOAeCIeJ3Up6rNRmJm59dK5UvN7EZtDYBDSMzswvbGd2RboA6Ak0gdAAAuDrU5OuhlBGYt2To5VVdHzMbI0GDR+LnzTawOSEGoDoATjqjLiIceeuhcNoj65WMf+9iX1Q0A/PXggw8uVzcAgJnZnDlz7Mwzz3zmkksu+cz3vve9uQxGeylQB8BZpA4AIBOoAwAg4yJ1ALSqzcZNZnaWmdW1JQBeIDKzIQajs69WKheN9x2+4eEwAF451HA0xxb4JVIHpCBUB8BZpA5IwUp1AJzE6gC07N69+xw2iPpj6dKl+9UNAPw1Ojq6cOfOnceqOwD0t2OOOcZOOukke+9733vn+973vtOuvvrqT6ibMGPcc/RLvb0VD0B/4poNAIdRbTYidQP02kt9zjKzLdoSANbaFr2u2mxUeS/rjUAdAGexOgAAXBx9iH8e9jICs5aHJ3MCdQCcxOsnJhN1RApCdQCc5OFalwsPPPBARd2Azi1dujT+9re/rc4A4Klms/ln6gYAeMc73rHzDW94wwcvv/zyH6lbMGuhOgBOInUAAKlQHQAAGRarA5Ad7SHMC2ul8h1mdruZFaVBQH+KzOzCarNRF3fATagOgJM6v8cA+OZ3NkevHRyoGC/YfROrA1LAFgq/xOqA2aqVyhUzq4gz4CZSB6C1QXRqaupQD1chg0ql0rfUDQD89cgjj7xd3QCgf5177rkPXn311W+44447fp/B6NwI1AFwwkPKQJ9qH29dEWcAQJZF6gBkT7XZGDOzIePnA+ilxJ7bFl0Xt8Adc0J+idUBAODqxYabwl5HYHa2Tk5F6oYUhOoAOMnDh2OBOgBuOKIuGw4cOPABdQPcHHfccd9RNwDw10MPPXSGugFA/3nb296256yzzrpw06ZN//h3f/d36hykpFYqh+oGOIvVAQBkQnUAAGRcHj4nQxe0t0hXa6XypWa2wVhKB3TTmLUGo+viDsxcqA6AE17/APDO72yONp7M8U2kDpitkaHBUN0AZ5E6IAVc6/wSqwPQ8vOf//z16gZ0bmBg4JnLLrvsHnUHAD+Njo4u3LVr1wnqDgD5VygUrFwu29q1a+/fsGHD6++6666lmzZt+kd1F1IXqgPgJKk2G7E6AoAM904B4PBidQCyrdps3GStLdJj2hIgl+pmdn612TifwWh/1UrlQN0AZ5E6AABcvdjm6KDXEZiVPDyZE6gD4CRZPzFZV0ekIFQHwEmkDkDL+Pj4anUDOvfKV76yPjU1pc4A4KnJyckPJUmizgCQc3Pnzn323HPP/dHq1av/Ynh4+MfqHnQVg3Z+idQBAKQCdQAAZFidYTx0or1F+vxaqbzGzG40s4qyB8iJjWZ2U/v3F/wWqgPghofoAfjot4aj1w4OFI2bXr6J1QEp4MMxv0TqgJQE6gA4ycODILmwY8eOsroBnSkUCjY0NPQv6g4A/hofH3/n9PS0OgNAjhQKBSsWi1YoFOyUU06Zft3rXvfXlUrlE8PDw/u+8pWvqPPQfYE6AE62qwMASIXqAADIsEgdAL9Um42xWqkcmdmlZrZBWwN4a8zM1vFwSq4wJ+SXSB0AADPxws3RoSICsxKpA1IQqgPgxPsh1VqpHKob4CxWB8Dss5/97AdGR0fVGehQsVi0xYsX/zd1BwB/Pfjgg8vVDQDypVgs2rvf/e6dS5cu/fy6detGf/SjH6mT0CPto1KL4gy4idQBADS4dwoAR8RDZHDW3nJ7Ta1U3mJmtxufjwOdiq01FB2JO5C+QB0AJ97PCQHoTy8cjg4UEZixeOvkVKKOmI2RocGK8eGYb2J1QApCdQCccERdRjSbzbPZIOqPk08++Tef+MQn/lbdAcBPo6OjC4eHh49VdwDw28FN0aeddtr08uXL7z3zzDM/ftlll92j7oJEoA6AGz54BvpaqA4AgIyL1AHwV/vzrmr7YaTbzayi7AEyrG5mG6vNxhZxB7qgVipXjOufbyJ1AADMxAuHozm2wC+xOiAFoToAbtZPTEbqhhRwrfNLpA5ASxzHf5gkiToDHRoYGHj8/vvvV2cA8NSBAwc+oG4A4L+3vvWte1//+tffetVVV42wJbrv8T7cL7E6AIDUSnUAAGRYUm02YnUE/Nd+GHGoVipfYGYbjCFB4KDEWkPRN4k70F2hOgDOYnUAAMzEC4ejQ0UEZiwPxxbw4ZhfInVASgJ1AJxwRF1G/OM//uMgm6P9UalUtqkbAPjr5z//+evVDQD8UygU7KyzzjqwevXqL59yyimbrrrqqsk777xTnYVsCNUBcBKpAwBIheoAAMiwWB2AfKk2G1tqpfKYmV1qZh83TlxG/0rM7GYzu6nabCTaFPQAD2T6Jeb3JQBf/ftw9NrBgVDYgZmJ1AEpCNQBcOL9QH6tVA6MGwu+idQBMNu8efPqyy677CXqDnRuwYIFX1c3APDX+Pj4anUDAH8sX7786Ve/+tXfGhoauuFTn/rU97///e+rk5AhtVK5aGxB8433938AzAz3TgHgiHidhNS1B86uqZXKNxlD0ug/iTEU3Y9CdQCcROoAAJip52+ODlQRmJFk6+RUXR0xGyNDg0Xj5843sTogBaE6AE44oi4jHn/88T9VN8DNhg0bPq9uAOCvHTt2lNUNALKnUChYsVi0QqFgixYtenLlypV/u3Dhwpsvv/zyH+3cuVOdh+wK1QFwFqsDAMgE6gAAyLhIHYD8YkgafaZuraHoLQxF95f2Q/SBOANuOOkbgLeePxx9tqwCMxGpA1IQqgPgLFIHpIAjWvwSqwPQMjk5+RZ1Azq3fPnypxlQAjBTn/3sZz8wOjqqzgCQMXPnzn32TW960+Tq1av/nwULFox++MMffuTuu1maho5wz9Ev9WqzUVdHAJDhmg0Ah1FtNiJ1A/KPIWnkXN3MNlabjS3iDugE6gA4i9QBADBTzx+ODlURmJE8fAIZqAPgJF4/MZmoI1IQqgPgJA/XulyYnJysqBvQuWXLlu1kOBrATD388MNrpqen1RkAMuDMM8/85R/8wR/8U7lcHhsZGfnLO++80+688051FvwTqAPgJFIHAJAK1QEAkGGxOgD95eCQtLUGpS8wsw1mVtEVAbMSWWsoOhJ3QC9UB8AJD9ED8NrRZmZrBwcqxtOGvonVASlgC4VfYnXAbNVK5Ypx08A3kToAZrfddtuC66+//gR1Bzp36qmnfkvdAMBfP/rRj96UJIk6A4DA8uXLn162bNnOU0899Vvz5s37q2uvvfah++67T50F/4XqADjhqFSgT7WPt66IMwAgyyJ1APpXe8vullqpvMZam6RDZQ/QocTMxqw1FF2XliBLmBPyS6wOAIDZOLg5OlRGwN3WyalI3ZCCUB0AJ3nY4BuoA+CGp4ez4dFHH/0gG0T9USgUbP78+d9QdwDw13e/+9356gYA3VEoFKxYLFqhULA5c+b8Zmho6NHFixffM3/+/G9ceeWVX9i5c6dx+gTSVCuVQ3UDnEXqAAAyoToAADIuD5+TwXPVZmPMzMbaC6E+bmYXGEvwkD2xmd1sZmPtDejA84XqADjh9Q8Arx0cjubJHL9E6oDZGhkaDNUNcBapA1LAtc4vsToALXv27HkLG0T9cfrpp//qU5/61PfVHQD8dO211/75lVdeqc4AkLK5c+c+u2TJkv3Lli3bdcYZZ4zNmzfvW5dccsm9999/vzoN+ReqA+AkqTYbsToCgAz3TgHg8GJ1AHBQewvvulqpvNHM1lhrUDoQJgGJtbZE38z7ShxKrVQO1A1wFqsDAGA2Dg5HB8oIOMvDkzmBOgBOkvUTk3V1RApCdQCcROoAtOzYsWM1m6P9sXz58t3bt3MSNoCZefTRR9+lbgAwc4VCwc4666wDpVLp8ZNPPnnXvHnz/vmkk076+8svv/xH27Zts23btqkT0X9WqgPgJFYHAJAK1AEAkGH19jAqkCntrbxbzGzL87ZJrzGziqoJfWfMzO6oNhtbxB3wQ6gOgBtO+gbgu6PXDg4UjZtevonVASlgC4VfInVASgJ1AJzk4UGQXNi2bVtR3YDOnXTSSayABDBj4+Pjq9UNADqzatWqZN68eY/NnTt337x5877/8pe/PB4dHd36/e9zgAQyJVQHwAnvw4H+FqoDACDDInUAcCQHt0lba6P0GjP7Y2sNShdlUcir2MxuNrOx9oA+0CkeovdLpA4AgNk62rjh5aNIHZCCUB0AJ95/OFYrlUN1A5zF6gCYXXvttX9+5ZVXqjPg4JRTTtmqbgDgrx07dpTVDUA/KxQKViwWrVAo2KJFi5484YQTfjk4OLjr5S9/eXL88cf/8Oijj3702GOP/ebw8PA+tkAj69pHpRbFGXATqQMAaHDvFACOiKP64JVqszFmrY2+F7YHpT9orc/ni6omeC82sy9ZayC6rk2Bx0J1AJx4PycEAEcbm1R9E2+dnErUEbMxMjRYMd54+SZWB6QgVAfACUfUZcSBAwfeqG6Am40bN46pGwD46bOf/ewHRkdH1RlA7s2dO/fZJUuW7DczO7j5+WUve9nPTzzxxLsLhcK/LliwYGx4eHhfvV4XlwKzFqgD4IajUoG+FqoDACDjInUAMFPPG5Q2NkrD0ZiZ3WFsiEYKaqVyxcwq4gy4idUBADBbR5vZ2eoIOInVASkI1QFws35iMlI3pIBrnV8idQBaHnvssderG9C5VatWJWyRBDBTDz/88Jrp6Wl1BpBpz9/sbGa2dOnS/fPmzXvqmGOOedbM7MQTT9z90pe+9Ekzs6OPPvrnxx9//D+ZmR111FHN9evX/42Z2f79+40/r9EneB/ul1gdAECK460B4NCSarMRqyOANLxgo3RorUHp0Hi4FS11a31Ge0f7ZwVIU6AOgLNIHQAAs3W0MajqmzwcW8CHY36J1AEpCdQBcMIRdRkxNTX1CnUDOveKV7xiO8NWAGbqoYceOrVSqTyxcOHC31O3AN1ycFPz4f6d448/fs9xxx13/wv/+ctf/vIfb9q06R8bjca//zO2OwOHFagD4CRSBwCQCtUBAJBhsToA6Ib2yTGR2b9vdA3tuWHpoiQKvZZY62fgbmtth64rY5B7zAn5JWZjPIA8ONrMquoIOInVASm42cy+pI5Ax+rqgJScrw6Ak1gdgJZ3v/vdF775zW8+Vt2Bzhx77LHf/OpXv6rOAOCpr3zlK69TNwAAcmWdOgBO6uoAAFLcOwWAQ6urA4Buaw/Fbmn/slqpHFhrSPpsY1g6TxJ7bhg6Yis+euxLZnaHOgIdS9QBAJCGl6gDAAAAAAAAAAAAAAAAkD3PG5Ze2f5rRVcDB3VrDUNvN4ahAQBAH2I4GgAAAAAAAAAAAAAAAEdUK5WLZhbYc9ulK8bAtFrdWifzbrfWQHRcbTYSXQ4AAIAew9EAAAAAAAAAAAAAAACYkRcMTC+y1rB0qOrJscRaQ9CxmT108O8ZhAYAAPhdDEcDAAAAAAAAAAAAAAAgVbVSuWLPDUrPtdYA9cF/hkOL2n+92543EM0QNAAAQOcYjgYAAAAAAAAAAAAAAEDPPG9w+uCvg8PT1v5rsddNPVJv/zJrDT+btYafE2MAGgAAIDUMRwMAAAAAAAAAAAAAACBTaqVy0Z4bmH7+35uZLbLf3UAddrfot9TtuSHng2Iz29/++6T9v83MkmqzERsAAAB65v8HlOEh1vB5ZD0AAAAASUVORK5CYII=;" vertex="1" parent="WIyWlLk6GJQsqaUBKTNV-1">
          <mxGeometry x="674.25" y="1100" width="125.52" height="20" as="geometry" />
        </mxCell>
      </root>
    </mxGraphModel>
  </diagram>
</mxfile>
